<svg width="48" height="48" viewBox="0 0 48 48" fill="none" xmlns="http://www.w3.org/2000/svg" xmlns:xlink="http://www.w3.org/1999/xlink">
<path d="M28.785,13.518C33.859,15.449 37.459,20.357 37.459,26.103L40.459,26.103C40.459,19.071 36.051,13.073 29.852,10.715L28.785,13.518ZM10.54,26.103C10.54,20.357 14.141,15.449 19.214,13.518L18.147,10.715C11.948,13.073 7.54,19.071 7.54,26.103L10.54,26.103ZM32.031,36.905C29.789,38.575 27.012,39.563 24,39.563L24,42.563C27.68,42.563 31.081,41.353 33.823,39.311L32.031,36.905ZM37.459,26.103C37.459,26.859 37.397,27.6 37.278,28.32L40.238,28.81C40.384,27.928 40.459,27.024 40.459,26.103L37.459,26.103ZM24,39.563C20.987,39.563 18.21,38.575 15.968,36.905L14.176,39.311C16.918,41.353 20.32,42.563 24,42.563L24,39.563ZM10.721,28.32C10.602,27.6 10.54,26.859 10.54,26.103L7.54,26.103C7.54,27.024 7.616,27.928 7.762,28.81L10.721,28.32Z" transform="rotate(0 24 26.59)" fill="#A49EB5"/>
<circle cx="24" cy="10.692" r="7.098" transform="rotate(0 24 10.692)" stroke="#A49EB5" stroke-width="1.5" stroke-miterlimit="3.999327"/>
<circle cx="36.896" cy="33.965" r="7.098" transform="rotate(0 36.896 33.965)" stroke="#A49EB5" stroke-width="1.5" stroke-miterlimit="3.999327"/>
<circle cx="11.098" cy="33.965" r="7.098" transform="rotate(0 11.098 33.965)" stroke="#A49EB5" stroke-width="1.5" stroke-miterlimit="3.999327"/>
</svg>
