<svg width="48" height="48" viewBox="0 0 48 48" fill="none" xmlns="http://www.w3.org/2000/svg" xmlns:xlink="http://www.w3.org/1999/xlink">
<path d="M28.785,13.519C33.859,15.45 37.46,20.358 37.46,26.104L40.46,26.104C40.46,19.072 36.051,13.074 29.852,10.715L28.785,13.519ZM10.54,26.104C10.54,20.358 14.141,15.45 19.214,13.519L18.147,10.715C11.948,13.074 7.54,19.072 7.54,26.104L10.54,26.104ZM32.031,36.906C29.79,38.576 27.012,39.563 24,39.563L24,42.563C27.68,42.563 31.082,41.354 33.824,39.312L32.031,36.906ZM37.46,26.104C37.46,26.86 37.397,27.6 37.278,28.321L40.238,28.811C40.384,27.929 40.46,27.025 40.46,26.104L37.46,26.104ZM24,39.563C20.987,39.563 18.21,38.576 15.968,36.906L14.176,39.312C16.918,41.354 20.32,42.563 24,42.563L24,39.563ZM10.721,28.321C10.602,27.6 10.54,26.86 10.54,26.104L7.54,26.104C7.54,27.025 7.616,27.929 7.762,28.811L10.721,28.321Z" transform="rotate(0 24 26.59)" fill="#A49EB5"/>
<circle cx="24" cy="10.692" r="7.098" transform="rotate(0 24 10.692)" stroke="#A49EB5" stroke-width="1.5" stroke-miterlimit="3.999327"/>
<circle cx="36.896" cy="33.965" r="7.098" transform="rotate(0 36.896 33.965)" stroke="#A49EB5" stroke-width="1.5" stroke-miterlimit="3.999327"/>
<circle cx="11.098" cy="33.965" r="7.098" transform="rotate(0 11.098 33.965)" stroke="#A49EB5" stroke-width="1.5" stroke-miterlimit="3.999327"/>
</svg>
