<svg width="1548" height="1548" viewBox="0 0 1548 1548" fill="none" xmlns="http://www.w3.org/2000/svg" xmlns:xlink="http://www.w3.org/1999/xlink">
<mask id="mask_0_1_498" style="mask-type:alpha" maskUnits="userSpaceOnUse" x="74" y="334" width="333" height="151">
<path d="M74,364C74,347.431 87.431,334 104,334L710,334C726.568,334 740,347.431 740,364L740,606C740,622.568 726.568,636 710,636L104,636C87.431,636 74,622.568 74,606L74,364Z" fill="#C4C4C4"/>
</mask>
<g mask="url(#mask_0_1_498)">
<rect  x="0" y="0" width="1548" height="1548" fill="url(#pattern_0_1_499)"/>
</g>
<circle cx="406" cy="459" r="15" fill="#FF0000" stroke="#FF0404" stroke-width="2.25" stroke-miterlimit="3.999327"/>
<path d="M418.589,477.828C417.39,477.503 416.154,478.212 415.828,479.411C415.503,480.61 416.212,481.846 417.411,482.172L418.589,477.828ZM394.589,482.172C395.788,481.846 396.497,480.61 396.172,479.411C395.846,478.212 394.61,477.503 393.411,477.828L394.589,482.172ZM427.75,489.747C427.75,491.467 426.177,493.716 422.015,495.667C418.033,497.534 412.373,498.75 406,498.75L406,503.25C412.882,503.25 419.222,501.947 423.926,499.741C428.45,497.62 432.25,494.242 432.25,489.747L427.75,489.747ZM406,498.75C399.627,498.75 393.967,497.534 389.985,495.667C385.823,493.716 384.25,491.467 384.25,489.747L379.75,489.747C379.75,494.242 383.55,497.62 388.074,499.741C392.778,501.947 399.118,503.25 406,503.25L406,498.75ZM417.411,482.172C420.808,483.093 423.499,484.378 425.289,485.802C427.092,487.236 427.75,488.604 427.75,489.747L432.25,489.747C432.25,486.725 430.494,484.192 428.091,482.28C425.675,480.359 422.366,478.853 418.589,477.828L417.411,482.172ZM384.25,489.747C384.25,488.604 384.908,487.236 386.711,485.802C388.501,484.378 391.192,483.093 394.589,482.172L393.411,477.828C389.634,478.853 386.325,480.359 383.909,482.28C381.506,484.192 379.75,486.725 379.75,489.747L384.25,489.747Z" fill="#FF0404"/>
<line x1="403.75" y1="474" x2="403.75" y2="486" stroke="#FF0000" stroke-width="2.25" stroke-miterlimit="3.999327" stroke-linecap="round"/>
</svg>
