<svg width="670" height="80" viewBox="0 0 670 80" fill="none" xmlns="http://www.w3.org/2000/svg" xmlns:xlink="http://www.w3.org/1999/xlink">
<g filter="url(#filter1_5623)">
<path d="M0,20C0,8.954 8.954,0 20,0L650,0C661.046,0 670,8.954 670,20L670,60C670,71.046 661.046,80 650,80L20,80C8.954,80 0,71.046 0,60L0,20Z" fill="#FFFFFF"/>
</g>
<path d="M597,38.5C597,33.529 601.029,29.5 606,29.5L606,29.5C610.971,29.5 615,33.529 615,38.5L615,38.5C615,43.471 610.971,47.5 606,47.5L606,47.5C601.029,47.5 597,43.471 597,38.5L597,38.5Z" stroke="#60778C" stroke-width="1.5" stroke-miterlimit="3.999327"/>
<path d="M628.255,38.5C624.695,47.295 616.072,53.5 606,53.5C595.928,53.5 587.305,47.295 583.745,38.5C587.305,29.704 595.928,23.5 606,23.5C616.072,23.5 624.695,29.705 628.255,38.5Z" clip-rule="evenodd" fill-rule="evenodd" stroke="#60778C" stroke-width="1.5" stroke-miterlimit="3.999327"/>
<path d="M614.907,19.521C615.194,18.744 614.798,17.881 614.021,17.593C613.244,17.306 612.381,17.702 612.093,18.479L614.907,19.521ZM597.093,58.979C596.806,59.756 597.202,60.619 597.979,60.907C598.756,61.194 599.619,60.798 599.907,60.021L597.093,58.979ZM612.093,18.479L597.093,58.979L599.907,60.021L614.907,19.521L612.093,18.479Z" fill="#60778C"/>
<path d="M617.298,19.521C617.586,18.744 617.189,17.881 616.413,17.593C615.636,17.306 614.773,17.702 614.485,18.479L617.298,19.521ZM599.485,58.979C599.197,59.756 599.594,60.619 600.371,60.907C601.147,61.194 602.01,60.798 602.298,60.021L599.485,58.979ZM614.485,18.479L599.485,58.979L602.298,60.021L617.298,19.521L614.485,18.479Z" fill="#FFFFFF"/>
<defs>
<filter id="filter1_5623" x="-62" y="-62" width="459" height="164" filterUnits="userSpaceOnUse" color-interpolation-filters="sRGB">
<feFlood flood-opacity="0" result="BackgroundImageFix"/>
<feColorMatrix in="SourceAlpha" type="matrix" values="0 0 0 0 0 0 0 0 0 0 0 0 0 0 0 0 0 0 127 0" result="hardAlpha"/>
<feMorphology radius="0" operator="dilate" in="SourceAlpha" result="0dropshadow"/>
<feOffset dx="0" dy="4"/>
<feGaussianBlur stdDeviation="31"/>
<feComposite in2="hardAlpha" operator="out"/>
<feColorMatrix type="matrix" values="0 0 0 0 0.6 0 0 0 0 0.670588 0 0 0 0 0.776471 0 0 0 0.18 0"/>
<feBlend mode="normal" in2="BackgroundImageFix" result="0dropshadow"/>
<feBlend mode="normal" in="SourceGraphic" in2="0dropshadow" result="shape"/>
</filter>
</defs>
</svg>
