<svg width="176" height="176" viewBox="0 0 176 176" fill="none" xmlns="http://www.w3.org/2000/svg" xmlns:xlink="http://www.w3.org/1999/xlink">
<path d="M0,88C0,46.516 0,25.775 12.887,12.887C25.775,0 46.516,0 88,0C129.484,0 150.225,0 163.113,12.887C176,25.775 176,46.516 176,88C176,129.484 176,150.225 163.113,163.113C150.225,176 129.484,176 88,176C46.516,176 25.775,176 12.887,163.113C0,150.225 0,129.484 0,88Z" fill="#120161"/>
<path d="M102.333,103.667C104.358,103.667 106.036,105.324 105.634,107.309C104.923,110.814 103.196,114.063 100.629,116.63C97.191,120.068 92.528,122 87.666,122C82.804,122 78.141,120.068 74.702,116.63C72.136,114.063 70.409,110.814 69.698,107.309C69.296,105.324 70.974,103.667 72.999,103.667L102.333,103.667Z" fill="#FFFFFF"/>
<path d="M110.041,73.514C108.085,74.038 106.887,76.084 107.879,77.85C108.923,79.708 110.367,81.33 112.124,82.588C114.882,84.565 118.24,85.524 121.626,85.302C125.012,85.08 128.216,83.691 130.692,81.371C133.169,79.052 134.765,75.945 135.208,72.581C135.65,69.217 134.913,65.803 133.122,62.922C131.33,60.04 128.594,57.869 125.381,56.778C122.168,55.688 118.676,55.745 115.5,56.94C113.478,57.701 111.663,58.894 110.174,60.419C108.759,61.867 109.386,64.154 111.14,65.167L113,66.241C115.829,67.874 115.271,72.112 112.116,72.958L110.041,73.514Z" fill="#FFFFFF"/>
<path d="M65.292,73.514C67.248,74.038 68.446,76.084 67.454,77.85C66.41,79.708 64.966,81.33 63.21,82.588C60.452,84.565 57.093,85.524 53.708,85.302C50.322,85.08 47.117,83.691 44.641,81.371C42.164,79.052 40.568,75.945 40.126,72.581C39.683,69.217 40.42,65.803 42.212,62.922C44.004,60.04 46.739,57.869 49.952,56.778C53.165,55.688 56.657,55.745 59.833,56.94C61.855,57.701 63.67,58.894 65.159,60.419C66.574,61.867 65.947,64.154 64.193,65.167L62.333,66.241C59.504,67.874 60.062,72.112 63.217,72.958L65.292,73.514Z" fill="#FFFFFF"/>
</svg>
