<svg width="28" height="24" viewBox="0 0 28 24" fill="none" xmlns="http://www.w3.org/2000/svg" xmlns:xlink="http://www.w3.org/1999/xlink">
<path d="M16.657,0.893C16.657,0.065 15.985,-0.607 15.157,-0.607C14.328,-0.607 13.657,0.065 13.657,0.893L16.657,0.893ZM12.902,18.403L13.093,16.915L13.093,16.915L12.902,18.403ZM5.448,15.933C4.627,15.828 3.875,16.408 3.769,17.23C3.664,18.052 4.244,18.803 5.066,18.909L5.448,15.933ZM13.657,0.893L13.657,16.419L16.657,16.419L16.657,0.893L13.657,0.893ZM13.093,16.915L5.448,15.933L5.066,18.909L12.711,19.891L13.093,16.915ZM13.657,16.419C13.657,16.721 13.392,16.953 13.093,16.915L12.711,19.891C14.804,20.159 16.657,18.529 16.657,16.419L13.657,16.419Z" transform="rotate(90 10.207 9.793)" fill="#05B016"/>
<path d="M23.707,4.601C23.707,3.772 23.035,3.101 22.207,3.101C21.379,3.101 20.707,3.772 20.707,4.601L23.707,4.601ZM20.707,20.985C20.707,21.814 21.379,22.485 22.207,22.485C23.035,22.485 23.707,21.814 23.707,20.985L20.707,20.985ZM20.707,4.601L20.707,20.985L23.707,20.985L23.707,4.601L20.707,4.601Z" transform="rotate(90 22.207 12.793)" fill="#05B016"/>
</svg>
