<svg width="28" height="26" viewBox="0 0 28 26" fill="none" xmlns="http://www.w3.org/2000/svg" xmlns:xlink="http://www.w3.org/1999/xlink">
<path d="M15.95,0.601C15.95,-0.228 15.278,-0.899 14.45,-0.899C13.621,-0.899 12.95,-0.228 12.95,0.601L15.95,0.601ZM12.167,20.073L11.955,21.558L11.955,21.558L12.167,20.073ZM4.762,17.5C3.942,17.383 3.182,17.953 3.065,18.773C2.948,19.593 3.518,20.353 4.338,20.47L4.762,17.5ZM12.95,0.601L12.95,18.093L15.95,18.093L15.95,0.601L12.95,0.601ZM12.379,18.588L4.762,17.5L4.338,20.47L11.955,21.558L12.379,18.588ZM12.95,18.093C12.95,18.398 12.68,18.631 12.379,18.588L11.955,21.558C14.063,21.86 15.95,20.223 15.95,18.093L12.95,18.093Z" transform="rotate(90 9.5 10.5)" fill="#05B016"/>
<path d="M23,4.308C23,3.479 22.328,2.808 21.5,2.808C20.672,2.808 20,3.479 20,4.308L23,4.308ZM20,22.692C20,23.521 20.672,24.192 21.5,24.192C22.328,24.192 23,23.521 23,22.692L20,22.692ZM20,4.308L20,22.692L23,22.692L23,4.308L20,4.308Z" transform="rotate(90 21.5 13.5)" fill="#05B016"/>
</svg>
