<svg width="50" height="48" viewBox="0 0 50 48" fill="none" xmlns="http://www.w3.org/2000/svg" xmlns:xlink="http://www.w3.org/1999/xlink">
<path d="M0.358,21.358C0.358,17.837 3.213,14.982 6.734,14.982L29.03,14.982C30.417,14.982 31.78,15.342 32.985,16.028L39.301,19.62C40.649,20.386 40.649,22.33 39.301,23.097L32.985,26.688C31.78,27.374 30.417,27.734 29.03,27.734L6.734,27.734C3.213,27.734 0.358,24.88 0.358,21.358L0.358,21.358Z" transform="rotate(270 21.358 21.358)" stroke="#FF9228" stroke-width="1.5" stroke-miterlimit="3.999327"/>
<path d="M25.697,11.219C24.869,11.219 24.197,11.891 24.197,12.719C24.197,13.548 24.869,14.219 25.697,14.219L25.697,11.219ZM34.697,14.219C35.526,14.219 36.197,13.548 36.197,12.719C36.197,11.891 35.526,11.219 34.697,11.219L34.697,14.219ZM25.697,14.219L34.697,14.219L34.697,11.219L25.697,11.219L25.697,14.219Z" transform="rotate(90 30.197 12.719)" fill="#FF9228"/>
<line x1="8" y1="38.5" x2="44" y2="38.5" stroke="#FF9228" stroke-width="1.5" stroke-miterlimit="3.999327" stroke-linecap="round"/>
</svg>
