<svg width="50" height="48" viewBox="0 0 50 48" fill="none" xmlns="http://www.w3.org/2000/svg" xmlns:xlink="http://www.w3.org/1999/xlink">
<path d="M0.358,21.358C0.358,17.837 3.213,14.982 6.734,14.982L29.03,14.982C30.417,14.982 31.78,15.342 32.985,16.028L39.301,19.62C40.649,20.386 40.649,22.33 39.301,23.097L32.985,26.688C31.78,27.374 30.417,27.734 29.03,27.734L6.734,27.734C3.213,27.734 0.358,24.88 0.358,21.358L0.358,21.358Z" transform="rotate(270 21.358 21.358)" stroke="#3F13E4" stroke-width="1.5" stroke-miterlimit="3.999327"/>
<path d="M25.698,11.22C24.869,11.22 24.198,11.892 24.198,12.72C24.198,13.548 24.869,14.22 25.698,14.22L25.698,11.22ZM34.698,14.22C35.526,14.22 36.198,13.548 36.198,12.72C36.198,11.892 35.526,11.22 34.698,11.22L34.698,14.22ZM25.698,14.22L34.698,14.22L34.698,11.22L25.698,11.22L25.698,14.22Z" transform="rotate(90 30.198 12.72)" fill="#3F13E4"/>
<line x1="8" y1="38.5" x2="44" y2="38.5" stroke="#3F13E4" stroke-width="1.5" stroke-miterlimit="3.999327" stroke-linecap="round"/>
</svg>
