<svg width="60" height="62" viewBox="0 0 60 62" fill="none" xmlns="http://www.w3.org/2000/svg" xmlns:xlink="http://www.w3.org/1999/xlink">
<path d="M46,46.325L46,29.858L12,26.042L12,46.325C12,48.14 13.223,49.736 14.987,50.158C25.502,52.672 32.498,52.672 43.012,50.158C44.777,49.736 46,48.14 46,46.325Z" fill="#FF9228"/>
<path d="M25.239,7.026L3.474,19.215C2.81,19.587 2.788,20.533 3.432,20.936L31.544,38.507C33.009,39.423 34.897,39.295 36.225,38.188L56.773,21.063C57.341,20.59 57.218,19.687 56.545,19.383L28.84,6.87C27.683,6.348 26.346,6.406 25.239,7.026Z" fill="#FF9228" stroke="#FFF5F3" stroke-width="1.5" stroke-miterlimit="3.999327" stroke-linecap="round"/>
<path d="M46.687,41.576C34.397,44.199 23.603,44.199 11.313,41.576L10.687,44.51C23.39,47.221 34.61,47.221 47.313,44.51L46.687,41.576Z" fill="#FFF5F3"/>
<path d="M34,19.041C34,21.25 32.209,23.041 30,23.041C27.791,23.041 26,21.25 26,19.041C26,16.832 27.791,15.041 30,15.041C32.209,15.041 34,16.832 34,19.041Z" stroke="#FFF5F3" stroke-width="1.5" stroke-miterlimit="3.999327"/>
<path d="M33.42,18.601C32.625,18.369 31.792,18.825 31.56,19.62C31.328,20.416 31.785,21.248 32.58,21.481L33.42,18.601ZM49.58,26.44C50.375,26.672 51.208,26.215 51.44,25.42C51.672,24.625 51.215,23.792 50.42,23.56L49.58,26.44ZM32.58,21.481L49.58,26.44L50.42,23.56L33.42,18.601L32.58,21.481Z" fill="#FFF5F3"/>
<path d="M51.016,23.898L48.398,26.094L48.398,34.722C48.398,35.445 48.984,36.03 49.707,36.03C50.43,36.03 51.016,35.445 51.016,34.722L51.016,23.898Z" stroke="#FF9228" stroke-width="1.5" stroke-miterlimit="3.999327" stroke-linecap="round"/>
</svg>
