<svg width="48" height="48" viewBox="0 0 48 48" fill="none" xmlns="http://www.w3.org/2000/svg" xmlns:xlink="http://www.w3.org/1999/xlink">
<path d="M33.6,4.8L14.4,4.8C10.866,4.8 8,7.665 8,11.2L40,11.2C40,7.665 37.135,4.8 33.6,4.8Z" fill="#FF9228"/>
<path d="M35.2,11.2L12.8,11.2C8.382,11.2 4.8,14.782 4.8,19.2L4.8,20.8L43.2,20.8L43.2,19.2C43.2,14.782 39.618,11.2 35.2,11.2Z" fill="#FF9228" stroke="#FFF4E9" stroke-width="1.5" stroke-miterlimit="3.999327"/>
<rect  x="0.231" y="16.231" width="44.6" height="28.6" rx="9.5" fill="#FF9228" stroke="#FFF4E9" stroke-width="1.5" stroke-miterlimit="3.999327"/>
<line x1="22.18" y1="24.09" x2="22.18" y2="25.685" stroke="#FFF4E9" stroke-width="1.5" stroke-miterlimit="3.999327" stroke-linecap="round"/>
<line x1="22.18" y1="38.199" x2="22.18" y2="39.794" stroke="#FFF4E9" stroke-width="1.5" stroke-miterlimit="3.999327" stroke-linecap="round"/>
<path d="M23.74,33.469C24.568,33.469 25.24,32.798 25.24,31.969C25.24,31.141 24.568,30.469 23.74,30.469L23.74,33.469ZM25.148,29.061C25.148,29.889 25.82,30.561 26.648,30.561C27.476,30.561 28.148,29.889 28.148,29.061L25.148,29.061ZM23.74,30.469C22.962,30.469 22.331,29.839 22.331,29.061L19.331,29.061C19.331,31.496 21.305,33.469 23.74,33.469L23.74,30.469ZM22.331,29.061C22.331,28.283 22.962,27.652 23.74,27.652L23.74,24.652C21.305,24.652 19.331,26.626 19.331,29.061L22.331,29.061ZM23.74,27.652C24.517,27.652 25.148,28.283 25.148,29.061L28.148,29.061C28.148,26.626 26.174,24.652 23.74,24.652L23.74,27.652Z" fill="#FFF4E9"/>
<path d="M23.74,39.286C24.569,39.286 25.24,38.615 25.24,37.786C25.24,36.958 24.569,36.286 23.74,36.286L23.74,39.286ZM25.149,34.878C25.149,35.706 25.82,36.378 26.649,36.378C27.477,36.378 28.149,35.706 28.149,34.878L25.149,34.878ZM23.74,36.286C22.962,36.286 22.332,35.656 22.332,34.878L19.332,34.878C19.332,37.312 21.306,39.286 23.74,39.286L23.74,36.286ZM22.332,34.878C22.332,34.1 22.962,33.469 23.74,33.469L23.74,30.469C21.306,30.469 19.332,32.443 19.332,34.878L22.332,34.878ZM23.74,33.469C24.518,33.469 25.149,34.1 25.149,34.878L28.149,34.878C28.149,32.443 26.175,30.469 23.74,30.469L23.74,33.469Z" transform="rotate(360 23.74 34.878)" fill="#FFF4E9"/>
<path d="M12.732,19.2C12.732,18.372 12.06,17.7 11.232,17.7C10.403,17.7 9.732,18.372 9.732,19.2L12.732,19.2ZM3.2,25.731C2.372,25.731 1.7,26.403 1.7,27.231C1.7,28.06 2.372,28.731 3.2,28.731L3.2,25.731ZM9.732,19.2L9.732,21.231L12.732,21.231L12.732,19.2L9.732,19.2ZM5.232,25.731L3.2,25.731L3.2,28.731L5.232,28.731L5.232,25.731ZM9.732,21.231C9.732,23.717 7.717,25.731 5.232,25.731L5.232,28.731C9.374,28.731 12.732,25.374 12.732,21.231L9.732,21.231Z" fill="#FFF4E9"/>
<path d="M46.3,19.2C46.3,18.372 45.628,17.7 44.8,17.7C43.971,17.7 43.3,18.372 43.3,19.2L46.3,19.2ZM36.831,25.731C36.003,25.731 35.331,26.403 35.331,27.231C35.331,28.06 36.003,28.731 36.831,28.731L36.831,25.731ZM43.3,19.2L43.3,21.231L46.3,21.231L46.3,19.2L43.3,19.2ZM38.8,25.731L36.831,25.731L36.831,28.731L38.8,28.731L38.8,25.731ZM43.3,21.231C43.3,23.717 41.285,25.731 38.8,25.731L38.8,28.731C42.942,28.731 46.3,25.374 46.3,21.231L43.3,21.231Z" transform="rotate(360 40.815 23.216)" fill="#FFF4E9"/>
<path d="M12.7,36.8C12.7,35.971 12.029,35.3 11.2,35.3C10.372,35.3 9.7,35.971 9.7,36.8L12.7,36.8ZM3.231,43.331C2.403,43.331 1.731,44.003 1.731,44.831C1.731,45.659 2.403,46.331 3.231,46.331L3.231,43.331ZM9.7,36.8L9.7,38.831L12.7,38.831L12.7,36.8L9.7,36.8ZM5.2,43.331L3.231,43.331L3.231,46.331L5.2,46.331L5.2,43.331ZM9.7,38.831C9.7,41.316 7.686,43.331 5.2,43.331L5.2,46.331C9.343,46.331 12.7,42.973 12.7,38.831L9.7,38.831Z" transform="rotate(-180 7.216 40.815)" fill="#FFF4E9"/>
<path d="M46.3,36.831C46.3,36.003 45.628,35.331 44.8,35.331C43.972,35.331 43.3,36.003 43.3,36.831L46.3,36.831ZM36.831,43.3C36.003,43.3 35.331,43.971 35.331,44.8C35.331,45.628 36.003,46.3 36.831,46.3L36.831,43.3ZM43.3,36.831L43.3,38.8L46.3,38.8L46.3,36.831L43.3,36.831ZM38.8,43.3L36.831,43.3L36.831,46.3L38.8,46.3L38.8,43.3ZM43.3,38.8C43.3,41.285 41.285,43.3 38.8,43.3L38.8,46.3C42.942,46.3 46.3,42.942 46.3,38.8L43.3,38.8Z" transform="rotate(-180 40.815 40.815)" fill="#FFF4E9"/>
</svg>
