<svg width="60" height="60" viewBox="0 0 60 60" fill="none" xmlns="http://www.w3.org/2000/svg" xmlns:xlink="http://www.w3.org/1999/xlink">
<rect  x="3.039" y="3.039" width="52" height="52" rx="8" fill="#FF9228"/>
<line x1="2" y1="16.5" x2="56" y2="16.5" stroke="#FFFFFF" stroke-width="1.5" stroke-miterlimit="3.999327"/>
<line x1="32" y1="8.5" x2="45.172" y2="8.5" stroke="#FFFFFF" stroke-width="1.5" stroke-miterlimit="3.999327" stroke-linecap="round"/>
<path d="M14.135,9.875C14.135,10.911 13.295,11.75 12.26,11.75C11.224,11.75 10.385,10.911 10.385,9.875C10.385,8.839 11.224,8 12.26,8C13.295,8 14.135,8.839 14.135,9.875Z" fill="#FFFFFF"/>
<path d="M20.385,9.875C20.385,10.911 19.545,11.75 18.51,11.75C17.474,11.75 16.635,10.911 16.635,9.875C16.635,8.839 17.474,8 18.51,8C19.545,8 20.385,8.839 20.385,9.875Z" fill="#FFFFFF"/>
<path d="M26.635,9.875C26.635,10.911 25.795,11.75 24.76,11.75C23.724,11.75 22.885,10.911 22.885,9.875C22.885,8.839 23.724,8 24.76,8C25.795,8 26.635,8.839 26.635,9.875Z" fill="#FFFFFF"/>
<path d="M15.294,36.352C15.294,33.035 17.983,30.345 21.3,30.345L32.928,30.345C34.557,30.345 36.135,30.909 37.396,31.941L40.894,34.804C41.872,35.604 41.872,37.099 40.894,37.9L37.396,40.763C36.135,41.795 34.557,42.358 32.928,42.358L21.3,42.358C17.983,42.358 15.294,39.669 15.294,36.352L15.294,36.352Z" transform="rotate(270 29.039 36.352)" stroke="#FFFFFF" stroke-width="1.5" stroke-miterlimit="3.999327"/>
</svg>
