<svg width="120" height="120" viewBox="0 0 120 120" fill="none" xmlns="http://www.w3.org/2000/svg" xmlns:xlink="http://www.w3.org/1999/xlink">
<path d="M0,60C0,31.716 0,17.574 8.787,8.787C17.574,0 31.716,0 60,0C88.284,0 102.426,0 111.213,8.787C120,17.574 120,31.716 120,60C120,88.284 120,102.426 111.213,111.213C102.426,120 88.284,120 60,120C31.716,120 17.574,120 8.787,111.213C0,102.426 0,88.284 0,60Z" fill="#FFFFFF"/>
<path d="M70,75C71.381,75 72.525,76.13 72.251,77.484C71.766,79.873 70.589,82.089 68.839,83.839C66.495,86.183 63.315,87.5 60,87.5C56.685,87.5 53.505,86.183 51.161,83.839C49.411,82.089 48.234,79.873 47.749,77.484C47.475,76.13 48.619,75 50,75L70,75Z" fill="#0D0140"/>
<path d="M75.256,54.441C73.922,54.799 73.105,56.194 73.781,57.398C74.493,58.665 75.478,59.77 76.675,60.629C78.556,61.976 80.845,62.63 83.154,62.478C85.463,62.327 87.647,61.38 89.336,59.799C91.025,58.217 92.112,56.099 92.414,53.805C92.716,51.512 92.214,49.184 90.992,47.219C89.77,45.255 87.905,43.774 85.714,43.031C83.524,42.287 81.143,42.326 78.978,43.141C77.599,43.66 76.362,44.473 75.346,45.513C74.381,46.501 74.809,48.06 76.005,48.75L77.273,49.482C79.202,50.596 78.822,53.486 76.67,54.062L75.256,54.441Z" fill="#0D0140"/>
<path d="M44.745,54.441C46.078,54.799 46.895,56.194 46.219,57.398C45.507,58.665 44.523,59.77 43.325,60.629C41.445,61.976 39.155,62.63 36.846,62.478C34.538,62.327 32.353,61.38 30.664,59.799C28.976,58.217 27.888,56.099 27.586,53.805C27.284,51.512 27.787,49.184 29.008,47.219C30.23,45.255 32.095,43.774 34.286,43.031C36.477,42.287 38.858,42.326 41.023,43.141C42.402,43.66 43.639,44.473 44.654,45.513C45.619,46.501 45.191,48.06 43.995,48.75L42.727,49.482C40.798,50.596 41.179,53.486 43.33,54.062L44.745,54.441Z" fill="#0D0140"/>
</svg>
