<svg width="48" height="48" viewBox="0 0 48 48" fill="none" xmlns="http://www.w3.org/2000/svg" xmlns:xlink="http://www.w3.org/1999/xlink">
<rect  x="3.231" y="3.23" width="41.6" height="41.6" rx="8" fill="#FF9228"/>
<line x1="2.4" y1="13.7" x2="45.6" y2="13.7" stroke="#FFF4E9" stroke-width="1.5" stroke-miterlimit="3.999327"/>
<line x1="26.4" y1="7.3" x2="36.937" y2="7.3" stroke="#FFF4E9" stroke-width="1.5" stroke-miterlimit="3.999327" stroke-linecap="round"/>
<path d="M12.108,8.7C12.108,9.529 11.436,10.2 10.608,10.2C9.779,10.2 9.108,9.529 9.108,8.7C9.108,7.872 9.779,7.2 10.608,7.2C11.436,7.2 12.108,7.872 12.108,8.7Z" fill="#FFF4E9"/>
<path d="M17.108,8.7C17.108,9.529 16.436,10.2 15.608,10.2C14.779,10.2 14.108,9.529 14.108,8.7C14.108,7.872 14.779,7.2 15.608,7.2C16.436,7.2 17.108,7.872 17.108,8.7Z" fill="#FFF4E9"/>
<path d="M22.107,8.7C22.107,9.529 21.436,10.2 20.607,10.2C19.779,10.2 19.107,9.529 19.107,8.7C19.107,7.872 19.779,7.2 20.607,7.2C21.436,7.2 22.107,7.872 22.107,8.7Z" fill="#FFF4E9"/>
<path d="M13.034,29.881C13.034,27.227 15.186,25.076 17.84,25.076L27.142,25.076C28.445,25.076 29.708,25.527 30.716,26.352L33.137,28.333C34.114,29.134 34.114,30.629 33.137,31.429L30.716,33.41C29.708,34.235 28.445,34.686 27.142,34.686L17.84,34.686C15.186,34.686 13.034,32.535 13.034,29.881L13.034,29.881Z" transform="rotate(270 24.031 29.881)" stroke="#FFF4E9" stroke-width="1.5" stroke-miterlimit="3.999327"/>
</svg>
