<svg width="60" height="62" viewBox="0 0 60 62" fill="none" xmlns="http://www.w3.org/2000/svg" xmlns:xlink="http://www.w3.org/1999/xlink">
<line x1="20" y1="54.544" x2="40" y2="54.544" stroke="#FF9228" stroke-width="1.5" stroke-miterlimit="3.999327" stroke-linecap="round"/>
<path d="M25.369,56.001C26.83,53.047 27.351,51.298 27.369,48L38.959,48L38.959,56.001L25.369,56.001Z" transform="rotate(360 32.164 52)" fill="#FF9228"/>
<path d="M21.369,56.001C22.83,53.047 23.351,51.298 23.369,48L34.959,48L34.959,56.001L21.369,56.001Z" fill="#FF9228"/>
<rect  x="2.539" y="2.54" width="52" height="44.004" rx="8" fill="#FF9228" stroke="#FFF5F3" stroke-width="1.5" stroke-miterlimit="3.999327"/>
<line x1="4.087" y1="34.117" x2="56.265" y2="34.117" stroke="#FFF5F3" stroke-width="1.5" stroke-miterlimit="3.999327" stroke-linecap="round"/>
<path d="M31.539,41.642C31.539,42.47 30.868,43.142 30.039,43.142C29.211,43.142 28.539,42.47 28.539,41.642C28.539,40.813 29.211,40.142 30.039,40.142C30.868,40.142 31.539,40.813 31.539,41.642Z" fill="#FFF5F3"/>
<path d="M31.61,12.769C31.61,11.94 30.938,11.269 30.11,11.269C29.281,11.269 28.61,11.94 28.61,12.769L31.61,12.769ZM28.61,29.016C28.61,29.845 29.281,30.516 30.11,30.516C30.938,30.516 31.61,29.845 31.61,29.016L28.61,29.016ZM28.61,12.769L28.61,29.016L31.61,29.016L31.61,12.769L28.61,12.769Z" transform="rotate(31.301 30.11 20.892)" fill="#FFF5F3"/>
<path d="M35.53,14.69C34.702,14.69 34.03,15.361 34.03,16.19C34.03,17.018 34.702,17.69 35.53,17.69L35.53,14.69ZM44.081,16.19L45.581,16.19L45.581,14.69L44.081,14.69L44.081,16.19ZM42.581,24.741C42.581,25.569 43.253,26.241 44.081,26.241C44.91,26.241 45.581,25.569 45.581,24.741L42.581,24.741ZM35.53,17.69L44.081,17.69L44.081,14.69L35.53,14.69L35.53,17.69ZM42.581,16.19L42.581,24.741L45.581,24.741L45.581,16.19L42.581,16.19Z" transform="rotate(90.005 39.806 20.465)" fill="#FFF5F3"/>
<path d="M16.139,14.69C15.31,14.69 14.639,15.361 14.639,16.19C14.639,17.018 15.31,17.69 16.139,17.69L16.139,14.69ZM24.69,16.19L26.19,16.19L26.19,14.69L24.69,14.69L24.69,16.19ZM23.19,24.741C23.19,25.569 23.861,26.241 24.69,26.241C25.518,26.241 26.19,25.569 26.19,24.741L23.19,24.741ZM16.139,17.69L24.69,17.69L24.69,14.69L16.139,14.69L16.139,17.69ZM23.19,16.19L23.19,24.741L26.19,24.741L26.19,16.19L23.19,16.19Z" transform="rotate(269.995 20.414 20.465)" fill="#FFF5F3"/>
</svg>
