<svg width="60" height="60" viewBox="0 0 60 60" fill="none" xmlns="http://www.w3.org/2000/svg" xmlns:xlink="http://www.w3.org/1999/xlink">
<path d="M42,6L18,6C13.582,6 10,9.582 10,14L50,14C50,9.582 46.418,6 42,6Z" fill="#FF9228"/>
<path d="M46,14L14,14C9.582,14 6,17.582 6,22L6,26L54,26L54,22C54,17.582 50.418,14 46,14Z" fill="#FF9228" stroke="#FFF5F3" stroke-width="1.5" stroke-miterlimit="3.999327"/>
<rect  x="1.039" y="21.039" width="55" height="35" rx="9.5" fill="#FF9228" stroke="#FFF5F3" stroke-width="1.5" stroke-miterlimit="3.999327"/>
<line x1="28.1" y1="30.112" x2="28.1" y2="32.106" stroke="#FFF5F3" stroke-width="1.5" stroke-miterlimit="3.999327" stroke-linecap="round"/>
<line x1="28.1" y1="47.75" x2="28.1" y2="49.743" stroke="#FFF5F3" stroke-width="1.5" stroke-miterlimit="3.999327" stroke-linecap="round"/>
<path d="M29.675,41.462C30.503,41.462 31.175,40.79 31.175,39.962C31.175,39.133 30.503,38.462 29.675,38.462L29.675,41.462ZM31.81,36.326C31.81,37.155 32.482,37.826 33.31,37.826C34.139,37.826 34.81,37.155 34.81,36.326L31.81,36.326ZM29.675,38.462C28.495,38.462 27.539,37.506 27.539,36.326L24.539,36.326C24.539,39.163 26.838,41.462 29.675,41.462L29.675,38.462ZM27.539,36.326C27.539,35.147 28.495,34.191 29.675,34.191L29.675,31.191C26.838,31.191 24.539,33.49 24.539,36.326L27.539,36.326ZM29.675,34.191C30.854,34.191 31.81,35.147 31.81,36.326L34.81,36.326C34.81,33.49 32.511,31.191 29.675,31.191L29.675,34.191Z" fill="#FFF5F3"/>
<path d="M29.675,48.733C30.503,48.733 31.175,48.061 31.175,47.233C31.175,46.404 30.503,45.733 29.675,45.733L29.675,48.733ZM31.81,43.597C31.81,44.426 32.482,45.097 33.31,45.097C34.139,45.097 34.81,44.426 34.81,43.597L31.81,43.597ZM29.675,45.733C28.495,45.733 27.539,44.777 27.539,43.597L24.539,43.597C24.539,46.434 26.838,48.733 29.675,48.733L29.675,45.733ZM27.539,43.597C27.539,42.418 28.495,41.462 29.675,41.462L29.675,38.462C26.838,38.462 24.539,40.761 24.539,43.597L27.539,43.597ZM29.675,41.462C30.854,41.462 31.81,42.418 31.81,43.597L34.81,43.597C34.81,40.761 32.511,38.462 29.675,38.462L29.675,41.462Z" transform="rotate(360 29.675 43.597)" fill="#FFF5F3"/>
<path d="M15.539,24C15.539,23.172 14.867,22.5 14.039,22.5C13.211,22.5 12.539,23.172 12.539,24L15.539,24ZM4,32.539C3.172,32.539 2.5,33.211 2.5,34.039C2.5,34.867 3.172,35.539 4,35.539L4,32.539ZM14.039,28.039L12.539,28.039L14.039,28.039ZM12.539,24L12.539,28.039L15.539,28.039L15.539,24L12.539,24ZM8.039,32.539L4,32.539L4,35.539L8.039,35.539L8.039,32.539ZM12.539,28.039C12.539,30.524 10.524,32.539 8.039,32.539L8.039,35.539C12.181,35.539 15.539,32.181 15.539,28.039L12.539,28.039Z" fill="#FFF5F3"/>
<path d="M57.5,24C57.5,23.172 56.828,22.5 56,22.5C55.171,22.5 54.5,23.172 54.5,24L57.5,24ZM46.039,32.539C45.211,32.539 44.539,33.211 44.539,34.039C44.539,34.867 45.21,35.539 46.039,35.539L46.039,32.539ZM54.5,24L54.5,28.039L57.5,28.039L57.5,24L54.5,24ZM50,32.539L46.039,32.539L46.039,35.539L50,35.539L50,32.539ZM54.5,28.039C54.5,30.524 52.485,32.539 50,32.539L50,35.539C54.142,35.539 57.5,32.181 57.5,28.039L54.5,28.039Z" transform="rotate(360 51.019 29.02)" fill="#FFF5F3"/>
<path d="M15.5,46C15.5,45.171 14.829,44.5 14,44.5C13.172,44.5 12.5,45.171 12.5,46L15.5,46ZM4.039,54.539C3.211,54.539 2.539,55.211 2.539,56.039C2.539,56.867 3.211,57.539 4.039,57.539L4.039,54.539ZM14,50.039L12.5,50.039L14,50.039ZM12.5,46L12.5,50.039L15.5,50.039L15.5,46L12.5,46ZM8,54.539L4.039,54.539L4.039,57.539L8,57.539L8,54.539ZM12.5,50.039C12.5,52.524 10.485,54.539 8,54.539L8,57.539C12.142,57.539 15.5,54.181 15.5,50.039L12.5,50.039Z" transform="rotate(-180 9.02 51.019)" fill="#FFF5F3"/>
<path d="M57.5,46.039C57.5,45.21 56.828,44.539 56,44.539C55.172,44.539 54.5,45.21 54.5,46.039L57.5,46.039ZM46.039,54.5C45.21,54.5 44.539,55.171 44.539,56C44.539,56.828 45.21,57.5 46.039,57.5L46.039,54.5ZM54.5,46.039L54.5,50L57.5,50L57.5,46.039L54.5,46.039ZM50,54.5L46.039,54.5L46.039,57.5L50,57.5L50,54.5ZM54.5,50C54.5,52.485 52.485,54.5 50,54.5L50,57.5C54.142,57.5 57.5,54.142 57.5,50L54.5,50Z" transform="rotate(-180 51.019 51.019)" fill="#FFF5F3"/>
</svg>
