<svg width="60" height="60" viewBox="0 0 60 60" fill="none" xmlns="http://www.w3.org/2000/svg" xmlns:xlink="http://www.w3.org/1999/xlink">
<path d="M15.202,37.171L13.276,37.883L11.789,49.062L24.363,55.149C27.254,56.548 30.537,56.911 33.664,56.177L51.904,51.894C53.305,51.565 54.296,50.314 54.296,48.874C54.296,47.005 52.656,45.561 50.802,45.797L30.831,48.342L36.901,47.043C38.493,46.702 39.63,45.295 39.63,43.667C39.63,42.396 38.6,41.366 37.329,41.366L31.292,41.366C29.689,41.366 28.122,40.884 26.796,39.982L24.29,38.28C21.618,36.464 18.233,36.051 15.202,37.171Z" transform="rotate(-15.054 33.043 46.349)" fill="#FF9228"/>
<rect  x="6.33" y="39.863" width="6" height="13.952" rx="2" fill="#FF9228" stroke="#FFF5F3" stroke-width="1.5" stroke-miterlimit="3.999327" stroke-linecap="round"/>
<path d="M15.035,7.356C10.526,11.85 10.526,19.135 15.035,23.628L24.335,32.896C25.914,34.469 27.987,35.249 30.055,35.235C32.124,35.249 34.197,34.469 35.775,32.896L45.076,23.628C49.584,19.135 49.584,11.85 45.076,7.356C40.98,3.275 34.574,2.901 30.055,6.233C25.536,2.901 19.13,3.275 15.035,7.356Z" clip-rule="evenodd" fill-rule="evenodd" fill="#FF9228"/>
<path d="M8.329,16.737C7.501,16.737 6.829,17.409 6.829,18.237C6.829,19.066 7.501,19.737 8.329,19.737L8.329,16.737ZM19.329,18.237L19.329,19.737L19.941,19.737L20.378,19.31L19.329,18.237ZM22.996,14.65L24.194,13.748L23.167,12.383L21.947,13.578L22.996,14.65ZM29.973,23.918L28.775,24.82L30.1,26.58L31.252,24.702L29.973,23.918ZM37.307,11.959L38.518,11.075L37.198,9.266L36.028,11.175L37.307,11.959ZM41.89,18.237L40.678,19.122L41.128,19.737L41.89,19.737L41.89,18.237ZM52.329,19.737C53.158,19.737 53.829,19.066 53.829,18.237C53.829,17.409 53.158,16.737 52.329,16.737L52.329,19.737ZM8.329,19.737L19.329,19.737L19.329,16.737L8.329,16.737L8.329,19.737ZM20.378,19.31L24.045,15.722L21.947,13.578L18.28,17.165L20.378,19.31ZM21.797,15.552L28.775,24.82L31.172,23.016L24.194,13.748L21.797,15.552ZM31.252,24.702L38.585,12.743L36.028,11.175L28.695,23.134L31.252,24.702ZM36.095,12.843L40.678,19.122L43.102,17.353L38.518,11.075L36.095,12.843ZM41.89,19.737L52.329,19.737L52.329,16.737L41.89,16.737L41.89,19.737Z" fill="#FFF5F3"/>
</svg>
