<svg width="622" height="602" viewBox="0 0 622 602" fill="none" xmlns="http://www.w3.org/2000/svg" xmlns:xlink="http://www.w3.org/1999/xlink">
<path d="M264.728,47.966C346.718,51.049 428.366,63.224 491.672,115.18C561.626,172.592 625.216,250.896 621.874,341.082C618.596,429.538 547.364,498.742 475.526,550.912C414.894,594.944 339.52,606.674 264.728,600.45C196.926,594.806 130.467,570.182 86.462,518.528C45.379,470.306 53.63,403.544 43.766,341.082C30.533,257.286 -31.183,165.291 19.963,97.443C71.908,28.536 178.242,44.714 264.728,47.966Z" clip-rule="evenodd" fill-rule="evenodd" fill="#FFD6AD"/>
<path d="M384.322,140.788L381.712,140.788L381.712,69.337C381.712,63.907 380.644,58.529 378.566,53.512C376.488,48.494 373.442,43.935 369.602,40.095C365.762,36.255 361.202,33.208 356.186,31.13C351.168,29.051 345.791,27.981 340.36,27.981L188.98,27.981C178.012,27.981 167.494,32.338 159.738,40.094C151.983,47.849 147.626,58.368 147.626,69.335L147.626,461.323C147.626,472.291 151.983,482.809 159.738,490.565C167.494,498.321 178.012,502.677 188.98,502.677L340.36,502.677C351.328,502.677 361.846,498.321 369.602,490.565C377.356,482.809 381.714,472.291 381.714,461.323L381.714,191.649L384.324,191.649L384.322,140.788Z" fill="#3F3D56"/>
<path d="M372.913,69.626L372.913,461.036C372.911,469.226 369.659,477.082 363.867,482.874C358.074,488.666 350.219,491.92 342.028,491.92L189.922,491.92C181.732,491.92 173.876,488.666 168.084,482.874C162.293,477.082 159.039,469.226 159.039,461.036L159.039,69.626C159.039,61.436 162.293,53.581 168.085,47.79C173.877,41.998 181.731,38.745 189.922,38.744L208.375,38.744C207.468,40.972 207.123,43.389 207.369,45.782C207.616,48.175 208.447,50.47 209.788,52.467C211.13,54.463 212.942,56.099 215.065,57.231C217.188,58.363 219.556,58.956 221.962,58.958L308.685,58.958C311.09,58.956 313.458,58.363 315.581,57.231C317.704,56.099 319.515,54.463 320.857,52.467C322.199,50.47 323.03,48.175 323.276,45.782C323.523,43.389 323.178,40.972 322.271,38.744L342.028,38.744C350.219,38.744 358.074,41.998 363.867,47.79C369.659,53.582 372.911,61.437 372.913,69.628L372.913,69.626Z" fill="#FFFFFF"/>
<circle cx="180.269" cy="76.241" r="1.536" fill="#3F3D56"/>
<circle cx="185.901" cy="76.241" r="1.536" fill="#3F3D56"/>
<circle cx="191.534" cy="76.241" r="1.536" fill="#3F3D56"/>
<rect  x="336.449" y="72.145" width="15.874" height="2.048" fill="#3F3D56"/>
<rect  x="336.449" y="75.217" width="15.874" height="2.048" fill="#3F3D56"/>
<rect  x="336.449" y="78.289" width="15.874" height="2.048" fill="#3F3D56"/>
<path d="M270.945,102.729L193.116,102.729C189.65,102.733 186.327,104.325 183.876,107.157C181.425,109.989 180.045,113.829 180.04,117.834L180.04,305.931L328.238,305.931L328.238,168.948C328.221,151.392 322.179,134.561 311.438,122.147C300.697,109.732 286.135,102.749 270.945,102.729L270.945,102.729Z" fill="#FFFFFF"/>
<path d="M302.586,288.997L205.693,288.997C204.855,288.997 204.052,289.403 203.46,290.124C202.867,290.846 202.535,291.825 202.535,292.846C202.535,293.866 202.867,294.845 203.46,295.567C204.052,296.289 204.855,296.694 205.693,296.694L302.586,296.694C303.424,296.694 304.227,296.289 304.819,295.567C305.411,294.845 305.744,293.866 305.744,292.846C305.744,291.825 305.411,290.846 304.819,290.124C304.227,289.403 303.424,288.997 302.586,288.997L302.586,288.997Z" fill="#E4E4E4"/>
<path d="M302.586,342.876L205.693,342.876C204.855,342.876 204.052,343.282 203.46,344.003C202.867,344.725 202.535,345.704 202.535,346.725C202.535,347.745 202.867,348.724 203.46,349.446C204.052,350.168 204.855,350.573 205.693,350.573L302.586,350.573C303.424,350.573 304.227,350.168 304.819,349.446C305.411,348.724 305.744,347.745 305.744,346.725C305.744,345.704 305.411,344.725 304.819,344.003C304.227,343.282 303.424,342.876 302.586,342.876L302.586,342.876Z" fill="#E4E4E4"/>
<path d="M302.586,404.452L205.693,404.452C204.855,404.452 204.052,404.858 203.46,405.58C202.867,406.301 202.535,407.28 202.535,408.301C202.535,409.322 202.867,410.3 203.46,411.022C204.052,411.744 204.855,412.149 205.693,412.149L302.586,412.149C303.424,412.149 304.227,411.744 304.819,411.022C305.411,410.3 305.744,409.322 305.744,408.301C305.744,407.28 305.411,406.301 304.819,405.58C304.227,404.858 303.424,404.452 302.586,404.452L302.586,404.452Z" fill="#E4E4E4"/>
<path d="M302.583,275.142L205.696,275.142C204.857,275.142 204.053,275.548 203.46,276.27C202.868,276.991 202.535,277.97 202.535,278.991C202.535,280.012 202.868,280.99 203.46,281.712C204.053,282.434 204.857,282.839 205.696,282.839L302.583,282.839C303.421,282.839 304.225,282.434 304.818,281.712C305.411,280.99 305.744,280.012 305.744,278.991C305.744,277.97 305.411,276.991 304.818,276.27C304.225,275.548 303.421,275.142 302.583,275.142L302.583,275.142Z" fill="#E4E4E4"/>
<path d="M302.583,329.021L205.696,329.021C204.857,329.021 204.053,329.427 203.46,330.149C202.868,330.87 202.535,331.849 202.535,332.87C202.535,333.891 202.868,334.87 203.46,335.591C204.053,336.313 204.857,336.719 205.696,336.719L302.583,336.719C303.421,336.719 304.225,336.313 304.818,335.591C305.411,334.87 305.744,333.891 305.744,332.87C305.744,331.849 305.411,330.87 304.818,330.149C304.225,329.427 303.421,329.021 302.583,329.021L302.583,329.021Z" fill="#E4E4E4"/>
<path d="M302.583,389.058L205.696,389.058C204.857,389.058 204.053,389.464 203.46,390.186C202.868,390.907 202.535,391.886 202.535,392.907C202.535,393.928 202.868,394.906 203.46,395.628C204.053,396.35 204.857,396.755 205.696,396.755L302.583,396.755C303.421,396.755 304.225,396.35 304.818,395.628C305.411,394.906 305.744,393.928 305.744,392.907C305.744,391.886 305.411,390.907 304.818,390.186C304.225,389.464 303.421,389.058 302.583,389.058L302.583,389.058Z" fill="#E4E4E4"/>
<path d="M248.293,259.748L205.734,259.748C204.886,259.748 204.072,260.154 203.472,260.875C202.872,261.597 202.535,262.576 202.535,263.597C202.535,264.617 202.872,265.596 203.472,266.318C204.072,267.04 204.886,267.445 205.734,267.445L248.293,267.445C249.142,267.445 249.956,267.04 250.556,266.318C251.156,265.596 251.493,264.617 251.493,263.597C251.493,262.576 251.156,261.597 250.556,260.875C249.956,260.154 249.142,259.748 248.293,259.748L248.293,259.748Z" fill="#E4E4E4"/>
<path d="M248.293,313.627L205.734,313.627C204.886,313.627 204.072,314.033 203.472,314.755C202.872,315.476 202.535,316.455 202.535,317.476C202.535,318.497 202.872,319.476 203.472,320.197C204.072,320.919 204.886,321.324 205.734,321.324L248.293,321.324C249.142,321.324 249.956,320.919 250.556,320.197C251.156,319.476 251.493,318.497 251.493,317.476C251.493,316.455 251.156,315.476 250.556,314.755C249.956,314.033 249.142,313.627 248.293,313.627L248.293,313.627Z" fill="#E4E4E4"/>
<path d="M248.293,375.204L205.734,375.204C204.886,375.204 204.072,375.609 203.472,376.331C202.872,377.053 202.535,378.031 202.535,379.052C202.535,380.073 202.872,381.052 203.472,381.773C204.072,382.495 204.886,382.901 205.734,382.901L248.293,382.901C249.142,382.901 249.956,382.495 250.556,381.773C251.156,381.052 251.493,380.073 251.493,379.052C251.493,378.031 251.156,377.053 250.556,376.331C249.956,375.609 249.142,375.204 248.293,375.204L248.293,375.204Z" fill="#E4E4E4"/>
<path d="M302.583,230.5L205.696,230.5C204.857,230.5 204.053,230.824 203.46,231.401C202.868,231.979 202.535,232.762 202.535,233.578C202.535,234.395 202.868,235.178 203.46,235.755C204.053,236.333 204.857,236.657 205.696,236.657L302.583,236.657C303.421,236.657 304.225,236.333 304.818,235.755C305.411,235.178 305.744,234.395 305.744,233.578C305.744,232.762 305.411,231.979 304.818,231.401C304.225,230.824 303.421,230.5 302.583,230.5Z" fill="#E4E4E4"/>
<path d="M302.586,216.645L205.693,216.645C204.855,216.645 204.052,216.969 203.46,217.547C202.867,218.124 202.535,218.907 202.535,219.724C202.535,220.54 202.867,221.323 203.46,221.901C204.052,222.478 204.855,222.803 205.693,222.803L302.586,222.803C303.424,222.803 304.227,222.478 304.819,221.901C305.411,221.323 305.744,220.54 305.744,219.724C305.744,218.907 305.411,218.124 304.819,217.547C304.227,216.969 303.424,216.645 302.586,216.645L302.586,216.645Z" fill="#E4E4E4"/>
<path d="M248.29,201.251L205.737,201.251C204.888,201.251 204.073,201.656 203.473,202.378C202.872,203.1 202.535,204.079 202.535,205.099C202.535,206.12 202.872,207.099 203.473,207.821C204.073,208.543 204.888,208.948 205.737,208.948L248.29,208.948C249.14,208.948 249.954,208.543 250.555,207.821C251.155,207.099 251.493,206.12 251.493,205.099C251.493,204.079 251.155,203.1 250.555,202.378C249.954,201.656 249.14,201.251 248.29,201.251Z" fill="#E4E4E4"/>
<path d="M302.583,170.463L205.696,170.463C204.857,170.463 204.053,170.868 203.46,171.59C202.868,172.312 202.535,173.291 202.535,174.311C202.535,175.332 202.868,176.311 203.46,177.033C204.053,177.754 204.857,178.16 205.696,178.16L302.583,178.16C303.421,178.16 304.225,177.754 304.818,177.033C305.411,176.311 305.744,175.332 305.744,174.311C305.744,173.291 305.411,172.312 304.818,171.59C304.225,170.868 303.421,170.463 302.583,170.463Z" fill="#130160"/>
<path d="M302.583,156.608L205.696,156.608C204.857,156.608 204.053,156.933 203.46,157.51C202.868,158.087 202.535,158.87 202.535,159.687C202.535,160.504 202.868,161.287 203.46,161.864C204.053,162.441 204.857,162.766 205.696,162.766L302.583,162.766C303.421,162.766 304.225,162.441 304.818,161.864C305.411,161.287 305.744,160.504 305.744,159.687C305.744,158.87 305.411,158.087 304.818,157.51C304.225,156.933 303.421,156.608 302.583,156.608Z" fill="#130160"/>
<path d="M248.29,141.214L205.737,141.214C204.888,141.214 204.073,141.62 203.473,142.341C202.872,143.063 202.535,144.042 202.535,145.063C202.535,146.083 202.872,147.062 203.473,147.784C204.073,148.506 204.888,148.911 205.737,148.911L248.29,148.911C249.14,148.911 249.954,148.506 250.555,147.784C251.155,147.062 251.493,146.083 251.493,145.063C251.493,144.042 251.155,143.063 250.555,142.341C249.954,141.62 249.14,141.214 248.29,141.214Z" fill="#130160"/>
<path d="M575.584,215.186L546.683,172.254L517.903,194.792L545.086,215.874L550.672,283.228C548.949,285.039 547.793,287.311 547.344,289.765C546.895,292.219 547.172,294.751 548.142,297.051C549.112,299.351 550.733,301.32 552.807,302.718C554.881,304.116 557.318,304.883 559.822,304.925C562.325,304.967 564.787,304.282 566.907,302.954C569.026,301.626 570.713,299.712 571.759,297.446C572.806,295.18 573.169,292.659 572.803,290.191C572.437,287.723 571.358,285.414 569.697,283.547L575.584,215.186Z" fill="#FFB6B6"/>
<path d="M506.777,132.683C522.066,129.833 552.379,176.917 552.379,176.917C548.778,176.993 576.57,204.89 573.611,206.239C565.2,210.07 545.149,213.062 542.039,218.234C540.261,221.191 522.537,201.059 522.537,201.059C522.537,201.059 511.46,190.559 497.477,176.768C493.451,172.942 490.463,168.163 488.789,162.877C487.115,157.591 486.811,151.968 487.905,146.533C487.905,146.533 491.488,135.532 506.777,132.683Z" fill="#130160"/>
<path d="M521.274,513.63L522.348,489.577C533.54,483.616 546.023,480.468 558.714,480.405C541.248,494.633 543.431,522.059 531.589,541.192C527.85,547.131 522.817,552.156 516.864,555.893C510.911,559.631 504.19,561.986 497.199,562.784L482.582,571.701C480.577,560.561 481.019,549.12 483.879,538.167C486.738,527.213 491.947,517.008 499.146,508.253C503.234,503.382 507.921,499.043 513.097,495.338C516.597,504.535 521.274,513.63 521.274,513.63Z" fill="#E6E1FF"/>
<path d="M483.614,559.323L470.378,559.322L464.082,508.46L483.616,508.461L483.614,559.323Z" fill="#FFB6B6"/>
<path d="M486.989,572.105L444.314,572.103L444.314,571.566C444.315,567.177 446.065,562.967 449.18,559.864C452.295,556.76 456.519,555.017 460.924,555.016L460.925,555.016L468.721,549.124L483.264,555.017L486.99,555.017L486.989,572.105Z" fill="#2F2E41"/>
<path d="M422.126,559.323L408.892,559.322L402.596,508.46L422.13,508.461L422.126,559.323Z" fill="#FFB6B6"/>
<path d="M425.502,572.105L382.827,572.103L382.827,571.566C382.827,567.177 384.578,562.967 387.693,559.864C390.807,556.76 395.032,555.017 399.437,555.016L399.438,555.016L407.234,549.124L421.778,555.017L425.503,555.017L425.502,572.105Z" fill="#2F2E41"/>
<path d="M416.398,281.255L502.483,283.399C518.833,292.247 519.081,311.396 513.724,334.133C513.724,334.133 515.533,347.646 511.916,351.25C508.299,354.854 506.49,354.854 508.299,361.16C510.107,367.467 500.553,377.767 501.713,378.923C502.874,380.079 505.586,386.386 505.586,386.386L496.544,437.738C496.544,437.738 490.214,526.929 488.406,528.731C486.598,530.533 484.789,528.731 486.598,533.235C488.406,537.739 490.214,535.939 488.406,537.739C486.804,539.461 485.295,541.265 483.885,543.145L462.024,543.145C462.024,543.145 460.375,534.137 460.375,533.235C460.375,532.335 458.567,526.929 458.567,526.029C458.567,525.127 460.165,523.535 460.165,523.535C460.718,521.703 461.091,519.823 461.279,517.919C461.279,516.117 466.705,446.747 466.705,446.747L455.854,356.656L429.632,444.945C429.632,444.945 429.632,522.425 427.823,524.227C426.015,526.027 426.015,525.127 426.919,528.731C427.823,532.335 431.44,531.433 428.728,534.137C426.015,536.839 425.111,532.335 426.015,536.839L426.919,541.343L399.792,541.731C399.792,541.731 396.176,534.137 397.984,531.433C399.793,528.731 399.684,529.469 397.478,525.045C395.271,520.623 394.367,519.721 395.271,518.821C396.176,517.919 396.176,513.127 396.176,513.127L400.697,426.927C400.697,426.927 401.601,335.934 401.601,333.232C401.669,331.841 401.412,330.454 400.85,329.179L400.85,325.51L404.314,312.511L416.398,281.255Z" fill="#69687F"/>
<path d="M468.111,102.907C482.883,102.907 494.858,90.976 494.858,76.258C494.858,61.54 482.883,49.608 468.111,49.608C453.339,49.608 441.364,61.54 441.364,76.258C441.364,90.976 453.339,102.907 468.111,102.907Z" fill="#FFB6B6"/>
<path d="M454.737,120.521C448.975,123.934 445.528,130.206 443.549,136.587C439.886,148.402 437.681,160.618 436.982,172.964L434.892,209.926L409.008,288.629C431.441,307.542 515.764,292.928 515.764,292.928C515.764,292.928 518.353,292.068 515.764,289.489C513.176,286.91 510.656,289.195 513.244,286.616C515.833,284.037 514.048,286.91 513.186,284.331C512.323,281.752 513.186,283.471 514.048,282.612C514.911,281.752 507.369,274.015 507.369,274.015L514.271,228.839L522.9,137.714C512.546,124.819 491.723,117.218 491.723,117.218L486.343,107.569L459.441,109.713L454.737,120.521Z" fill="#130160"/>
<path d="M451.068,60.618C452.103,60.626 453.133,60.761 454.135,61.019C456.111,61.492 458.117,61.827 460.139,62.022C466.331,62.603 472.149,65.234 476.664,69.495C481.18,73.757 484.131,79.403 485.048,85.532C486.602,84.182 490.139,81.698 493.037,84.006C493.082,84.043 493.107,84.062 493.209,84.014C495.134,83.104 498.552,71.904 498.655,62.043C498.71,56.809 497.883,50.125 493.634,48.008L493.411,47.897L493.352,47.655C493.068,46.477 489.896,44.467 484.385,42.903C474.368,40.061 459.437,34.523 451.029,42.672C450.393,45.42 448.323,51.299 446.231,51.966C443.916,52.703 441.916,53.34 441.601,56.17C441.338,60.197 441.357,64.238 441.658,68.263C442.443,65.8 443.983,63.644 446.062,62.1C447.54,61.108 449.287,60.591 451.068,60.618L451.068,60.618Z" fill="#2F2E41"/>
<path d="M401.284,207.868L444.976,179.989L422.97,150.843L401.24,177.475L333.535,181.612C331.754,179.858 329.5,178.658 327.046,178.159C324.593,177.66 322.047,177.882 319.718,178.8C317.39,179.717 315.38,181.29 313.933,183.326C312.486,185.362 311.665,187.774 311.57,190.267C311.475,192.76 312.11,195.227 313.398,197.366C314.685,199.506 316.57,201.226 318.822,202.317C321.074,203.408 323.596,203.822 326.08,203.51C328.564,203.197 330.903,202.172 332.813,200.557L401.284,207.868Z" fill="#FFB6B6"/>
<path d="M485.528,141.076C488.064,156.366 440.176,185.564 440.176,185.564C440.175,181.976 411.594,209.069 410.304,206.093C406.637,197.633 404.059,177.597 398.936,174.39C396.006,172.556 416.582,155.326 416.582,155.326C416.582,155.326 427.353,144.515 441.488,130.878C445.412,126.949 450.271,124.073 455.611,122.518C460.951,120.963 466.599,120.779 472.029,121.984C472.029,121.984 482.992,125.785 485.528,141.076Z" fill="#130160"/>
<path d="M582.966,572.317C582.968,572.485 582.934,572.651 582.87,572.806C582.806,572.961 582.712,573.102 582.592,573.22C582.474,573.339 582.332,573.433 582.176,573.497C582.02,573.561 581.854,573.594 581.686,573.593L280.075,573.593C279.735,573.593 279.409,573.459 279.169,573.219C278.929,572.98 278.794,572.656 278.794,572.317C278.794,571.979 278.929,571.654 279.169,571.415C279.409,571.176 279.735,571.041 280.075,571.041L581.686,571.041C581.854,571.041 582.02,571.073 582.176,571.137C582.332,571.201 582.474,571.295 582.592,571.414C582.712,571.532 582.806,571.673 582.87,571.828C582.934,571.983 582.968,572.149 582.966,572.317Z" fill="#130160"/>
<circle cx="136.411" cy="50.411" r="50.411" fill="#FCA34D"/>
<path d="M152.016,63.658L158.54,70.179C158.845,70.494 159.013,70.916 159.009,71.353C159.005,71.791 158.83,72.21 158.52,72.52C158.21,72.83 157.791,73.005 157.353,73.009C156.916,73.013 156.494,72.845 156.179,72.54L149.654,66.016C145.391,69.669 139.879,71.528 134.274,71.204C128.669,70.88 123.407,68.398 119.593,64.279C115.779,60.159 113.709,54.722 113.817,49.109C113.925,43.496 116.203,38.143 120.173,34.173C124.143,30.203 129.496,27.925 135.109,27.817C140.722,27.709 146.159,29.779 150.279,33.593C154.398,37.407 156.88,42.669 157.204,48.274C157.528,53.879 155.669,59.391 152.016,63.654L152.016,63.658ZM135.527,67.9C140.4,67.9 145.073,65.965 148.519,62.519C151.965,59.073 153.9,54.4 153.9,49.527C153.9,44.654 151.965,39.981 148.519,36.535C145.073,33.09 140.4,31.154 135.527,31.154C130.654,31.154 125.981,33.09 122.535,36.535C119.09,39.981 117.154,44.654 117.154,49.527C117.154,54.4 119.09,59.073 122.535,62.519C125.981,65.965 130.654,67.9 135.527,67.9L135.527,67.9Z" fill="#FFFFFF"/>
</svg>
