<svg width="48" height="50" viewBox="0 0 48 50" fill="none" xmlns="http://www.w3.org/2000/svg" xmlns:xlink="http://www.w3.org/1999/xlink">
<path d="M36.799,36.444L36.799,23.886L9.599,20.833L9.599,36.445C9.599,38.259 10.819,39.858 12.586,40.267C20.472,42.091 25.926,42.091 33.812,40.267C35.579,39.858 36.799,38.259 36.799,36.444Z" fill="#FF9228"/>
<path d="M19.838,5.818L3.073,15.208C2.41,15.579 2.387,16.525 3.032,16.928L24.744,30.499C26.209,31.415 28.097,31.286 29.425,30.18L45.173,17.055C45.74,16.583 45.617,15.68 44.944,15.376L23.439,5.663C22.282,5.14 20.946,5.198 19.838,5.818Z" fill="#FF9228" stroke="#FFF4E9" stroke-width="1.5" stroke-miterlimit="3.999327" stroke-linecap="round"/>
<path d="M37.286,32.968C27.495,35.057 18.903,35.057 9.112,32.968L8.486,35.902C18.69,38.079 27.708,38.079 37.912,35.902L37.286,32.968Z" fill="#FFF4E9"/>
<path d="M27.199,15.232C27.199,17 25.767,18.433 23.999,18.433C22.232,18.433 20.799,17 20.799,15.232C20.799,13.465 22.232,12.032 23.999,12.032C25.767,12.032 27.199,13.465 27.199,15.232Z" stroke="#FFF4E9" stroke-width="1.5" stroke-miterlimit="3.999327"/>
<path d="M26.82,14.592C26.025,14.36 25.192,14.817 24.96,15.612C24.728,16.407 25.185,17.24 25.98,17.472L26.82,14.592ZM39.58,21.44C40.375,21.672 41.208,21.215 41.44,20.42C41.672,19.625 41.215,18.792 40.42,18.56L39.58,21.44ZM25.98,17.472L39.58,21.44L40.42,18.56L26.82,14.592L25.98,17.472Z" fill="#FFF4E9"/>
<path d="M40.812,19.119L38.718,20.875L38.718,27.778C38.718,28.356 39.187,28.825 39.765,28.825C40.343,28.825 40.812,28.356 40.812,27.778L40.812,19.119Z" stroke="#FF9228" stroke-width="1.5" stroke-miterlimit="3.999327" stroke-linecap="round"/>
</svg>
