<svg width="238" height="188" viewBox="0 0 238 188" fill="none" xmlns="http://www.w3.org/2000/svg" xmlns:xlink="http://www.w3.org/1999/xlink">
<rect  x="26" y="12" width="164" height="164" rx="200" fill="#130160"/>
<circle cx="90.631" cy="103.814" r="20.111" transform="rotate(-330 90.631 103.814)" stroke="#FFFFFF" stroke-width="5" stroke-miterlimit="3.999327"/>
<path d="M151.277,65.659C153.236,63.713 153.246,60.547 151.299,58.588C149.352,56.63 146.187,56.62 144.228,58.567L151.277,65.659ZM107.66,94.911C105.701,96.857 105.691,100.023 107.638,101.982C109.584,103.94 112.75,103.95 114.709,102.004L107.66,94.911ZM144.228,58.567L107.66,94.911L114.709,102.004L151.277,65.659L144.228,58.567Z" transform="rotate(-330 129.468 80.285)" fill="#FFFFFF"/>
<path d="M151.539,71.295C151.539,68.534 149.3,66.295 146.539,66.295C143.777,66.295 141.539,68.534 141.539,71.295L151.539,71.295ZM141.539,81.295C141.539,84.056 143.777,86.295 146.539,86.295C149.3,86.295 151.539,84.056 151.539,81.295L141.539,81.295ZM141.539,71.295L141.539,81.295L151.539,81.295L151.539,71.295L141.539,71.295Z" transform="rotate(-60 146.539 76.295)" fill="#FFFFFF"/>
<path d="M136.816,79.795C136.816,77.034 134.577,74.795 131.816,74.795C129.054,74.795 126.816,77.034 126.816,79.795L136.816,79.795ZM126.816,89.795C126.816,92.556 129.054,94.795 131.816,94.795C134.577,94.795 136.816,92.556 136.816,89.795L126.816,89.795ZM126.816,79.795L126.816,89.795L136.816,89.795L136.816,79.795L126.816,79.795Z" transform="rotate(-60 131.816 84.795)" fill="#FFFFFF"/>
<g opacity="0.5">
<rect  x="10" y="6" width="84" height="84" rx="200" fill="#4C407B"/>
</g>
<rect  x="0" y="0" width="84" height="84" rx="200" fill="#FF9228"/>
<path d="M37.85,47.282L37.85,45.836Q37.85,44.508 38.22,43.482Q38.592,42.458 39.412,41.53Q40.232,40.602 41.58,39.626Q42.792,38.766 43.524,38.082Q44.256,37.398 44.598,36.724Q44.94,36.05 44.94,35.192Q44.94,33.922 44.002,33.258Q43.064,32.594 41.384,32.594Q39.706,32.594 38.054,33.122Q36.404,33.648 34.706,34.508L32.576,30.23Q34.53,29.136 36.814,28.462Q39.1,27.79 41.814,27.79Q45.994,27.79 48.29,29.792Q50.584,31.792 50.584,34.878Q50.584,36.52 50.066,37.72Q49.548,38.922 48.504,39.948Q47.458,40.972 45.896,42.106Q44.724,42.964 44.1,43.55Q43.474,44.136 43.25,44.712Q43.026,45.29 43.026,46.11L43.026,47.282L37.85,47.282M37.224,53.96Q37.224,52.126 38.23,51.382Q39.236,50.64 40.662,50.64Q42.048,50.64 43.054,51.382Q44.06,52.126 44.06,53.96Q44.06,55.718 43.054,56.5Q42.048,57.282 40.662,57.282Q39.236,57.282 38.23,56.5Q37.224,55.718 37.224,53.96Z" fill="#FFFFFF"/>
<path d="M214.817,166.611L215.192,158.178C219.107,156.089 223.474,154.985 227.913,154.963C221.803,159.951 222.567,169.566 218.425,176.274C217.117,178.357 215.357,180.118 213.274,181.429C211.192,182.739 208.841,183.565 206.396,183.845L201.283,186.971C200.581,183.065 200.736,179.054 201.736,175.214C202.736,171.374 204.558,167.795 207.077,164.726C208.507,163.018 210.146,161.497 211.956,160.198C213.181,163.423 214.817,166.611 214.817,166.611Z" fill="#E6E6E6"/>
<path d="M201.644,182.631L197.014,182.631L194.812,164.799L201.645,164.799L201.644,182.631Z" fill="#FFB6B6"/>
<path d="M202.824,187.112L187.897,187.112L187.897,186.923C187.897,185.385 188.509,183.909 189.599,182.821C190.689,181.733 192.166,181.121 193.707,181.121L193.708,181.121L196.434,179.055L201.522,181.122L202.825,181.122L202.824,187.112Z" fill="#2F2E41"/>
<path d="M180.136,182.631L175.507,182.631L173.304,164.799L180.137,164.799L180.136,182.631Z" fill="#FFB6B6"/>
<path d="M181.317,187.112L166.39,187.112L166.39,186.923C166.39,185.385 167.002,183.909 168.092,182.821C169.181,181.733 170.659,181.121 172.2,181.121L172.2,181.121L174.927,179.055L180.014,181.122L181.317,181.122L181.317,187.112Z" fill="#2F2E41"/>
<path d="M178.132,85.141L208.244,85.893C213.963,88.995 214.05,95.709 212.176,103.68C212.176,103.68 212.809,108.418 211.543,109.681C210.278,110.945 209.646,110.945 210.278,113.156C210.911,115.367 207.569,118.978 207.975,119.383C208.381,119.789 209.329,122 209.329,122L206.167,140.004C206.167,140.004 203.953,171.274 203.32,171.905C202.687,172.537 202.055,171.905 202.687,173.485C203.32,175.064 203.953,174.432 203.32,175.064C202.76,175.667 202.232,176.3 201.739,176.959L194.092,176.959C194.092,176.959 193.515,173.801 193.515,173.485C193.515,173.169 192.883,171.274 192.883,170.958C192.883,170.642 193.442,170.084 193.442,170.084C193.635,169.441 193.765,168.782 193.831,168.115C193.831,167.483 195.729,143.162 195.729,143.162L191.934,111.576L182.762,142.53C182.762,142.53 182.762,169.694 182.129,170.326C181.496,170.958 181.496,170.642 181.813,171.905C182.129,173.169 183.394,172.853 182.445,173.801C181.496,174.748 181.18,173.169 181.496,174.748L181.813,176.327L172.324,176.463C172.324,176.463 171.059,173.801 171.691,172.853C172.324,171.905 172.286,172.164 171.514,170.613C170.743,169.063 170.426,168.747 170.743,168.431C171.059,168.115 171.059,166.435 171.059,166.435L172.64,136.213C172.64,136.213 172.957,104.312 172.957,103.364C172.98,102.876 172.891,102.39 172.694,101.943L172.694,100.657L173.905,96.099L178.132,85.141Z" fill="#69687F"/>
<path d="M196.221,22.612C201.388,22.612 205.577,18.429 205.577,13.269C205.577,8.109 201.388,3.926 196.221,3.926C191.054,3.926 186.865,8.109 186.865,13.269C186.865,18.429 191.054,22.612 196.221,22.612Z" fill="#FFB6B6"/>
<path d="M191.543,28.788C189.527,29.984 188.322,32.183 187.629,34.42C186.348,38.563 185.577,42.845 185.333,47.174L184.601,60.133L175.547,87.726C183.394,94.357 212.89,89.233 212.89,89.233C212.89,89.233 213.795,88.932 212.89,88.028C211.984,87.123 211.103,87.924 212.008,87.02C212.914,86.116 212.289,87.123 211.988,86.219C211.686,85.315 211.988,85.918 212.289,85.616C212.591,85.315 209.953,82.602 209.953,82.602L212.367,66.764L215.385,34.816C211.764,30.295 204.48,27.63 204.48,27.63L202.598,24.247L193.188,24.998L191.543,28.788Z" fill="#130160"/>
<path d="M190.26,7.786C190.622,7.789 190.982,7.836 191.333,7.926C192.024,8.092 192.725,8.21 193.433,8.278C195.599,8.481 197.634,9.404 199.213,10.898C200.792,12.392 201.825,14.372 202.145,16.52C202.689,16.047 203.926,15.176 204.94,15.986C204.956,15.998 204.965,16.005 205,15.988C205.674,15.669 206.869,11.742 206.905,8.285C206.924,6.45 206.635,4.107 205.149,3.365L205.071,3.326L205.05,3.241C204.951,2.828 203.841,2.123 201.914,1.575C198.41,0.578 193.187,-1.363 190.246,1.494C190.023,2.457 189.299,4.519 188.568,4.752C187.758,5.011 187.058,5.234 186.948,6.226C186.856,7.638 186.863,9.055 186.968,10.466C187.243,9.602 187.781,8.847 188.509,8.305C189.026,7.958 189.637,7.776 190.26,7.786L190.26,7.786Z" fill="#2F2E41"/>
<path d="M172.846,59.412L188.129,49.637L180.431,39.418L172.83,48.756L149.148,50.206C148.525,49.591 147.736,49.171 146.878,48.995C146.02,48.82 145.129,48.898 144.315,49.22C143.5,49.542 142.797,50.093 142.291,50.807C141.785,51.521 141.498,52.367 141.465,53.241C141.431,54.115 141.654,54.979 142.104,55.73C142.554,56.48 143.214,57.083 144.001,57.465C144.789,57.848 145.671,57.993 146.54,57.884C147.409,57.774 148.227,57.414 148.895,56.848L172.846,59.412Z" fill="#FFB6B6"/>
<path d="M202.313,35.994C203.2,41.355 186.45,51.592 186.45,51.592C186.449,50.333 176.452,59.833 176.001,58.789C174.718,55.823 173.816,48.798 172.024,47.674C170.999,47.031 178.197,40.99 178.197,40.99C178.197,40.99 181.964,37.2 186.909,32.419C188.281,31.041 189.981,30.033 191.849,29.488C193.716,28.942 195.692,28.878 197.592,29.3C197.592,29.3 201.426,30.633 202.313,35.994Z" fill="#130160"/>
<path d="M233.814,61.977L223.705,46.925L213.638,54.827L223.146,62.218L225.1,85.833C224.497,86.468 224.093,87.264 223.936,88.124C223.779,88.985 223.876,89.872 224.215,90.679C224.554,91.485 225.121,92.176 225.847,92.666C226.572,93.156 227.425,93.425 228.3,93.439C229.176,93.454 230.037,93.214 230.779,92.748C231.52,92.283 232.11,91.612 232.476,90.817C232.842,90.023 232.969,89.139 232.841,88.274C232.713,87.408 232.336,86.599 231.755,85.944L233.814,61.977Z" fill="#FFB6B6"/>
<path d="M209.746,33.052C215.094,32.053 225.697,48.56 225.697,48.56C224.437,48.587 234.159,58.368 233.124,58.841C230.182,60.184 223.168,61.233 222.08,63.046C221.458,64.083 215.259,57.025 215.259,57.025C215.259,57.025 211.384,53.343 206.493,48.508C205.085,47.167 204.039,45.491 203.454,43.638C202.869,41.785 202.762,39.813 203.145,37.908C203.145,37.908 204.398,34.051 209.746,33.052Z" fill="#130160"/>
<path d="M236.396,187.187C236.397,187.246 236.385,187.304 236.363,187.358C236.34,187.413 236.307,187.462 236.266,187.504C236.224,187.545 236.174,187.578 236.12,187.6C236.066,187.623 236.007,187.634 235.948,187.634L130.448,187.634C130.329,187.634 130.215,187.587 130.131,187.503C130.047,187.419 130,187.305 130,187.187C130,187.068 130.047,186.954 130.131,186.871C130.215,186.787 130.329,186.74 130.448,186.74L235.948,186.74C236.007,186.739 236.066,186.751 236.12,186.773C236.174,186.796 236.224,186.829 236.266,186.87C236.307,186.912 236.34,186.961 236.363,187.015C236.385,187.07 236.397,187.128 236.396,187.187Z" fill="#130160"/>
</svg>
