<svg width="48" height="48" viewBox="0 0 48 48" fill="none" xmlns="http://www.w3.org/2000/svg" xmlns:xlink="http://www.w3.org/1999/xlink">
<path d="M11.196,30.094L10.621,30.306L9.431,39.249L19.408,44.079C21.774,45.224 24.461,45.521 27.02,44.92L41.523,41.515C42.644,41.251 43.437,40.251 43.437,39.099C43.437,37.604 42.125,36.449 40.642,36.638L24.665,38.673L29.521,37.634C30.794,37.361 31.704,36.236 31.704,34.933C31.704,33.917 30.88,33.092 29.863,33.092L25.526,33.092C23.922,33.092 22.356,32.61 21.029,31.709L20.284,31.202C17.611,29.386 14.226,28.973 11.196,30.094Z" transform="rotate(-15.054 26.434 37.079)" fill="#FF9228"/>
<path d="M5.063,41.051L5.063,33.89C5.063,32.785 5.959,31.89 7.063,31.89L7.863,31.89C8.968,31.89 9.863,32.785 9.863,33.89L9.863,41.051C9.863,42.156 8.968,43.051 7.863,43.051L7.063,43.051C5.959,43.051 5.063,42.156 5.063,41.051Z" fill="#FF9228" stroke="#FFF4E9" stroke-width="1.5" stroke-miterlimit="3.999327" stroke-linecap="round"/>
<path d="M12.027,5.885C8.42,9.48 8.42,15.308 12.027,18.903L18.713,25.566C20.184,27.032 22.115,27.759 24.043,27.748C25.971,27.759 27.902,27.032 29.373,25.566L36.06,18.903C39.667,15.308 39.667,9.48 36.06,5.885C32.783,2.621 27.659,2.321 24.043,4.987C20.428,2.321 15.303,2.621 12.027,5.885Z" clip-rule="evenodd" fill-rule="evenodd" fill="#FF9228"/>
<path d="M6.663,13.089C5.835,13.089 5.163,13.761 5.163,14.589C5.163,15.418 5.835,16.089 6.663,16.089L6.663,13.089ZM15.463,14.589L15.463,16.089L16.075,16.089L16.512,15.661L15.463,14.589ZM18.396,11.719L19.595,10.817L18.568,9.453L17.347,10.647L18.396,11.719ZM23.978,19.133L22.78,20.036L24.105,21.796L25.257,19.918L23.978,19.133ZM29.845,9.566L31.056,8.682L29.737,6.874L28.566,8.782L29.845,9.566ZM33.512,14.589L32.3,15.474L32.749,16.089L33.512,16.089L33.512,14.589ZM41.863,16.089C42.691,16.089 43.363,15.418 43.363,14.589C43.363,13.761 42.691,13.089 41.863,13.089L41.863,16.089ZM6.663,16.089L15.463,16.089L15.463,13.089L6.663,13.089L6.663,16.089ZM16.512,15.661L19.445,12.791L17.347,10.647L14.414,13.517L16.512,15.661ZM17.198,12.621L22.78,20.036L25.177,18.231L19.595,10.817L17.198,12.621ZM25.257,19.918L31.124,10.351L28.566,8.782L22.7,18.349L25.257,19.918ZM28.633,10.451L32.3,15.474L34.723,13.705L31.056,8.682L28.633,10.451ZM33.512,16.089L41.863,16.089L41.863,13.089L33.512,13.089L33.512,16.089Z" fill="#FFF4E9"/>
</svg>
