<svg width="48" height="50" viewBox="0 0 48 50" fill="none" xmlns="http://www.w3.org/2000/svg" xmlns:xlink="http://www.w3.org/1999/xlink">
<line x1="16.001" y1="43.335" x2="32.001" y2="43.335" stroke="#FF9228" stroke-width="1.5" stroke-miterlimit="3.999327" stroke-linecap="round"/>
<path d="M20.296,44.801C21.464,42.438 21.881,41.038 21.896,38.4L31.168,38.4L31.168,44.801L20.296,44.801Z" transform="rotate(360 25.732 41.601)" fill="#FF9228"/>
<path d="M17.095,44.801C18.264,42.438 18.681,41.038 18.695,38.4L27.967,38.4L27.967,44.801L17.095,44.801Z" fill="#FF9228"/>
<rect  x="1.731" y="1.731" width="41.6" height="35.203" rx="8" fill="#FF9228" stroke="#FFF4E9" stroke-width="1.5" stroke-miterlimit="3.999327"/>
<line x1="3.27" y1="26.994" x2="45.012" y2="26.994" stroke="#FFF4E9" stroke-width="1.5" stroke-miterlimit="3.999327" stroke-linecap="round"/>
<path d="M25.232,33.313C25.232,33.976 24.694,34.513 24.032,34.513C23.369,34.513 22.832,33.976 22.832,33.313C22.832,32.651 23.369,32.113 24.032,32.113C24.694,32.113 25.232,32.651 25.232,33.313Z" fill="#FF9228"/>
<path d="M25.588,10.215C25.588,9.387 24.916,8.715 24.088,8.715C23.259,8.715 22.588,9.387 22.588,10.215L25.588,10.215ZM22.588,23.213C22.588,24.042 23.259,24.713 24.088,24.713C24.916,24.713 25.588,24.042 25.588,23.213L22.588,23.213ZM22.588,10.215L22.588,23.213L25.588,23.213L25.588,10.215L22.588,10.215Z" transform="rotate(31.301 24.088 16.714)" fill="#FFF4E9"/>
<path d="M28.424,11.452C27.596,11.452 26.924,12.124 26.924,12.952C26.924,13.781 27.596,14.452 28.424,14.452L28.424,11.452ZM35.265,12.952L36.765,12.952L36.765,11.452L35.265,11.452L35.265,12.952ZM33.765,19.793C33.765,20.621 34.437,21.293 35.265,21.293C36.094,21.293 36.765,20.621 36.765,19.793L33.765,19.793ZM28.424,14.452L35.265,14.452L35.265,11.452L28.424,11.452L28.424,14.452ZM33.765,12.952L33.765,19.793L36.765,19.793L36.765,12.952L33.765,12.952Z" transform="rotate(90.005 31.845 16.373)" fill="#FFF4E9"/>
<path d="M12.911,11.452C12.083,11.452 11.411,12.124 11.411,12.952C11.411,13.781 12.083,14.452 12.911,14.452L12.911,11.452ZM19.752,12.952L21.252,12.952L21.252,11.452L19.752,11.452L19.752,12.952ZM18.252,19.793C18.252,20.621 18.924,21.293 19.752,21.293C20.58,21.293 21.252,20.621 21.252,19.793L18.252,19.793ZM12.911,14.452L19.752,14.452L19.752,11.452L12.911,11.452L12.911,14.452ZM18.252,12.952L18.252,19.793L21.252,19.793L21.252,12.952L18.252,12.952Z" transform="rotate(269.995 16.332 16.373)" fill="#FFF4E9"/>
</svg>
