<svg width="48" height="48" viewBox="0 0 48 48" fill="none" xmlns="http://www.w3.org/2000/svg" xmlns:xlink="http://www.w3.org/1999/xlink">
<path d="M24,4C20.686,4 18,6.686 18,10L18,11.347C17.316,11.672 16.662,12.051 16.044,12.479L14.875,11.804C12.006,10.147 8.336,11.13 6.679,14C5.022,16.87 6.006,20.539 8.875,22.196L10.045,22.871C10.015,23.244 10,23.62 10,24C10,24.38 10.015,24.756 10.045,25.129L8.875,25.804C6.006,27.461 5.022,31.13 6.679,34C8.336,36.87 12.006,37.853 14.875,36.196L16.044,35.521C16.662,35.949 17.316,36.328 18,36.653L18,38C18,41.314 20.686,44 24,44C27.314,44 30,41.314 30,38L30,36.653C30.684,36.328 31.338,35.949 31.956,35.521L33.124,36.196C35.994,37.853 39.663,36.87 41.32,34C42.977,31.13 41.994,27.461 39.124,25.804L37.955,25.129C37.985,24.756 38,24.38 38,24C38,23.62 37.985,23.243 37.955,22.871L39.124,22.196C41.994,20.539 42.977,16.87 41.32,14C39.663,11.13 35.994,10.147 33.124,11.804L31.955,12.478C31.338,12.051 30.684,11.672 30,11.347L30,10C30,6.686 27.314,4 24,4Z" clip-rule="evenodd" fill-rule="evenodd" stroke="#FFFFFF" stroke-width="1.5" stroke-miterlimit="3.999327"/>
<circle cx="24" cy="24" r="6" stroke="#FFFFFF" stroke-width="1.5" stroke-miterlimit="3.999327"/>
</svg>
