<svg width="48" height="48" viewBox="0 0 48 48" fill="none" xmlns="http://www.w3.org/2000/svg" xmlns:xlink="http://www.w3.org/1999/xlink">
<path d="M37.405,15.068C37.405,14.24 36.734,13.568 35.905,13.568C35.077,13.568 34.405,14.24 34.405,15.068L37.405,15.068ZM12.468,11.101C12.468,10.272 11.796,9.601 10.968,9.601C10.139,9.601 9.468,10.272 9.468,11.101L12.468,11.101ZM34.405,15.068L34.405,30.371L37.405,30.371L37.405,15.068L34.405,15.068ZM12.468,30.371L12.468,11.101L9.468,11.101L9.468,30.371L12.468,30.371ZM23.436,41.339C17.379,41.339 12.468,36.428 12.468,30.371L9.468,30.371C9.468,38.085 15.722,44.339 23.436,44.339L23.436,41.339ZM34.405,30.371C34.405,36.428 29.494,41.339 23.436,41.339L23.436,44.339C31.151,44.339 37.405,38.085 37.405,30.371L34.405,30.371Z" transform="rotate(-270 23.436 26.97)" fill="#524B6B"/>
<path d="M21.674,15.933C21.674,15.104 21.002,14.433 20.174,14.433C19.345,14.433 18.674,15.104 18.674,15.933L21.674,15.933ZM33.009,12.096C33.009,11.268 32.337,10.596 31.509,10.596C30.68,10.596 30.009,11.268 30.009,12.096L33.009,12.096ZM30.009,12.096L30.009,31.366L33.009,31.366L33.009,12.096L30.009,12.096ZM21.674,31.366L21.674,15.933L18.674,15.933L18.674,31.366L21.674,31.366ZM25.841,35.534C23.539,35.534 21.674,33.668 21.674,31.366L18.674,31.366C18.674,35.325 21.883,38.534 25.841,38.534L25.841,35.534ZM30.009,31.366C30.009,33.668 28.143,35.534 25.841,35.534L25.841,38.534C29.8,38.534 33.009,35.325 33.009,31.366L30.009,31.366Z" transform="rotate(-270 25.841 24.565)" fill="#524B6B"/>
<path d="M38.218,26.282C38.218,27.11 38.889,27.782 39.718,27.782C40.546,27.782 41.218,27.11 41.218,26.282L38.218,26.282ZM20.081,26.282C20.081,27.11 20.753,27.782 21.581,27.782C22.41,27.782 23.081,27.11 23.081,26.282L20.081,26.282ZM38.218,12.68L38.218,26.282L41.218,26.282L41.218,12.68L38.218,12.68ZM23.081,26.282L23.081,12.68L20.081,12.68L20.081,26.282L23.081,26.282ZM30.65,5.112C34.829,5.112 38.218,8.5 38.218,12.68L41.218,12.68C41.218,6.843 36.486,2.112 30.65,2.112L30.65,5.112ZM30.65,2.112C24.813,2.112 20.081,6.843 20.081,12.68L23.081,12.68C23.081,8.5 26.47,5.112 30.65,5.112L30.65,2.112Z" transform="rotate(-270 30.65 14.947)" fill="#524B6B"/>
</svg>
