<svg width="40" height="40" viewBox="0 0 40 40" fill="none" xmlns="http://www.w3.org/2000/svg" xmlns:xlink="http://www.w3.org/1999/xlink">
<g filter="url(#filter1_5678)">
<path d="M3.598,12.883C3.598,9.569 6.285,6.883 9.598,6.883L30.402,6.883C33.715,6.883 36.402,9.569 36.402,12.883L36.402,30.406C36.402,33.72 33.715,36.406 30.402,36.406L9.598,36.406C6.285,36.406 3.598,33.72 3.598,30.406L3.598,12.883Z" stroke="#3E495A" stroke-width="1.5" stroke-miterlimit="3.999327"/>
</g>
<line x1="5.238" y1="13.582" x2="34.761" y2="13.582" stroke="#3E495A" stroke-width="1.5" stroke-miterlimit="3.999327" stroke-linecap="round"/>
<line x1="10.979" y1="18.504" x2="12.619" y2="18.504" stroke="#3E495A" stroke-width="1.5" stroke-miterlimit="3.999327" stroke-linecap="round"/>
<line x1="10.979" y1="23.426" x2="12.619" y2="23.426" stroke="#3E495A" stroke-width="1.5" stroke-miterlimit="3.999327" stroke-linecap="round"/>
<line x1="10.979" y1="28.344" x2="12.619" y2="28.344" stroke="#3E495A" stroke-width="1.5" stroke-miterlimit="3.999327" stroke-linecap="round"/>
<line x1="19.18" y1="18.504" x2="20.82" y2="18.504" stroke="#3E495A" stroke-width="1.5" stroke-miterlimit="3.999327" stroke-linecap="round"/>
<line x1="19.18" y1="23.426" x2="20.82" y2="23.426" stroke="#3E495A" stroke-width="1.5" stroke-miterlimit="3.999327" stroke-linecap="round"/>
<line x1="19.18" y1="28.344" x2="20.82" y2="28.344" stroke="#3E495A" stroke-width="1.5" stroke-miterlimit="3.999327" stroke-linecap="round"/>
<line x1="27.381" y1="18.504" x2="29.021" y2="18.504" stroke="#3E495A" stroke-width="1.5" stroke-miterlimit="3.999327" stroke-linecap="round"/>
<line x1="27.381" y1="23.426" x2="29.021" y2="23.426" stroke="#3E495A" stroke-width="1.5" stroke-miterlimit="3.999327" stroke-linecap="round"/>
<line x1="27.381" y1="28.344" x2="29.021" y2="28.344" stroke="#3E495A" stroke-width="1.5" stroke-miterlimit="3.999327" stroke-linecap="round"/>
<line x1="10.299" y1="5.242" x2="10.299" y2="10.49" stroke="#3E495A" stroke-width="1.5" stroke-miterlimit="3.999327" stroke-linecap="round"/>
<line x1="26.701" y1="5.242" x2="26.701" y2="10.49" stroke="#3E495A" stroke-width="1.5" stroke-miterlimit="3.999327" stroke-linecap="round"/>
<defs>
<filter id="filter1_5678" x="-58.401733" y="-55.117188" width="140.401705" height="138.761534" filterUnits="userSpaceOnUse" color-interpolation-filters="sRGB">
<feFlood flood-opacity="0" result="BackgroundImageFix"/>
<feColorMatrix in="SourceAlpha" type="matrix" values="0 0 0 0 0 0 0 0 0 0 0 0 0 0 0 0 0 0 127 0" result="hardAlpha"/>
<feMorphology radius="0" operator="dilate" in="SourceAlpha" result="0dropshadow"/>
<feOffset dx="0" dy="4"/>
<feGaussianBlur stdDeviation="31"/>
<feComposite in2="hardAlpha" operator="out"/>
<feColorMatrix type="matrix" values="0 0 0 0 0.6 0 0 0 0 0.670588 0 0 0 0 0.776471 0 0 0 0.18 0"/>
<feBlend mode="normal" in2="BackgroundImageFix" result="0dropshadow"/>
<feBlend mode="normal" in="SourceGraphic" in2="0dropshadow" result="shape"/>
</filter>
</defs>
</svg>
