<svg width="46" height="48" viewBox="0 0 46 48" fill="none" xmlns="http://www.w3.org/2000/svg" xmlns:xlink="http://www.w3.org/1999/xlink">
<path d="M38.239,20.333C38.239,23.413 37.449,26.293 36.076,28.751C34.358,31.826 29.413,38.164 26.148,42.241C24.577,44.202 21.62,44.202 20.05,42.241C16.784,38.164 11.839,31.826 10.121,28.751C8.748,26.293 7.958,23.413 7.958,20.333C7.958,11.313 14.737,4 23.099,4C31.46,4 38.239,11.313 38.239,20.333Z" fill="#FF9228"/>
<path d="M30.669,20C30.669,24.418 27.28,28 23.099,28C18.918,28 15.528,24.418 15.528,20C15.528,15.582 18.918,12 23.099,12C27.28,12 30.669,15.582 30.669,20Z" fill="#FFFFFF"/>
</svg>
