<svg width="48" height="48" viewBox="0 0 48 48" fill="none" xmlns="http://www.w3.org/2000/svg" xmlns:xlink="http://www.w3.org/1999/xlink">
<path d="M36,6L12,6C7.582,6 4,9.582 4,14L4,34C4,38.418 7.582,42 12,42L36,42C40.418,42 44,38.418 44,34L44,14C44,9.582 40.418,6 36,6Z" stroke="#FF9228" stroke-width="1.5" stroke-miterlimit="3.999327"/>
<circle cx="15" cy="15" r="3" fill="#FF9228"/>
<path d="M44,34L44,24L39.053,17.074C36.612,13.657 31.507,13.739 29.178,17.233L23.353,25.97C22.653,27.02 21.167,27.167 20.275,26.275L18.646,24.646C16.151,22.151 12.053,22.337 9.794,25.047L4,32L4,34C4,38.418 7.582,42 12,42L36,42C40.418,42 44,38.418 44,34Z" fill="#FF9228" stroke="#FF9228" stroke-width="1.5" stroke-miterlimit="3.999327"/>
</svg>
