<svg width="48" height="48" viewBox="0 0 48 48" fill="none" xmlns="http://www.w3.org/2000/svg" xmlns:xlink="http://www.w3.org/1999/xlink">
<path d="M20.04,40.223L20.685,38.868L20.685,38.868L20.04,40.223ZM15.641,38.127L16.286,36.773L16.286,36.773L15.641,38.127ZM14.781,38.127L14.136,36.773L14.136,36.773L14.781,38.127ZM10.381,40.223L11.026,41.577L11.026,41.577L10.381,40.223ZM19.97,25.997L19.97,39.32L22.97,39.32L22.97,25.997L19.97,25.997ZM10.451,39.32L10.451,25.997L7.451,25.997L7.451,39.32L10.451,39.32ZM20.685,38.868L16.286,36.773L14.996,39.481L19.395,41.577L20.685,38.868ZM14.136,36.773L9.736,38.868L11.026,41.577L15.426,39.481L14.136,36.773ZM16.286,36.773C15.605,36.449 14.816,36.449 14.136,36.773L15.426,39.481C15.29,39.546 15.132,39.546 14.996,39.481L16.286,36.773ZM7.451,39.32C7.451,41.157 9.367,42.367 11.026,41.577L9.736,38.868C10.067,38.71 10.451,38.952 10.451,39.32L7.451,39.32ZM19.97,39.32C19.97,38.952 20.354,38.71 20.685,38.868L19.395,41.577C21.054,42.367 22.97,41.157 22.97,39.32L19.97,39.32Z" transform="rotate(60 15.211 33.45)" fill="#FF9228"/>
<path d="M37.709,40.364L38.351,39.008L38.351,39.008L37.709,40.364ZM33.305,38.28L32.663,39.636L32.663,39.636L33.305,38.28ZM32.449,38.28L33.091,39.636L33.091,39.636L32.449,38.28ZM28.045,40.364L27.403,39.008L27.403,39.008L28.045,40.364ZM37.637,26.232L37.637,39.46L40.637,39.46L40.637,26.232L37.637,26.232ZM28.117,39.46L28.117,26.232L25.117,26.232L25.117,39.46L28.117,39.46ZM38.351,39.008L33.946,36.924L32.663,39.636L37.068,41.72L38.351,39.008ZM31.808,36.924L27.403,39.008L28.686,41.72L33.091,39.636L31.808,36.924ZM33.946,36.924C33.269,36.604 32.485,36.604 31.808,36.924L33.091,39.636C32.955,39.7 32.798,39.7 32.663,39.636L33.946,36.924ZM25.117,39.46C25.117,41.295 27.028,42.505 28.686,41.72L27.403,39.008C27.735,38.851 28.117,39.093 28.117,39.46L25.117,39.46ZM37.637,39.46C37.637,39.093 38.019,38.851 38.351,39.008L37.068,41.72C38.726,42.505 40.637,41.295 40.637,39.46L37.637,39.46Z" transform="rotate(300 32.877 33.636)" fill="#FF9228"/>
<rect  x="10" y="4" width="25" height="25" rx="82.5" stroke="#FF9228" stroke-width="1.5" stroke-miterlimit="3.999327"/>
<path d="M22.668,12.16C23.087,10.871 24.912,10.871 25.331,12.16L25.917,13.962C26.104,14.539 26.642,14.93 27.248,14.93L29.143,14.93C30.499,14.93 31.063,16.665 29.966,17.462L28.433,18.576C27.942,18.932 27.737,19.564 27.924,20.141L28.51,21.943C28.929,23.233 27.453,24.306 26.356,23.508L24.823,22.395C24.332,22.038 23.668,22.038 23.177,22.395L21.644,23.508C20.547,24.306 19.071,23.233 19.49,21.943L20.075,20.141C20.263,19.564 20.057,18.932 19.567,18.576L18.034,17.462C16.937,16.665 17.5,14.93 18.857,14.93L20.751,14.93C21.358,14.93 21.895,14.539 22.083,13.962L22.668,12.16Z" fill="#FF9228"/>
</svg>
