<svg width="48" height="48" viewBox="0 0 48 48" fill="none" xmlns="http://www.w3.org/2000/svg" xmlns:xlink="http://www.w3.org/1999/xlink">
<path d="M4,19.889C4,15.532 7.532,12 11.889,12L11.889,12C13.208,12 14.439,11.341 15.171,10.244L15.625,9.562C17.109,7.337 19.607,6 22.281,6L25.253,6C27.627,6 29.879,7.055 31.399,8.879L32.801,10.561C33.561,11.473 34.686,12 35.873,12L36,12C40.418,12 44,15.582 44,20L44,34C44,38.418 40.418,42 36,42L12,42C7.582,42 4,38.418 4,34L4,19.889Z" fill="#FCA34D" stroke="#FF9228" stroke-width="1.5" stroke-miterlimit="3.999327"/>
<circle cx="24" cy="26" r="10" stroke="#FFFFFF" stroke-width="1.5" stroke-miterlimit="3.999327"/>
</svg>
