<svg width="30" height="30" viewBox="0 0 30 30" fill="none" xmlns="http://www.w3.org/2000/svg" xmlns:xlink="http://www.w3.org/1999/xlink">
<path d="M26.5,17.833C26.5,17.005 25.828,16.333 25,16.333C24.172,16.333 23.5,17.005 23.5,17.833L26.5,17.833ZM10.986,6.5C11.815,6.5 12.486,5.828 12.486,5C12.486,4.172 11.815,3.5 10.986,3.5L10.986,6.5ZM19,24.75L9.75,24.75L9.75,27.75L19,27.75L19,24.75ZM5.25,20.25L5.25,11L2.25,11L2.25,20.25L5.25,20.25ZM23.5,17.833L23.5,20.25L26.5,20.25L26.5,17.833L23.5,17.833ZM9.75,6.5L10.986,6.5L10.986,3.5L9.75,3.5L9.75,6.5ZM9.75,24.75C7.265,24.75 5.25,22.735 5.25,20.25L2.25,20.25C2.25,24.392 5.608,27.75 9.75,27.75L9.75,24.75ZM19,27.75C23.142,27.75 26.5,24.392 26.5,20.25L23.5,20.25C23.5,22.735 21.485,24.75 19,24.75L19,27.75ZM5.25,11C5.25,8.515 7.265,6.5 9.75,6.5L9.75,3.5C5.608,3.5 2.25,6.858 2.25,11L5.25,11Z" fill="#FC4646"/>
<path d="M26.188,4.687C26.188,3.859 25.516,3.187 24.688,3.187C23.859,3.187 23.188,3.859 23.188,4.687L26.188,4.687ZM17.813,10.688C16.984,10.688 16.313,11.359 16.313,12.188C16.313,13.016 16.984,13.688 17.813,13.688L17.813,10.688ZM23.188,4.687L23.188,10.188L26.188,10.188L26.188,4.687L23.188,4.687ZM22.688,10.688L17.813,10.688L17.813,13.688L22.688,13.688L22.688,10.688ZM23.188,10.188C23.188,10.464 22.964,10.688 22.688,10.688L22.688,13.688C24.621,13.688 26.188,12.121 26.188,10.188L23.188,10.188Z" transform="rotate(-180 21.25 8.438)" fill="#FC4646"/>
<path d="M24.811,7.311C25.396,6.725 25.396,5.775 24.811,5.189C24.225,4.604 23.275,4.604 22.689,5.189L24.811,7.311ZM11.939,15.94C11.353,16.525 11.353,17.475 11.939,18.061C12.525,18.647 13.475,18.647 14.061,18.061L11.939,15.94ZM22.689,5.189L11.939,15.94L14.061,18.061L24.811,7.311L22.689,5.189Z" fill="#FC4646"/>
</svg>
