<svg width="48" height="48" viewBox="0 0 48 48" fill="none" xmlns="http://www.w3.org/2000/svg" xmlns:xlink="http://www.w3.org/1999/xlink">
<path d="M36.5,14L36.5,36L39.5,36L39.5,14L36.5,14ZM32,40.5L16,40.5L16,43.5L32,43.5L32,40.5ZM11.5,36L11.5,14L8.5,14L8.5,36L11.5,36ZM31,9.5L32,9.5L32,6.5L31,6.5L31,9.5ZM16,9.5L17,9.5L17,6.5L16,6.5L16,9.5ZM16,40.5C13.515,40.5 11.5,38.485 11.5,36L8.5,36C8.5,40.142 11.858,43.5 16,43.5L16,40.5ZM36.5,36C36.5,38.485 34.485,40.5 32,40.5L32,43.5C36.142,43.5 39.5,40.142 39.5,36L36.5,36ZM39.5,14C39.5,9.858 36.142,6.5 32,6.5L32,9.5C34.485,9.5 36.5,11.515 36.5,14L39.5,14ZM11.5,14C11.5,11.515 13.515,9.5 16,9.5L16,6.5C11.858,6.5 8.5,9.858 8.5,14L11.5,14Z" fill="#FF9228"/>
<line x1="16" y1="34.5" x2="32" y2="34.5" stroke="#FF9228" stroke-width="1.5" stroke-miterlimit="3.999327" stroke-linecap="round"/>
<rect  x="16" y="4" width="13" height="5" rx="2.5" stroke="#FF9228" stroke-width="1.5" stroke-miterlimit="3.999327"/>
<circle cx="24" cy="18" r="4" stroke="#FF9228" stroke-width="1.5" stroke-miterlimit="3.999327"/>
<path d="M16.5,30C16.5,30.828 17.172,31.5 18,31.5C18.828,31.5 19.5,30.828 19.5,30L16.5,30ZM28.5,30C28.5,30.828 29.172,31.5 30,31.5C30.828,31.5 31.5,30.828 31.5,30L28.5,30ZM19.5,30C19.5,27.515 21.515,25.5 24,25.5L24,22.5C19.858,22.5 16.5,25.858 16.5,30L19.5,30ZM24,25.5C26.485,25.5 28.5,27.515 28.5,30L31.5,30C31.5,25.858 28.142,22.5 24,22.5L24,25.5Z" fill="#FF9228"/>
</svg>
