<svg width="48" height="48" viewBox="0 0 48 48" fill="none" xmlns="http://www.w3.org/2000/svg" xmlns:xlink="http://www.w3.org/1999/xlink">
<path d="M6,26C6,21.582 9.582,18 14,18L34,18C38.418,18 42,21.582 42,26L42,34C42,38.418 38.418,42 34,42L14,42C9.582,42 6,38.418 6,34L6,26Z" stroke="#3E495A" stroke-width="1.5" stroke-miterlimit="3.999327"/>
<path d="M28.5,15L28.5,18L31.5,18L31.5,15L28.5,15ZM19.5,18L19.5,15L16.5,15L16.5,18L19.5,18ZM24,10.5C26.485,10.5 28.5,12.515 28.5,15L31.5,15C31.5,10.858 28.142,7.5 24,7.5L24,10.5ZM24,7.5C19.858,7.5 16.5,10.858 16.5,15L19.5,15C19.5,12.515 21.515,10.5 24,10.5L24,7.5Z" fill="#3E495A"/>
</svg>
