<svg width="48" height="48" viewBox="0 0 48 48" fill="none" xmlns="http://www.w3.org/2000/svg" xmlns:xlink="http://www.w3.org/1999/xlink">
<rect  x="4" y="4" width="37" height="37" rx="198.5" stroke="#FFFFFF" stroke-width="1.5" stroke-miterlimit="3.999327"/>
<path d="M30.442,12.639C30.442,11.81 29.771,11.139 28.942,11.139C28.114,11.139 27.442,11.81 27.442,12.639L30.442,12.639ZM28.942,28.761L28.942,30.261L30.442,30.261L30.442,28.761L28.942,28.761ZM20.457,27.261C19.629,27.261 18.957,27.932 18.957,28.761C18.957,29.589 19.629,30.261 20.457,30.261L20.457,27.261ZM27.442,12.639L27.442,28.761L30.442,28.761L30.442,12.639L27.442,12.639ZM28.942,27.261L20.457,27.261L20.457,30.261L28.942,30.261L28.942,27.261Z" transform="rotate(90 24.7 20.7)" fill="#FFFFFF"/>
</svg>
