<svg width="48" height="48" viewBox="0 0 48 48" fill="none" xmlns="http://www.w3.org/2000/svg" xmlns:xlink="http://www.w3.org/1999/xlink">
<path d="M42.5,22L42.5,38L45.5,38L45.5,22L42.5,22ZM38,42.5L10,42.5L10,45.5L38,45.5L38,42.5ZM5.5,38L5.5,16L2.5,16L2.5,38L5.5,38ZM26.667,17.5L38,17.5L38,14.5L26.667,14.5L26.667,17.5ZM10,11.5L13.333,11.5L13.333,8.5L10,8.5L10,11.5ZM17.233,12.8L20.967,15.6L22.767,13.2L19.033,10.4L17.233,12.8ZM13.333,11.5C14.74,11.5 16.108,11.956 17.233,12.8L19.033,10.4C17.389,9.167 15.389,8.5 13.333,8.5L13.333,11.5ZM26.667,14.5C25.26,14.5 23.892,14.044 22.767,13.2L20.967,15.6C22.611,16.833 24.611,17.5 26.667,17.5L26.667,14.5ZM10,42.5C7.515,42.5 5.5,40.485 5.5,38L2.5,38C2.5,42.142 5.858,45.5 10,45.5L10,42.5ZM42.5,38C42.5,40.485 40.485,42.5 38,42.5L38,45.5C42.142,45.5 45.5,42.142 45.5,38L42.5,38ZM45.5,22C45.5,17.858 42.142,14.5 38,14.5L38,17.5C40.485,17.5 42.5,19.515 42.5,22L45.5,22ZM5.5,16C5.5,13.515 7.515,11.5 10,11.5L10,8.5C5.858,8.5 2.5,11.858 2.5,16L5.5,16Z" fill="#3B4657"/>
<path d="M34.624,12.47L33.54,13.507L34.624,12.47ZM12,11.5L28.843,11.5L28.843,8.5L12,8.5L12,11.5ZM33.54,13.507L36.916,17.037L39.084,14.963L35.708,11.433L33.54,13.507ZM28.843,11.5C30.617,11.5 32.313,12.225 33.54,13.507L35.708,11.433C33.915,9.56 31.435,8.5 28.843,8.5L28.843,11.5Z" fill="#3B4657"/>
<path d="M28,27.157C28.828,27.157 29.5,26.485 29.5,25.657C29.5,24.828 28.828,24.157 28,24.157L28,27.157ZM18.5,33.657C18.5,34.485 19.172,35.157 20,35.157C20.828,35.157 21.5,34.485 21.5,33.657L18.5,33.657ZM21,27.157L28,27.157L28,24.157L21,24.157L21,27.157ZM21.5,33.657L21.5,26.657L18.5,26.657L18.5,33.657L21.5,33.657ZM21,24.157C19.619,24.157 18.5,25.276 18.5,26.657L21.5,26.657C21.5,26.933 21.276,27.157 21,27.157L21,24.157Z" transform="rotate(90 24 29.657)" fill="#3B4657"/>
<line x1="22.5" y1="26" x2="22.5" y2="36" stroke="#3B4657" stroke-width="1.5" stroke-miterlimit="3.999327" stroke-linecap="round"/>
</svg>
