<svg width="48" height="156" viewBox="0 0 48 156" fill="none" xmlns="http://www.w3.org/2000/svg" xmlns:xlink="http://www.w3.org/1999/xlink">
<rect  x="4" y="4" width="19" height="19" rx="4.5" stroke="#FF9228" stroke-width="1.5" stroke-miterlimit="3.999327"/>
<path d="M18,41.5C18.828,41.5 19.5,40.828 19.5,40C19.5,39.172 18.828,38.5 18,38.5L18,41.5ZM9.5,30C9.5,29.172 8.828,28.5 8,28.5C7.172,28.5 6.5,29.172 6.5,30L9.5,30ZM18,38.5C13.306,38.5 9.5,34.694 9.5,30L6.5,30C6.5,36.351 11.649,41.5 18,41.5L18,38.5Z" fill="#FF9228"/>
<path d="M40,19.5C40.828,19.5 41.5,18.828 41.5,18C41.5,17.172 40.828,16.5 40,16.5L40,19.5ZM31.5,8C31.5,7.172 30.828,6.5 30,6.5C29.172,6.5 28.5,7.172 28.5,8L31.5,8ZM40,16.5C35.306,16.5 31.5,12.694 31.5,8L28.5,8C28.5,14.351 33.649,19.5 40,19.5L40,16.5Z" transform="rotate(180 35 13)" fill="#FF9228"/>
<rect  x="22" y="22" width="19" height="19" rx="4.5" stroke="#FF9228" stroke-width="1.5" stroke-miterlimit="3.999327"/>
<path d="M30.599,150.323C30.812,150.708 31.046,151.078 31.3,151.429C30.495,151.92 29.58,152.165 28.556,152.166L28.556,154.673C30.232,154.673 31.73,154.171 33,153.198C34.27,154.171 35.768,154.673 37.444,154.673L37.444,152.166C36.422,152.166 35.508,151.92 34.7,151.429C34.954,151.077 35.188,150.708 35.401,150.323C36.041,149.148 36.512,147.866 36.796,146.525L38,146.525L38,144.017L34.111,144.017L34.111,142.137L31.889,142.137L31.889,144.017L28,144.017L28,146.525L29.204,146.525C29.488,147.866 29.959,149.148 30.599,150.323L30.599,150.323ZM34.495,146.525C34.265,147.392 33.936,148.223 33.516,148.994C33.359,149.279 33.187,149.552 33,149.813C32.827,149.571 32.666,149.319 32.519,149.057C32.082,148.268 31.74,147.416 31.505,146.525L34.495,146.525Z" fill="#FF9228"/>
<path d="M17.932,19.856L17.104,17.136L12.94,17.136L12.112,19.856L9.502,19.856L13.534,8.386L16.494,8.386L20.542,19.856L17.932,19.856M16.526,15.106L15.698,12.45Q15.62,12.184 15.49,11.766Q15.362,11.348 15.232,10.914Q15.104,10.48 15.026,10.16Q14.948,10.48 14.81,10.954Q14.674,11.426 14.548,11.848Q14.424,12.27 14.37,12.45L13.548,15.106L16.526,15.106Z" fill="#FF9228"/>
</svg>
