<svg width="46" height="48" viewBox="0 0 46 48" fill="none" xmlns="http://www.w3.org/2000/svg" xmlns:xlink="http://www.w3.org/1999/xlink">
<path d="M36.346,21C36.346,30.389 29.144,38 20.26,38C11.375,38 4.173,30.389 4.173,21C4.173,11.611 11.375,4 20.26,4C29.144,4 36.346,11.611 36.346,21Z" stroke="#AAA6B9" stroke-width="1.5" stroke-miterlimit="3.999327"/>
<path d="M31.758,30.969C31.189,30.367 30.24,30.341 29.638,30.91C29.036,31.48 29.01,32.429 29.579,33.031L31.758,30.969ZM39.988,44.031C40.558,44.633 41.507,44.659 42.109,44.09C42.71,43.52 42.737,42.571 42.167,41.969L39.988,44.031ZM29.579,33.031L39.988,44.031L42.167,41.969L31.758,30.969L29.579,33.031Z" fill="#AAA6B9"/>
</svg>
