<svg width="48" height="48" viewBox="0 0 48 48" fill="none" xmlns="http://www.w3.org/2000/svg" xmlns:xlink="http://www.w3.org/1999/xlink">
<rect  x="4" y="4" width="19" height="19" rx="4.5" stroke="#FF9228" stroke-width="1.5" stroke-miterlimit="3.999327"/>
<path d="M18,41.5C18.828,41.5 19.5,40.828 19.5,40C19.5,39.172 18.828,38.5 18,38.5L18,41.5ZM9.5,30C9.5,29.172 8.828,28.5 8,28.5C7.172,28.5 6.5,29.172 6.5,30L9.5,30ZM18,38.5C13.306,38.5 9.5,34.694 9.5,30L6.5,30C6.5,36.351 11.649,41.5 18,41.5L18,38.5Z" fill="#FF9228"/>
<path d="M40,19.5C40.828,19.5 41.5,18.828 41.5,18C41.5,17.172 40.828,16.5 40,16.5L40,19.5ZM31.5,8C31.5,7.172 30.828,6.5 30,6.5C29.172,6.5 28.5,7.172 28.5,8L31.5,8ZM40,16.5C35.306,16.5 31.5,12.694 31.5,8L28.5,8C28.5,14.351 33.649,19.5 40,19.5L40,16.5Z" transform="rotate(180 35 13)" fill="#FF9228"/>
<rect  x="22" y="22" width="19" height="19" rx="4.5" stroke="#FF9228" stroke-width="1.5" stroke-miterlimit="3.999327"/>
<path d="M30.599,34.836C30.812,35.205 31.046,35.558 31.3,35.895C30.495,36.364 29.58,36.599 28.556,36.6L28.556,39C30.232,39 31.73,38.519 33,37.588C34.27,38.519 35.768,39 37.444,39L37.444,36.6C36.422,36.6 35.508,36.365 34.7,35.894C34.954,35.558 35.188,35.204 35.401,34.836C36.041,33.711 36.512,32.484 36.796,31.2L38,31.2L38,28.8L34.111,28.8L34.111,27L31.889,27L31.889,28.8L28,28.8L28,31.2L29.204,31.2C29.488,32.484 29.959,33.711 30.599,34.836L30.599,34.836ZM34.495,31.2C34.265,32.031 33.936,32.825 33.516,33.564C33.359,33.836 33.187,34.098 33,34.348C32.827,34.116 32.666,33.875 32.519,33.624C32.082,32.869 31.74,32.053 31.505,31.2L34.495,31.2Z" fill="#FF9228"/>
<path d="M17.932,19.856L17.104,17.136L12.94,17.136L12.112,19.856L9.502,19.856L13.534,8.386L16.494,8.386L20.542,19.856L17.932,19.856M16.526,15.106L15.698,12.45Q15.62,12.184 15.49,11.766Q15.362,11.348 15.232,10.914Q15.104,10.48 15.026,10.16Q14.948,10.48 14.81,10.954Q14.674,11.426 14.548,11.848Q14.424,12.27 14.37,12.45L13.548,15.106L16.526,15.106Z" fill="#FF9228"/>
</svg>
