<svg width="48" height="48" viewBox="0 0 48 48" fill="none" xmlns="http://www.w3.org/2000/svg" xmlns:xlink="http://www.w3.org/1999/xlink">
<path d="M10.334,35.5C11.162,35.5 11.834,34.828 11.834,34C11.834,33.172 11.162,32.5 10.334,32.5L10.334,35.5ZM25.693,32.5C24.865,32.5 24.193,33.172 24.193,34C24.193,34.828 24.865,35.5 25.693,35.5L25.693,32.5ZM10,15.5L26,15.5L26,12.5L10,12.5L10,15.5ZM32.5,22L32.5,26L35.5,26L35.5,22L32.5,22ZM3.5,26L3.5,22L0.5,22L0.5,26L3.5,26ZM10.334,32.5L10,32.5L10,35.5L10.334,35.5L10.334,32.5ZM26,32.5L25.693,32.5L25.693,35.5L26,35.5L26,32.5ZM0.5,26C0.5,31.247 4.753,35.5 10,35.5L10,32.5C6.41,32.5 3.5,29.59 3.5,26L0.5,26ZM32.5,26C32.5,29.59 29.59,32.5 26,32.5L26,35.5C31.247,35.5 35.5,31.247 35.5,26L32.5,26ZM26,15.5C29.59,15.5 32.5,18.41 32.5,22L35.5,22C35.5,16.753 31.247,12.5 26,12.5L26,15.5ZM10,12.5C4.753,12.5 0.5,16.753 0.5,22L3.5,22C3.5,18.41 6.41,15.5 10,15.5L10,12.5Z" transform="rotate(-180 18 24)" fill="#3E495A"/>
<line x1="18" y1="22.5" x2="39" y2="22.5" stroke="#3E495A" stroke-width="1.5" stroke-miterlimit="3.999327" stroke-linecap="round"/>
<path d="M35.608,17.089C35.105,16.431 34.164,16.305 33.506,16.808C32.848,17.311 32.722,18.252 33.225,18.911L35.608,17.089ZM39,23.999L40.192,24.909L40.888,23.999L40.192,23.088L39,23.999ZM33.224,29.089C32.722,29.748 32.848,30.689 33.506,31.192C34.164,31.695 35.106,31.569 35.609,30.911L33.224,29.089ZM33.225,18.911L37.808,24.91L40.192,23.088L35.608,17.089L33.225,18.911ZM37.808,23.088L33.224,29.089L35.609,30.911L40.192,24.909L37.808,23.088Z" fill="#3E495A"/>
</svg>
