<svg width="440" height="416" viewBox="0 0 440 416" fill="none" xmlns="http://www.w3.org/2000/svg" xmlns:xlink="http://www.w3.org/1999/xlink">
<rect  x="62" y="127.641" width="122.005" height="122.005" rx="32" transform="rotate(-41.918 62 127.641)" fill="#FFC467"/>
<circle cx="189.942" cy="301.942" r="13.25" transform="rotate(-26.588 189.942 301.942)" fill="#19216F"/>
<g opacity="0.1">
<path d="M193.196,136.785C193.147,136.068 193.039,135.346 192.869,134.624C191.186,127.503 184.049,123.093 176.927,124.776C169.805,126.459 165.396,133.596 167.079,140.718C167.15,141.02 167.231,141.317 167.322,141.609C148.641,151.112 138.041,172.448 143.066,193.713L148.635,217.282C149.014,219.862 149.283,222.357 149.448,224.786L219,199.035C229.865,195.012 236.054,183.546 233.454,172.255C228.918,152.551 212.27,138.77 193.196,136.785Z" clip-rule="evenodd" fill-rule="evenodd" fill="#151A53"/>
</g>
<circle cx="183.974" cy="135.67" r="13.25" transform="rotate(-26.588 183.974 135.67)" fill="#949EFF"/>
<g opacity="0.1">
<path d="M210.742,193.54C210.742,167.813 231.598,146.957 257.325,146.957L257.325,146.957C283.053,146.957 303.909,167.813 303.909,193.54L303.909,217.623C305.589,232.749 309.778,244.225 316.398,255.892C324.456,270.094 315.553,288.29 299.224,288.29L215.177,288.29C198.896,288.29 190.033,270.237 198.223,256.166C205.109,244.336 209.431,232.826 210.742,217.623L210.742,193.54Z" transform="rotate(-29.022 257.325 217.623)" fill="#3847E5"/>
</g>
<path d="M155.386,184.486C155.386,158.759 176.242,137.903 201.97,137.903L201.97,137.903C227.697,137.903 248.553,158.759 248.553,184.486L248.553,208.57C250.233,223.696 254.422,235.172 261.042,246.839C269.1,261.04 260.197,279.236 243.868,279.236L159.822,279.236C143.54,279.236 134.677,261.184 142.867,247.113C149.753,235.283 154.075,223.772 155.386,208.57L155.386,184.486Z" transform="rotate(-26.588 201.97 208.57)" fill="#3847E5"/>
<g opacity="0.1">
<circle cx="330" cy="176" r="10" transform="rotate(0 330 176)" fill="#27308C"/>
</g>
<g opacity="0.2">
<circle cx="158" cy="402" r="6" transform="rotate(0 158 402)" fill="#27308C"/>
</g>
<path d="M71.536,56.465C74.615,51.132 82.313,51.132 85.392,56.465L94.052,71.465C97.132,76.798 93.283,83.465 87.124,83.465L69.804,83.465C63.645,83.465 59.796,76.798 62.876,71.465L71.536,56.465Z" transform="rotate(-103.753 78.464 70.465)" fill="#FF9E87"/>
<path d="M16.327,291.403C19.563,285.798 27.652,285.798 30.888,291.403L30.888,291.403C34.124,297.007 30.079,304.013 23.608,304.013L23.608,304.013C17.136,304.013 13.091,297.007 16.327,291.403L16.327,291.403Z" transform="rotate(-103.753 23.608 295.606)" fill="#FF9E87"/>
<path d="M379.748,237.731C386.041,226.833 401.771,226.833 408.064,237.731L408.064,237.731C414.356,248.63 406.491,262.253 393.906,262.253L393.906,262.253C381.322,262.253 373.456,248.63 379.748,237.731L379.748,237.731Z" transform="rotate(-103.753 393.906 245.905)" fill="#FF9E87"/>
<g opacity="0.2">
<path d="M291.062,369.988C294.141,364.655 301.839,364.655 304.918,369.988L313.578,384.988C316.657,390.322 312.808,396.988 306.65,396.988L289.33,396.988C283.171,396.988 279.322,390.322 282.401,384.988L291.062,369.988Z" transform="rotate(-149.081 297.99 383.988)" fill="#FF9E87"/>
</g>
<g opacity="0.3">
<path d="M364.761,62.938C364.761,78.402 342.225,45.938 326.761,45.938C311.297,45.938 278.761,61.402 278.761,45.938C278.761,30.474 317.297,13.938 332.761,13.938C348.225,13.938 364.761,47.474 364.761,62.938Z" transform="rotate(43.11 321.761 40.526)" fill="#03A9F4"/>
</g>
</svg>
