<svg width="488" height="480" viewBox="0 0 488 480" fill="none" xmlns="http://www.w3.org/2000/svg" xmlns:xlink="http://www.w3.org/1999/xlink">
<mask id="mask_0_1_2682" style="mask-type:alpha" maskUnits="userSpaceOnUse" x="1.999878" y="134.000298" width="78.787116" height="78.787116">
<rect  x="2" y="177.642" width="122.005" height="122.005" rx="32" transform="rotate(-41.918 2 177.642)" fill="#FFC467"/>
</mask>
<rect  x="19.014" y="126.463" width="12.722" height="12.722" rx="30" transform="rotate(318.082 19.014 126.463)" stroke="#9E9FA9" stroke-width="2" stroke-miterlimit="3.999327"/>
<g mask="url(#mask_0_1_2682)">
<rect  x="2" y="177.642" width="122.005" height="122.005" rx="32" transform="rotate(-41.918 2 177.642)" fill="#FFC467"/>
<g opacity="0.15">
<rect  x="56.438" y="161.696" width="290" height="182" rx="40" transform="rotate(-8.986 56.438 161.696)" fill="#151B5E"/>
</g>
</g>
<g opacity="0.2">
<rect  x="105.805" y="158" width="290" height="182" rx="40" transform="rotate(16.302 105.805 158)" fill="#5665FF"/>
</g>
<rect  x="66.438" y="157.696" width="290" height="182" rx="40" transform="rotate(-8.986 66.438 157.696)" fill="#3747E9"/>
<g opacity="0.11">
<path d="M70.771,198.15C70.771,176.058 88.679,158.15 110.771,158.15L320.771,158.15C342.863,158.15 360.771,176.058 360.771,198.15L360.771,204.15L229.273,251.307C220.544,254.438 210.997,254.438 202.268,251.307L70.771,204.15L70.771,198.15Z" transform="rotate(-8.986 215.771 207.15)" fill="#5B5B5B"/>
</g>
<path d="M69.361,186.205C69.361,164.114 87.27,146.205 109.361,146.205L319.361,146.205C341.453,146.205 359.361,164.114 359.361,186.205L359.361,196.205L223.999,229.812C217.67,231.384 211.052,231.384 204.723,229.812L69.361,196.205L69.361,186.205Z" transform="rotate(-8.986 214.361 189.205)" fill="#949EFF"/>
<g opacity="0.2">
<circle cx="206" cy="436" r="6" transform="rotate(0 206 436)" fill="#27308C"/>
</g>
<path d="M119.536,90.465C122.615,85.132 130.313,85.132 133.392,90.465L142.052,105.465C145.132,110.798 141.283,117.465 135.124,117.465L117.804,117.465C111.645,117.465 107.796,110.798 110.876,105.465L119.536,90.465Z" transform="rotate(-103.753 126.464 104.465)" fill="#FF9E87"/>
<path d="M64.327,325.404C67.563,319.799 75.652,319.799 78.888,325.404L78.888,325.404C82.124,331.008 78.079,338.014 71.608,338.014L71.608,338.014C65.136,338.014 61.091,331.008 64.327,325.404L64.327,325.404Z" transform="rotate(-103.753 71.608 329.607)" fill="#FF9E87"/>
<path d="M427.748,271.732C434.041,260.834 449.771,260.834 456.064,271.732L456.064,271.732C462.356,282.631 454.491,296.254 441.906,296.254L441.906,296.254C429.321,296.254 421.456,282.631 427.748,271.732L427.748,271.732Z" transform="rotate(-103.753 441.906 279.906)" fill="#FF9E87"/>
<g opacity="0.2">
<path d="M339.061,403.989C342.141,398.656 349.839,398.656 352.918,403.989L361.578,418.989C364.657,424.323 360.808,430.989 354.65,430.989L337.329,430.989C331.171,430.989 327.322,424.323 330.401,418.989L339.061,403.989Z" transform="rotate(-149.081 345.99 417.989)" fill="#FF9E87"/>
</g>
<g opacity="0.3">
<path d="M412.761,96.938C412.761,112.402 390.225,79.938 374.761,79.938C359.297,79.938 326.761,95.402 326.761,79.938C326.761,64.474 365.297,47.938 380.761,47.938C396.225,47.938 412.761,81.474 412.761,96.938Z" transform="rotate(43.11 369.761 74.526)" fill="#03A9F4"/>
</g>
<path d="M270.282,19.395C271.358,20.655 273.252,20.804 274.512,19.728C275.772,18.652 275.921,16.759 274.845,15.499L270.282,19.395ZM217.801,15.229C216.576,14.113 214.679,14.202 213.563,15.427C212.448,16.652 212.536,18.549 213.761,19.665L217.801,15.229ZM274.845,15.499C270.684,10.626 259.194,5.281 243.924,14.909L247.125,19.985C259.975,11.882 268.134,16.88 270.282,19.395L274.845,15.499ZM243.924,14.909C231.156,22.96 220.998,18.14 217.801,15.229L213.761,19.665C218.677,24.142 231.772,29.665 247.125,19.985L243.924,14.909Z" transform="rotate(-53.159 244.173 17.447)" fill="#FF83CC"/>
<path d="M87.715,474.853C88.738,476.156 90.624,476.383 91.927,475.36C93.23,474.337 93.457,472.451 92.433,471.148L87.715,474.853ZM72.037,470.869C70.86,469.703 68.96,469.712 67.795,470.889C66.629,472.066 66.638,473.966 67.815,475.132L72.037,470.869ZM92.433,471.148C91.424,469.862 89.603,468.587 87.181,468.217C84.673,467.835 81.798,468.459 78.783,470.526L82.176,475.475C84.151,474.121 85.513,474.032 86.276,474.149C87.123,474.278 87.605,474.713 87.715,474.853L92.433,471.148ZM78.783,470.526C75.17,473.004 72.625,471.451 72.037,470.869L67.815,475.132C70.105,477.4 75.811,479.839 82.176,475.475L78.783,470.526Z" transform="rotate(44.684 80 473)" fill="#FF83CC"/>
<path d="M469.58,396.709C470.603,398.013 472.489,398.239 473.792,397.216C475.095,396.193 475.322,394.307 474.299,393.004L469.58,396.709ZM442.051,392.725C440.873,391.559 438.974,391.568 437.808,392.745C436.642,393.923 436.651,395.822 437.828,396.988L442.051,392.725ZM474.299,393.004C472.96,391.299 470.462,389.521 467.078,389.004C463.608,388.475 459.487,389.309 455.005,392.382L458.398,397.331C461.84,394.971 464.449,394.673 466.173,394.936C467.982,395.212 469.141,396.15 469.58,396.709L474.299,393.004ZM455.005,392.382C448.457,396.872 443.485,394.146 442.051,392.725L437.828,396.988C440.965,400.095 449.098,403.707 458.398,397.331L455.005,392.382Z" transform="rotate(-256.51 455.939 394.857)" fill="#FF83CC"/>
</svg>
