<svg width="440" height="416" viewBox="0 0 440 416" fill="none" xmlns="http://www.w3.org/2000/svg" xmlns:xlink="http://www.w3.org/1999/xlink">
<mask id="mask_0_1_3129" style="mask-type:alpha" maskUnits="userSpaceOnUse" x="42" y="32.000381" width="103.322933" height="103.322933">
<rect  x="42" y="89.232" width="160" height="160" rx="32" transform="rotate(-41.918 42 89.232)" fill="#FFC467"/>
</mask>
<g opacity="0.1">
<circle cx="330" cy="176" r="10" transform="rotate(0 330 176)" fill="#27308C"/>
</g>
<g opacity="0.2">
<circle cx="158" cy="402" r="6" transform="rotate(0 158 402)" fill="#27308C"/>
</g>
<g mask="url(#mask_0_1_3129)">
<rect  x="42" y="89.232" width="160" height="160" rx="32" transform="rotate(-41.918 42 89.232)" fill="#FFC467"/>
<g opacity="0.15">
<path d="M98,128C98,108.118 114.118,92 134,92L254,92C273.882,92 290,108.118 290,128L290,322.976C290,332.266 279.897,338.032 271.898,333.308L194,287.3L116.103,333.308C108.103,338.032 98,332.266 98,322.976L98,128Z" transform="rotate(-8.411 194 218)" fill="#151A53"/>
</g>
<g opacity="0.15">
<path d="M69.577,62.505C72.656,57.172 80.354,57.172 83.433,62.505L92.093,77.505C95.173,82.838 91.324,89.505 85.165,89.505L67.845,89.505C61.686,89.505 57.837,82.838 60.917,77.505L69.577,62.505Z" transform="rotate(-103.753 76.505 76.505)" fill="#151A53"/>
</g>
</g>
<g opacity="0.1">
<path d="M163.306,172.623C163.306,152.741 179.424,136.623 199.306,136.623L319.306,136.623C339.188,136.623 355.306,152.741 355.306,172.623L355.306,367.599C355.306,376.889 345.203,382.655 337.204,377.931L259.306,331.923L181.409,377.931C173.409,382.655 163.306,376.889 163.306,367.599L163.306,172.623Z" transform="rotate(16.727 259.306 262.623)" fill="#5665FF"/>
</g>
<path d="M108,126C108,106.118 124.118,90 144,90L264,90C283.882,90 300,106.118 300,126L300,320.976C300,330.266 289.897,336.032 281.898,331.308L204,285.3L126.103,331.308C118.103,336.032 108,330.266 108,320.976L108,126Z" transform="rotate(-8.411 204 216)" fill="#3747E9"/>
<path d="M71.536,56.465C74.615,51.132 82.313,51.132 85.392,56.465L94.052,71.465C97.132,76.798 93.283,83.465 87.124,83.465L69.804,83.465C63.645,83.465 59.796,76.798 62.876,71.465L71.536,56.465Z" transform="rotate(-103.753 78.464 70.465)" fill="#FF9E87"/>
<path d="M16.327,291.403C19.563,285.798 27.652,285.798 30.888,291.403L30.888,291.403C34.124,297.007 30.079,304.013 23.608,304.013L23.608,304.013C17.136,304.013 13.091,297.007 16.327,291.403L16.327,291.403Z" transform="rotate(-103.753 23.608 295.606)" fill="#FF9E87"/>
<path d="M379.748,237.731C386.041,226.833 401.771,226.833 408.064,237.731L408.064,237.731C414.356,248.63 406.491,262.253 393.906,262.253L393.906,262.253C381.322,262.253 373.456,248.63 379.748,237.731L379.748,237.731Z" transform="rotate(-103.753 393.906 245.905)" fill="#FF9E87"/>
<path d="M291.062,369.988C294.141,364.655 301.839,364.655 304.918,369.988L313.578,384.988C316.657,390.322 312.808,396.988 306.65,396.988L289.33,396.988C283.171,396.988 279.322,390.322 282.401,384.988L291.062,369.988Z" transform="rotate(-149.081 297.99 383.988)" fill="#FFE1DA"/>
<path d="M164.204,140.14L234.204,140.14L234.204,134.14L164.204,134.14L164.204,140.14Z" transform="rotate(-8.411 199.204 137.14)" fill="#FFFFFF"/>
<g opacity="0.3">
<path d="M364.761,62.938C364.761,78.402 342.225,45.938 326.761,45.938C311.297,45.938 278.761,61.402 278.761,45.938C278.761,30.474 317.297,13.938 332.761,13.938C348.225,13.938 364.761,47.474 364.761,62.938Z" transform="rotate(43.11 321.761 40.526)" fill="#3F13E4"/>
</g>
</svg>
