<svg width="306" height="304" viewBox="0 0 306 304" fill="none" xmlns="http://www.w3.org/2000/svg" xmlns:xlink="http://www.w3.org/1999/xlink">
<g opacity="0.3">
<path d="M297.556,63.652C297.556,79.116 275.02,46.652 259.556,46.652C244.092,46.652 211.556,62.116 211.556,46.652C211.556,31.188 250.092,14.652 265.556,14.652C281.02,14.652 297.556,48.188 297.556,63.652Z" transform="rotate(43.11 254.556 41.24)" fill="#03A9F4"/>
</g>
<g opacity="0.1">
<circle cx="260" cy="292" r="12" fill="#03A9F4"/>
</g>
<g opacity="0.1">
<circle cx="240" cy="74" r="12" fill="#03A9F4"/>
</g>
<g opacity="0.1">
<circle cx="12" cy="150" r="12" fill="#03A9F4"/>
</g>
<rect  x="169.485" y="79.188" width="129.102" height="172.136" rx="36" transform="rotate(60 169.485 79.188)" fill="#FFEBCC"/>
<g opacity="0.1">
<circle cx="84" cy="260" r="22" fill="#03A9F4"/>
</g>
<rect  x="78" y="90" width="144" height="192" rx="36" fill="#FFB237"/>
<g opacity="0.1">
<circle cx="195" cy="121" r="35" fill="#301008"/>
</g>
<circle cx="203" cy="111" r="35" fill="#FFF6F4"/>
<path d="M212.121,97.287C212.121,96.182 211.226,95.287 210.121,95.287C209.017,95.287 208.121,96.182 208.121,97.287L212.121,97.287ZM210.121,118.756L210.121,120.756L212.121,120.756L212.121,118.756L210.121,118.756ZM197.29,116.756C196.186,116.756 195.29,117.652 195.29,118.756C195.29,119.861 196.186,120.756 197.29,120.756L197.29,116.756ZM208.121,97.287L208.121,118.756L212.121,118.756L212.121,97.287L208.121,97.287ZM210.121,116.756L197.29,116.756L197.29,120.756L210.121,120.756L210.121,116.756Z" transform="rotate(90 203.706 108.022)" fill="#39B070"/>
<rect  x="100" y="120" width="38" height="38" rx="10" fill="#FFFFFF"/>
<line x1="104" y1="183" x2="199" y2="183" stroke="#FFFFFF" stroke-width="5" stroke-miterlimit="3.999327"/>
<line x1="104" y1="209" x2="199" y2="209" stroke="#FFFFFF" stroke-width="5" stroke-miterlimit="3.999327"/>
<line x1="104" y1="235" x2="156" y2="235" stroke="#FFFFFF" stroke-width="5" stroke-miterlimit="3.999327"/>
<path d="M236.073,156.537C237.612,153.87 241.461,153.87 243.001,156.537L245.599,161.037C247.138,163.704 245.214,167.037 242.135,167.037L236.939,167.037C233.859,167.037 231.935,163.704 233.475,161.037L236.073,156.537Z" transform="rotate(84.274 239.537 161.537)" fill="#FBCBCB"/>
<path d="M49.898,277.812C50.668,276.479 52.592,276.479 53.362,277.812L55.802,282.039C56.572,283.372 55.61,285.039 54.07,285.039L49.19,285.039C47.65,285.039 46.688,283.372 47.458,282.039L49.898,277.812Z" transform="rotate(84.274 51.63 281.63)" fill="#FBCBCB"/>
<path d="M87.898,67.812C88.668,66.479 90.592,66.479 91.362,67.812L93.802,72.039C94.572,73.372 93.61,75.039 92.07,75.039L87.19,75.039C85.65,75.039 84.688,73.372 85.458,72.039L87.898,67.812Z" transform="rotate(84.274 89.63 71.63)" fill="#FBCBCB"/>
</svg>
