<svg width="312" height="354" viewBox="0 0 312 354" fill="none" xmlns="http://www.w3.org/2000/svg" xmlns:xlink="http://www.w3.org/1999/xlink">
<rect  x="38" y="10" width="142" height="186" rx="32" transform="rotate(0 38 10)" fill="#FF9228"/>
<g opacity="0.2">
<rect  x="107.093" y="0" width="142" height="186" rx="32" transform="rotate(50.33 107.093 0)" fill="#FF9228"/>
</g>
<rect  x="58" y="34" width="42" height="42" rx="12" transform="rotate(0 58 34)" fill="#FFFFFF"/>
<line x1="64" y1="101" x2="154" y2="101" stroke="#FFFFFF" stroke-width="5" stroke-miterlimit="3.999327" stroke-linecap="square"/>
<line x1="64" y1="131" x2="154" y2="131" stroke="#FFFFFF" stroke-width="5" stroke-miterlimit="3.999327" stroke-linecap="square"/>
<line x1="64" y1="161" x2="120" y2="161" stroke="#FFFFFF" stroke-width="5" stroke-miterlimit="3.999327" stroke-linecap="square"/>
<circle cx="167.904" cy="196.544" r="52.61" transform="rotate(57.302 167.904 196.544)" fill="#423273" stroke="#8A7AB8" stroke-width="8" stroke-miterlimit="3.999327"/>
<path d="M146.551,235.269C146.551,230.851 142.97,227.269 138.551,227.269C134.133,227.269 130.551,230.851 130.551,235.269L146.551,235.269ZM130.551,267.454C130.551,271.873 134.133,275.454 138.551,275.454C142.97,275.454 146.551,271.873 146.551,267.454L130.551,267.454ZM130.551,235.269L130.551,267.454L146.551,267.454L146.551,235.269L130.551,235.269Z" transform="rotate(57.302 138.551 251.362)" fill="#8A7AB8"/>
<path d="M130.165,240.916L145.019,279.904L115.31,279.904L130.165,240.916Z" transform="rotate(55.911 130.165 266.908)" fill="#8A7AB8"/>
<path d="M92.882,284.562L122.287,284.562L122.287,315.654C122.287,323.774 115.705,330.357 107.585,330.357L107.585,330.357C99.465,330.357 92.882,323.774 92.882,315.654L92.882,284.562Z" transform="rotate(55.911 107.585 307.46)" fill="#3F2787"/>
<path d="M173.15,182.529C173.15,179.768 170.912,177.529 168.15,177.529C165.389,177.529 163.15,179.768 163.15,182.529L173.15,182.529ZM163.15,212.239C163.15,215 165.389,217.239 168.15,217.239C170.912,217.239 173.15,215 173.15,212.239L163.15,212.239ZM163.15,182.529L163.15,212.239L173.15,212.239L173.15,182.529L163.15,182.529Z" transform="rotate(87.302 168.15 197.384)" fill="#FFFFFF"/>
<path d="M173.151,182.529C173.151,179.767 170.913,177.529 168.151,177.529C165.39,177.529 163.151,179.767 163.151,182.529L173.151,182.529ZM163.151,212.238C163.151,215 165.39,217.238 168.151,217.238C170.913,217.238 173.151,215 173.151,212.238L163.151,212.238ZM163.151,182.529L163.151,212.238L173.151,212.238L173.151,182.529L163.151,182.529Z" transform="rotate(-92.698 168.151 197.384)" fill="#FFFFFF"/>
<g opacity="0.1">
<circle cx="221.16" cy="116.546" r="8.408" transform="rotate(0 221.16 116.546)" fill="#27308C"/>
</g>
<g opacity="0.2">
<circle cx="76.549" cy="348.596" r="5.045" transform="rotate(0 76.549 348.596)" fill="#27308C"/>
</g>
<path d="M22.929,68.402C26.008,63.069 33.706,63.069 36.785,68.402L41.86,77.192C44.939,82.525 41.09,89.192 34.932,89.192L24.782,89.192C18.624,89.192 14.775,82.525 17.854,77.192L22.929,68.402Z" transform="rotate(-103.753 29.857 78.262)" fill="#FF9E87"/>
<path d="M12.926,233.751C15.647,229.039 22.448,229.039 25.169,233.751L25.169,233.751C27.889,238.464 24.489,244.354 19.048,244.354L19.048,244.354C13.606,244.354 10.206,238.464 12.926,233.751L12.926,233.751Z" transform="rotate(-103.753 19.048 237.286)" fill="#FF9E87"/>
<path d="M261.305,188.627C266.595,179.463 279.821,179.463 285.111,188.627L285.111,188.627C290.402,197.79 283.789,209.243 273.208,209.243L273.208,209.243C262.628,209.243 256.015,197.79 261.305,188.627L261.305,188.627Z" transform="rotate(-103.753 273.208 195.499)" fill="#FF9E87"/>
<g opacity="0.2">
<path d="M200.771,284.919C203.85,279.585 211.548,279.585 214.628,284.919L219.702,293.708C222.781,299.042 218.932,305.708 212.774,305.708L202.625,305.708C196.466,305.708 192.617,299.042 195.697,293.708L200.771,284.919Z" transform="rotate(-149.081 207.699 294.779)" fill="#FF9E87"/>
</g>
<g opacity="0.3">
<path d="M290.625,65.589C290.625,78.59 271.678,51.296 258.676,51.296C245.675,51.296 218.32,64.297 218.32,51.296C218.32,38.294 250.72,24.392 263.721,24.392C276.722,24.392 290.625,52.587 290.625,65.589Z" transform="rotate(67.98 254.473 46.746)" fill="#03A9F4"/>
</g>
</svg>
