<svg width="52" height="48" viewBox="0 0 52 48" fill="none" xmlns="http://www.w3.org/2000/svg" xmlns:xlink="http://www.w3.org/1999/xlink">
<path d="M12.612,16.9C11.756,10.05 17.097,4 24,4L24,4C30.903,4 36.244,10.05 35.388,16.9L35.196,18.431C35.067,19.461 35.191,20.508 35.555,21.481L38.973,30.596C39.954,33.211 38.021,36 35.228,36L12.772,36C9.979,36 8.046,33.211 9.027,30.596L12.445,21.481C12.809,20.508 12.933,19.461 12.804,18.431L12.612,16.9Z" stroke="#3B4657" stroke-width="1.5" stroke-miterlimit="3.999327"/>
<circle cx="24" cy="41" r="3" fill="#3B4657"/>
<path d="M4.139,19.31C3.31,19.31 2.638,19.981 2.637,20.809C2.636,21.637 3.307,22.31 4.136,22.31L4.139,19.31ZM47.12,22.351C47.948,22.351 48.621,21.681 48.621,20.852C48.622,20.024 47.951,19.351 47.123,19.351L47.12,22.351ZM4.136,22.31L47.12,22.351L47.123,19.351L4.139,19.31L4.136,22.31Z" transform="rotate(90 25.629 20.831)" fill="#3B4657"/>
<path d="M6.411,17.314C5.582,17.314 4.911,17.986 4.911,18.814C4.911,19.643 5.582,20.314 6.411,20.314L6.411,17.314ZM49.273,20.314C50.102,20.314 50.773,19.643 50.773,18.814C50.773,17.986 50.102,17.314 49.273,17.314L49.273,20.314ZM6.411,20.314L49.273,20.314L49.273,17.314L6.411,17.314L6.411,20.314Z" transform="rotate(90 27.842 18.814)" fill="#FFFFFF"/>
</svg>
