<svg width="88" height="88" viewBox="0 0 88 88" fill="none" xmlns="http://www.w3.org/2000/svg" xmlns:xlink="http://www.w3.org/1999/xlink">
<path d="M11.008,12C11.008,5.373 16.38,0 23.008,0L52,0L77.002,26L77.002,76C77.002,82.627 71.629,88 65.002,88L23.008,88C16.38,88 11.008,82.627 11.008,76L11.008,12Z" fill="#FF464B"/>
<path d="M52,26L52,0L77,26L52,26Z" fill="#FF8689"/>
<path d="M30.484,53.1Q33.2,53.1 34.552,54.282Q35.904,55.462 35.904,57.64Q35.904,58.618 35.626,59.516Q35.348,60.414 34.718,61.118Q34.088,61.82 33.048,62.23Q32.008,62.64 30.484,62.64L29.4,62.64L29.4,67.376L25.542,67.376L25.542,53.1L30.484,53.1M30.396,56.214L29.4,56.214L29.4,59.496L30.162,59.496Q30.66,59.496 31.09,59.326Q31.52,59.154 31.778,58.768Q32.038,58.382 32.038,57.738Q32.038,57.064 31.636,56.64Q31.236,56.214 30.396,56.214ZM49.898,59.936Q49.898,62.426 48.972,64.076Q48.044,65.726 46.358,66.552Q44.674,67.376 42.398,67.376L37.78,67.376L37.78,53.1L42.722,53.1Q45.026,53.1 46.628,53.89Q48.228,54.682 49.064,56.206Q49.898,57.728 49.898,59.936M45.894,60.072Q45.894,58.774 45.548,57.918Q45.202,57.064 44.508,56.64Q43.814,56.214 42.76,56.214L41.638,56.214L41.638,64.212L42.496,64.212Q44.254,64.212 45.074,63.192Q45.894,62.172 45.894,60.072ZM54.128,67.376L52.468,67.376L52.468,53.1L60.416,53.1L60.416,54.564L54.128,54.564L54.128,59.798L60.036,59.798L60.036,61.254L54.128,61.254L54.128,67.376Z" fill="#FFFFFF"/>
</svg>
