<svg width="40" height="36" viewBox="0 0 40 36" fill="none" xmlns="http://www.w3.org/2000/svg" xmlns:xlink="http://www.w3.org/1999/xlink">
<path d="M0,5.023C0,1.71 2.686,-0.977 6,-0.977L34,-0.977C37.314,-0.977 40,1.71 40,5.023L40,23.023C40,26.337 37.314,29.023 34,29.023L26.414,29.023C26.149,29.023 25.895,29.129 25.707,29.316L20.707,34.316C20.317,34.707 19.683,34.707 19.293,34.316L14.293,29.316C14.105,29.129 13.851,29.023 13.586,29.023L6,29.023C2.686,29.023 0,26.337 0,23.023L0,5.023Z" stroke="#FF9228" stroke-width="1.5" stroke-miterlimit="3.999327"/>
</svg>
