<svg width="18" height="18" viewBox="0 0 18 18" fill="none" xmlns="http://www.w3.org/2000/svg" xmlns:xlink="http://www.w3.org/1999/xlink">
<path d="M16.571,0.929C16.571,0.101 15.899,-0.571 15.071,-0.571C14.243,-0.571 13.571,0.101 13.571,0.929L16.571,0.929ZM15.071,15.071L15.071,16.571L16.571,16.571L16.571,15.071L15.071,15.071ZM0.929,13.571C0.101,13.571 -0.571,14.243 -0.571,15.071C-0.571,15.9 0.101,16.571 0.929,16.571L0.929,13.571ZM13.571,0.929L13.571,15.071L16.571,15.071L16.571,0.929L13.571,0.929ZM15.071,13.571L0.929,13.571L0.929,16.571L15.071,16.571L15.071,13.571Z" transform="rotate(-90 8 8)" fill="#150B3D"/>
</svg>
