<svg width="16" height="24" viewBox="0 0 16 24" fill="none" xmlns="http://www.w3.org/2000/svg" xmlns:xlink="http://www.w3.org/1999/xlink">
<path d="M14.043,1.147C14.043,0.319 13.371,-0.353 12.543,-0.353C11.714,-0.353 11.043,0.319 11.043,1.147L14.043,1.147ZM12.543,20.626L12.543,22.126L14.043,22.126L14.043,20.626L12.543,20.626ZM1.23,19.126C0.401,19.126 -0.27,19.798 -0.27,20.626C-0.27,21.454 0.401,22.126 1.23,22.126L1.23,19.126ZM11.043,1.147L11.043,20.626L14.043,20.626L14.043,1.147L11.043,1.147ZM12.543,19.126L1.23,19.126L1.23,22.126L12.543,22.126L12.543,19.126Z" transform="rotate(90 6.886 10.887)" fill="#150B3D"/>
</svg>
