<svg width="18" height="18" viewBox="0 0 18 18" fill="none" xmlns="http://www.w3.org/2000/svg" xmlns:xlink="http://www.w3.org/1999/xlink">
<path d="M16.572,0.929C16.572,0.101 15.9,-0.571 15.072,-0.571C14.244,-0.571 13.572,0.101 13.572,0.929L16.572,0.929ZM15.072,15.071L15.072,16.571L16.572,16.571L16.572,15.071L15.072,15.071ZM0.93,13.571C0.102,13.571 -0.57,14.243 -0.57,15.071C-0.57,15.9 0.102,16.571 0.93,16.571L0.93,13.571ZM13.572,0.929L13.572,15.071L16.572,15.071L16.572,0.929L13.572,0.929ZM15.072,13.571L0.93,13.571L0.93,16.571L15.072,16.571L15.072,13.571Z" transform="rotate(-90 8.001 8)" fill="#150B3D"/>
</svg>
