<svg width="14" height="20" viewBox="0 0 14 20" fill="none" xmlns="http://www.w3.org/2000/svg" xmlns:xlink="http://www.w3.org/1999/xlink">
<path d="M12.657,0.893C12.657,0.065 11.985,-0.607 11.157,-0.607C10.328,-0.607 9.657,0.065 9.657,0.893L12.657,0.893ZM8.902,18.403L9.093,16.915L9.093,16.915L8.902,18.403ZM1.448,15.933C0.627,15.828 -0.125,16.408 -0.231,17.23C-0.336,18.052 0.244,18.803 1.066,18.909L1.448,15.933ZM9.657,0.893L9.657,16.419L12.657,16.419L12.657,0.893L9.657,0.893ZM9.093,16.915L1.448,15.933L1.066,18.909L8.711,19.891L9.093,16.915ZM9.657,16.419C9.657,16.721 9.392,16.953 9.093,16.915L8.711,19.891C10.804,20.159 12.657,18.529 12.657,16.419L9.657,16.419Z" transform="rotate(90 6.207 9.793)" fill="#898989"/>
</svg>
