<svg width="48" height="20" viewBox="0 0 48 20" fill="none" xmlns="http://www.w3.org/2000/svg" xmlns:xlink="http://www.w3.org/1999/xlink">
<path d="M0.831,3.987C0.831,1.778 2.622,-0.013 4.831,-0.013L11.907,-0.013C14.116,-0.013 15.907,1.778 15.907,3.987L15.907,7.947C15.907,8.039 15.972,8.12 16.062,8.142C22.341,9.633 25.546,9.691 31.987,8.142C32.076,8.121 32.141,8.04 32.141,7.947L32.141,3.987C32.141,1.778 33.932,-0.013 36.141,-0.013L43.217,-0.013C45.426,-0.013 47.217,1.778 47.217,3.987L47.217,7.723C47.217,11.51 45.101,15.055 41.518,16.283C30.476,20.067 17.572,20.067 6.53,16.283C2.947,15.055 0.831,11.51 0.831,7.723L0.831,3.987Z" transform="rotate(90 24.024 9.554)" stroke="#FF9228" stroke-width="1.5" stroke-miterlimit="3.999327"/>
</svg>
