<svg width="12" height="18" viewBox="0 0 12 18" fill="none" xmlns="http://www.w3.org/2000/svg" xmlns:xlink="http://www.w3.org/1999/xlink">
<path d="M11.912,0.999C11.912,0.171 11.241,-0.501 10.412,-0.501C9.584,-0.501 8.912,0.171 8.912,0.999L11.912,0.999ZM1.728,13.641C0.9,13.641 0.228,14.313 0.228,15.141C0.228,15.97 0.9,16.641 1.728,16.641L1.728,13.641ZM8.912,0.999L8.912,13.141L11.912,13.141L11.912,0.999L8.912,0.999ZM8.412,13.641L1.728,13.641L1.728,16.641L8.412,16.641L8.412,13.641ZM8.912,13.141C8.912,13.418 8.688,13.641 8.412,13.641L8.412,16.641C10.345,16.641 11.912,15.074 11.912,13.141L8.912,13.141Z" transform="rotate(90 6.07 8.07)" fill="#FF9228"/>
</svg>
