<svg width="40" height="42" viewBox="0 0 40 42" fill="none" xmlns="http://www.w3.org/2000/svg" xmlns:xlink="http://www.w3.org/1999/xlink">
<path d="M35.333,37.023L35.333,26.443C35.333,26.38 35.384,26.33 35.447,26.33C37.962,26.33 40,24.291 40,21.777L40,21.675C40,20.471 39.534,19.314 38.699,18.447L22.897,2.033C21.318,0.392 18.689,0.399 17.119,2.049L1.243,18.719C0.445,19.556 0,20.669 0,21.825C0,24.313 2.017,26.33 4.504,26.33L4.553,26.33C4.616,26.33 4.667,26.38 4.667,26.443L4.667,37.023C4.667,39.233 6.458,41.023 8.667,41.023L15.667,41.023C16.219,41.023 16.667,40.576 16.667,40.023L16.667,31.227C16.667,30.123 17.562,29.227 18.667,29.227L21.333,29.227C22.438,29.227 23.333,30.123 23.333,31.227L23.333,40.023C23.333,40.576 23.781,41.023 24.333,41.023L31.333,41.023C33.542,41.023 35.333,39.233 35.333,37.023Z" stroke="#7551FF" stroke-width="1.5" stroke-miterlimit="3.999327"/>
</svg>
