<svg width="48" height="48" viewBox="0 0 48 48" fill="none" xmlns="http://www.w3.org/2000/svg" xmlns:xlink="http://www.w3.org/1999/xlink">
<path d="M25.5,7.03C25.5,6.201 24.829,5.53 24,5.53C23.172,5.53 22.5,6.201 22.5,7.03L25.5,7.03ZM22.5,40.97C22.5,41.798 23.172,42.47 24,42.47C24.829,42.47 25.5,41.798 25.5,40.97L22.5,40.97ZM22.5,7.03L22.5,40.97L25.5,40.97L25.5,7.03L22.5,7.03Z" transform="rotate(90 24 24)" fill="#150A33"/>
<path d="M25.5,7.03C25.5,6.202 24.829,5.53 24,5.53C23.172,5.53 22.5,6.202 22.5,7.03L25.5,7.03ZM22.5,40.97C22.5,41.799 23.172,42.47 24,42.47C24.829,42.47 25.5,41.799 25.5,40.97L22.5,40.97ZM22.5,7.03L22.5,40.97L25.5,40.97L25.5,7.03L22.5,7.03Z" transform="rotate(270 24 24)" fill="#150A33"/>
</svg>
