<svg width="48" height="48" viewBox="0 0 48 48" fill="none" xmlns="http://www.w3.org/2000/svg" xmlns:xlink="http://www.w3.org/1999/xlink">
<path d="M25.5,14.001C25.5,13.172 24.829,12.501 24,12.501C23.172,12.501 22.5,13.172 22.5,14.001L25.5,14.001ZM22.5,34.001C22.5,34.829 23.172,35.501 24,35.501C24.829,35.501 25.5,34.829 25.5,34.001L22.5,34.001ZM22.5,14.001L22.5,34.001L25.5,34.001L25.5,14.001L22.5,14.001Z" transform="rotate(90 24 24.001)" fill="#FFFFFF"/>
<path d="M25.5,13.999C25.5,13.171 24.829,12.499 24,12.499C23.172,12.499 22.5,13.171 22.5,13.999L25.5,13.999ZM22.5,33.999C22.5,34.828 23.172,35.499 24,35.499C24.829,35.499 25.5,34.828 25.5,33.999L22.5,33.999ZM22.5,13.999L22.5,33.999L25.5,33.999L25.5,13.999L22.5,13.999Z" transform="rotate(270 24 23.999)" fill="#FFFFFF"/>
</svg>
