<svg width="48" height="48" viewBox="0 0 48 48" fill="none" xmlns="http://www.w3.org/2000/svg" xmlns:xlink="http://www.w3.org/1999/xlink">
<path d="M25.5,14C25.5,13.171 24.829,12.5 24,12.5C23.172,12.5 22.5,13.171 22.5,14L25.5,14ZM22.5,34C22.5,34.828 23.172,35.5 24,35.5C24.829,35.5 25.5,34.828 25.5,34L22.5,34ZM22.5,14L22.5,34L25.5,34L25.5,14L22.5,14Z" transform="rotate(90 24 24)" fill="#150A33"/>
<path d="M25.5,14C25.5,13.172 24.829,12.5 24,12.5C23.172,12.5 22.5,13.172 22.5,14L25.5,14ZM22.5,34C22.5,34.829 23.172,35.5 24,35.5C24.829,35.5 25.5,34.829 25.5,34L22.5,34ZM22.5,14L22.5,34L25.5,34L25.5,14L22.5,14Z" transform="rotate(270 24 24)" fill="#150A33"/>
</svg>
