<svg width="250" height="218" viewBox="0 0 250 218" fill="none" xmlns="http://www.w3.org/2000/svg" xmlns:xlink="http://www.w3.org/1999/xlink">
<path d="M12.063,74.288L0.009,67.523C-0.154,60.285 1.459,53.118 4.708,46.642C7.487,59.21 22.113,65.19 28.861,76.163C30.94,79.602 32.215,83.462 32.592,87.459C32.969,91.455 32.439,95.485 31.041,99.249L31.834,108.994C25.604,107.135 19.852,103.952 14.976,99.665C10.099,95.377 6.213,90.088 3.586,84.16C2.145,80.82 1.132,77.313 0.571,73.721C6.191,74.317 12.063,74.288 12.063,74.288Z" fill="#F2F2F2"/>
<path d="M228.76,197.356L229.13,189.075C232.983,187.023 237.281,185.939 241.65,185.917C235.637,190.816 236.389,200.258 232.312,206.845C231.024,208.89 229.292,210.62 227.242,211.906C225.193,213.193 222.879,214.004 220.472,214.279L215.44,217.349C214.749,213.513 214.901,209.574 215.886,205.803C216.87,202.032 218.664,198.519 221.142,195.505C222.55,193.828 224.163,192.334 225.945,191.058C227.15,194.225 228.76,197.356 228.76,197.356Z" fill="#E6E6E6"/>
<path d="M215.795,213.087L211.238,213.087L209.07,195.576L215.795,195.576L215.795,213.087Z" fill="#FFB6B6"/>
<path d="M216.957,217.488L202.265,217.487L202.265,217.302C202.265,215.791 202.867,214.342 203.94,213.273C205.012,212.205 206.467,211.605 207.983,211.604L207.984,211.604L210.667,209.576L215.674,211.605L216.957,211.605L216.957,217.488Z" fill="#2F2E41"/>
<path d="M194.626,213.087L190.069,213.087L187.902,195.576L194.627,195.576L194.626,213.087Z" fill="#FFB6B6"/>
<path d="M195.788,217.488L181.096,217.487L181.096,217.302C181.096,215.791 181.698,214.342 182.771,213.273C183.843,212.205 185.298,211.605 186.814,211.604L186.815,211.604L189.498,209.576L194.506,211.605L195.788,211.605L195.788,217.488Z" fill="#2F2E41"/>
<path d="M192.654,117.354L222.291,118.092C227.92,121.138 228.006,127.731 226.161,135.558C226.161,135.558 226.784,140.211 225.539,141.452C224.294,142.692 223.671,142.692 224.294,144.864C224.916,147.035 221.627,150.581 222.026,150.979C222.426,151.377 223.36,153.548 223.36,153.548L220.247,171.228C220.247,171.228 218.068,201.935 217.445,202.555C216.822,203.175 216.2,202.555 216.822,204.106C217.445,205.657 218.068,205.036 217.445,205.657C216.893,206.249 216.374,206.87 215.888,207.518L208.362,207.518C208.362,207.518 207.794,204.416 207.794,204.106C207.794,203.796 207.172,201.935 207.172,201.624C207.172,201.314 207.722,200.766 207.722,200.766C207.912,200.135 208.041,199.488 208.106,198.833C208.106,198.212 209.974,174.33 209.974,174.33L206.238,143.313L197.21,173.709C197.21,173.709 197.21,200.384 196.587,201.004C195.965,201.624 195.965,201.314 196.276,202.555C196.587,203.796 197.833,203.485 196.899,204.416C195.965,205.346 195.653,203.796 195.965,205.346L196.276,206.897L186.937,207.03C186.937,207.03 185.692,204.416 186.314,203.485C186.937,202.555 186.9,202.809 186.14,201.286C185.38,199.763 185.069,199.453 185.38,199.143C185.692,198.833 185.692,197.183 185.692,197.183L187.248,167.506C187.248,167.506 187.56,136.179 187.56,135.248C187.583,134.769 187.494,134.292 187.301,133.853L187.301,132.59L188.493,128.114L192.654,117.354Z" fill="#69687F"/>
<path d="M210.457,55.952C215.543,55.952 219.666,51.844 219.666,46.777C219.666,41.71 215.543,37.602 210.457,37.602C205.371,37.602 201.249,41.71 201.249,46.777C201.249,51.844 205.371,55.952 210.457,55.952Z" fill="#FFB6B6"/>
<path d="M205.853,62.016C203.869,63.191 202.682,65.35 202.001,67.547C200.74,71.615 199.981,75.82 199.74,80.071L199.021,92.796L190.109,119.892C197.833,126.403 226.864,121.372 226.864,121.372C226.864,121.372 227.755,121.076 226.864,120.188C225.972,119.3 225.105,120.087 225.996,119.199C226.887,118.311 226.273,119.3 225.976,118.412C225.679,117.524 225.976,118.116 226.273,117.82C226.57,117.524 223.973,114.861 223.973,114.861L226.35,99.307L229.32,67.935C225.755,63.495 218.587,60.878 218.587,60.878L216.734,57.556L207.472,58.295L205.853,62.016Z" fill="#130160"/>
<path d="M204.59,41.392C204.946,41.395 205.301,41.441 205.646,41.53C206.326,41.693 207.017,41.809 207.713,41.876C209.845,42.075 211.848,42.981 213.402,44.448C214.957,45.916 215.973,47.859 216.288,49.97C216.824,49.505 218.041,48.65 219.039,49.444C219.054,49.457 219.063,49.463 219.098,49.447C219.761,49.134 220.938,45.278 220.973,41.883C220.992,40.081 220.707,37.78 219.245,37.051L219.168,37.013L219.147,36.929C219.05,36.524 217.958,35.832 216.06,35.293C212.612,34.315 207.471,32.408 204.576,35.214C204.357,36.16 203.645,38.184 202.925,38.413C202.127,38.667 201.439,38.886 201.33,39.861C201.24,41.247 201.246,42.639 201.35,44.024C201.62,43.176 202.151,42.434 202.866,41.902C203.375,41.561 203.977,41.383 204.59,41.392L204.59,41.392Z" fill="#2F2E41"/>
<path d="M187.45,92.088L202.492,82.49L194.916,72.455L187.435,81.624L164.125,83.048C163.512,82.445 162.736,82.031 161.892,81.86C161.047,81.688 160.17,81.764 159.369,82.08C158.567,82.396 157.875,82.938 157.377,83.639C156.879,84.34 156.596,85.17 156.563,86.028C156.531,86.886 156.749,87.736 157.192,88.472C157.636,89.209 158.285,89.801 159.06,90.177C159.835,90.552 160.704,90.695 161.559,90.587C162.414,90.48 163.219,90.127 163.877,89.571L187.45,92.088Z" fill="#FFB6B6"/>
<path d="M216.454,69.092C217.327,74.356 200.84,84.409 200.84,84.409C200.84,83.173 191,92.501 190.556,91.476C189.293,88.564 188.406,81.666 186.642,80.562C185.633,79.93 192.717,73.998 192.717,73.998C192.717,73.998 196.425,70.276 201.292,65.581C202.643,64.229 204.315,63.239 206.154,62.703C207.992,62.168 209.937,62.104 211.806,62.519C211.806,62.519 215.581,63.828 216.454,69.092Z" fill="#130160"/>
<path d="M247.458,94.607L237.508,79.826L227.6,87.586L236.958,94.844L238.881,118.033C238.288,118.656 237.89,119.438 237.736,120.283C237.581,121.128 237.677,122 238.011,122.792C238.344,123.583 238.902,124.261 239.616,124.743C240.33,125.224 241.17,125.488 242.031,125.503C242.893,125.517 243.741,125.281 244.471,124.824C245.201,124.367 245.781,123.708 246.141,122.928C246.502,122.147 246.627,121.28 246.501,120.43C246.375,119.58 246.003,118.785 245.432,118.142L247.458,94.607Z" fill="#FFB6B6"/>
<path d="M223.769,66.203C229.033,65.222 239.469,81.432 239.469,81.432C238.229,81.458 247.798,91.063 246.779,91.527C243.883,92.846 236.98,93.876 235.909,95.657C235.297,96.675 229.195,89.744 229.195,89.744C229.195,89.744 225.381,86.129 220.567,81.381C219.181,80.064 218.152,78.419 217.576,76.599C217,74.779 216.895,72.843 217.272,70.972C217.272,70.972 218.505,67.184 223.769,66.203Z" fill="#130160"/>
<path d="M250,217.561C250,217.619 249.989,217.676 249.967,217.729C249.945,217.783 249.912,217.831 249.871,217.872C249.83,217.913 249.782,217.945 249.728,217.967C249.675,217.989 249.617,218 249.559,218L145.72,218C145.603,218 145.491,217.954 145.408,217.871C145.326,217.789 145.279,217.677 145.279,217.561C145.279,217.444 145.326,217.333 145.408,217.25C145.491,217.168 145.603,217.122 145.72,217.122L249.559,217.122C249.617,217.121 249.675,217.133 249.728,217.155C249.782,217.177 249.83,217.209 249.871,217.25C249.912,217.291 249.945,217.339 249.967,217.393C249.989,217.446 250,217.503 250,217.561Z" fill="#130160"/>
<path d="M153.805,84.451L27.782,84.451C25.813,84.453 23.926,85.234 22.534,86.621C21.141,88.008 20.358,89.889 20.356,91.85L20.356,170.025C20.358,171.987 21.141,173.867 22.534,175.255C23.926,176.642 25.813,177.422 27.782,177.424L153.805,177.424C155.774,177.422 157.662,176.642 159.054,175.255C160.446,173.868 161.229,171.987 161.232,170.025L161.232,91.85C161.229,89.889 160.446,88.008 159.054,86.621C157.662,85.234 155.774,84.453 153.805,84.451Z" fill="#FCA34D"/>
<path d="M153.805,84.451L27.782,84.451C25.813,84.453 23.926,85.234 22.534,86.621C21.141,88.008 20.358,89.889 20.356,91.85L20.356,170.025C20.358,171.987 21.141,173.867 22.534,175.255C23.926,176.642 25.813,177.422 27.782,177.424L153.805,177.424C155.774,177.422 157.662,176.642 159.054,175.255C160.446,173.868 161.229,171.987 161.232,170.025L161.232,91.85C161.229,89.889 160.446,88.008 159.054,86.621C157.662,85.234 155.774,84.453 153.805,84.451ZM156.242,140.605C156.212,148.564 153.053,156.194 147.441,161.858C141.83,167.522 134.214,170.77 126.227,170.904C113.44,171.069 133.303,171.134 117.88,171.134C82.614,171.134 45.841,170.798 32.121,170.581C30.316,170.543 28.597,169.805 27.331,168.522C26.065,167.239 25.352,165.514 25.345,163.715L25.345,91.856C25.346,91.212 25.603,90.594 26.059,90.138C26.516,89.682 27.135,89.425 27.782,89.423L153.8,89.423C154.447,89.423 155.066,89.679 155.524,90.134C155.982,90.589 156.24,91.206 156.242,91.85L156.242,140.605Z" fill="#130160"/>
<path d="M138.292,39.436L42.276,39.436C41.426,39.437 40.598,39.699 39.904,40.187C39.209,40.675 38.683,41.364 38.397,42.161L23.568,83.613C23.346,84.232 23.277,84.894 23.366,85.545C23.455,86.196 23.7,86.816 24.08,87.353C24.459,87.89 24.963,88.328 25.547,88.631C26.132,88.934 26.782,89.093 27.441,89.094L156.214,89.321L156.22,89.321C156.902,89.321 157.572,89.153 158.173,88.831C158.773,88.509 159.283,88.044 159.658,87.477C160.033,86.91 160.261,86.259 160.322,85.583C160.383,84.907 160.274,84.226 160.005,83.602L159.781,83.698L160.005,83.602L142.077,41.922C141.76,41.184 141.233,40.555 140.56,40.112C139.887,39.67 139.098,39.435 138.292,39.436L138.292,39.436Z" fill="#130160"/>
<path d="M160.339,84.502C160.338,85.058 160.225,85.608 160.005,86.119L142.078,118.202C141.759,118.939 141.231,119.567 140.558,120.008C139.885,120.45 139.098,120.685 138.292,120.687L42.277,120.687C41.427,120.686 40.598,120.424 39.904,119.936C39.209,119.449 38.682,118.759 38.395,117.962L23.568,86.108C23.387,85.6 23.307,85.062 23.334,84.524C23.361,83.986 23.495,83.458 23.727,82.971C23.959,82.485 24.284,82.048 24.686,81.687C25.087,81.326 25.556,81.047 26.065,80.866C26.506,80.708 26.971,80.626 27.44,80.626L43.17,80.597L49.59,80.586L134.072,80.438L140.496,80.427L156.215,80.397L156.219,80.397C157.312,80.398 158.359,80.83 159.132,81.6C159.904,82.37 160.339,83.413 160.339,84.502L160.339,84.502Z" fill="#130160"/>
<path d="M37.23,143.091C39.134,143.091 65.279,144.683 65.279,146.58C65.279,148.477 39.134,149.961 37.23,149.961C36.315,149.961 35.438,149.599 34.792,148.955C34.145,148.311 33.782,147.437 33.782,146.526C33.782,145.615 34.145,144.741 34.792,144.097C35.438,143.453 36.315,143.091 37.23,143.091L37.23,143.091Z" fill="#130160"/>
<path d="M132.313,14.219L51.354,14.219C49.184,14.221 47.104,15.081 45.57,16.609C44.035,18.138 43.172,20.211 43.17,22.372L43.17,120.687L138.292,120.687C139.073,120.689 139.838,120.468 140.496,120.048L140.496,22.372C140.494,20.211 139.631,18.138 138.096,16.609C136.562,15.081 134.482,14.221 132.313,14.219Z" fill="#E6E6E6"/>
<path d="M101.412,20.829L57.044,20.829C55.069,20.831 53.174,21.614 51.777,23.005C50.38,24.397 49.593,26.284 49.59,28.252L49.59,120.687L134.072,120.687L134.072,53.371C134.062,44.743 130.618,36.472 124.495,30.371C118.372,24.271 110.071,20.839 101.412,20.829L101.412,20.829Z" fill="#FFFFFF"/>
<path d="M119.68,112.478L63.983,112.478C63.502,112.478 63.04,112.668 62.7,113.007C62.359,113.346 62.168,113.807 62.168,114.286C62.168,114.766 62.359,115.226 62.7,115.565C63.04,115.904 63.502,116.095 63.983,116.095L119.68,116.095C120.161,116.095 120.623,115.904 120.963,115.565C121.304,115.226 121.495,114.766 121.495,114.286C121.495,113.807 121.304,113.346 120.963,113.007C120.623,112.668 120.161,112.478 119.68,112.478L119.68,112.478Z" fill="#E4E4E4"/>
<path d="M119.68,105.324L63.983,105.324C63.501,105.324 63.039,105.515 62.698,105.854C62.357,106.194 62.166,106.654 62.166,107.134C62.166,107.615 62.357,108.075 62.698,108.415C63.039,108.754 63.501,108.945 63.983,108.945L119.68,108.945C120.162,108.945 120.624,108.754 120.965,108.415C121.305,108.075 121.497,107.615 121.497,107.134C121.497,106.654 121.305,106.194 120.965,105.854C120.624,105.515 120.162,105.324 119.68,105.324L119.68,105.324Z" fill="#E4E4E4"/>
<path d="M88.126,98.174L63.983,98.174C63.501,98.174 63.04,98.365 62.699,98.704C62.359,99.043 62.167,99.503 62.167,99.983C62.167,100.463 62.359,100.923 62.699,101.262C63.04,101.601 63.501,101.792 63.983,101.792L88.126,101.792C88.608,101.792 89.069,101.601 89.41,101.262C89.75,100.923 89.942,100.463 89.942,99.983C89.942,99.503 89.75,99.043 89.41,98.704C89.069,98.365 88.608,98.174 88.126,98.174L88.126,98.174Z" fill="#E4E4E4"/>
<path d="M119.68,83.196L63.983,83.196C63.501,83.196 63.039,83.386 62.698,83.726C62.357,84.065 62.166,84.526 62.166,85.006C62.166,85.486 62.357,85.947 62.698,86.286C63.039,86.626 63.501,86.817 63.983,86.817L119.68,86.817C120.162,86.817 120.624,86.626 120.965,86.286C121.305,85.947 121.497,85.486 121.497,85.006C121.497,84.526 121.305,84.065 120.965,83.726C120.624,83.386 120.162,83.196 119.68,83.196Z" fill="#E4E4E4"/>
<path d="M119.68,76.046L63.983,76.046C63.502,76.046 63.04,76.236 62.7,76.575C62.359,76.915 62.168,77.375 62.168,77.854C62.168,78.334 62.359,78.794 62.7,79.133C63.04,79.472 63.502,79.663 63.983,79.663L119.68,79.663C120.161,79.663 120.623,79.472 120.963,79.133C121.304,78.794 121.495,78.334 121.495,77.854C121.495,77.375 121.304,76.915 120.963,76.575C120.623,76.236 120.161,76.046 119.68,76.046L119.68,76.046Z" fill="#E4E4E4"/>
<path d="M88.127,68.892L63.983,68.892C63.501,68.892 63.039,69.083 62.698,69.422C62.357,69.762 62.166,70.222 62.166,70.703C62.166,71.183 62.357,71.643 62.698,71.983C63.039,72.322 63.501,72.513 63.983,72.513L88.127,72.513C88.609,72.513 89.071,72.322 89.412,71.983C89.752,71.643 89.944,71.183 89.944,70.703C89.944,70.222 89.752,69.762 89.412,69.422C89.071,69.083 88.609,68.892 88.127,68.892Z" fill="#E4E4E4"/>
<path d="M119.68,53.913L63.983,53.913C63.501,53.913 63.039,54.104 62.698,54.444C62.357,54.783 62.166,55.244 62.166,55.724C62.166,56.204 62.357,56.665 62.698,57.004C63.039,57.344 63.501,57.534 63.983,57.534L119.68,57.534C120.162,57.534 120.624,57.344 120.965,57.004C121.305,56.665 121.497,56.204 121.497,55.724C121.497,55.244 121.305,54.783 120.965,54.444C120.624,54.104 120.162,53.913 119.68,53.913Z" fill="#130160"/>
<path d="M119.68,46.764L63.983,46.764C63.501,46.764 63.039,46.954 62.698,47.294C62.357,47.634 62.166,48.094 62.166,48.574C62.166,49.054 62.357,49.515 62.698,49.854C63.039,50.194 63.501,50.385 63.983,50.385L119.68,50.385C120.162,50.385 120.624,50.194 120.965,49.854C121.305,49.515 121.497,49.054 121.497,48.574C121.497,48.094 121.305,47.634 120.965,47.294C120.624,46.954 120.162,46.764 119.68,46.764Z" fill="#130160"/>
<path d="M88.127,39.61L63.983,39.61C63.501,39.61 63.039,39.801 62.698,40.14C62.357,40.48 62.166,40.94 62.166,41.421C62.166,41.901 62.357,42.361 62.698,42.701C63.039,43.04 63.501,43.231 63.983,43.231L88.127,43.231C88.609,43.231 89.071,43.04 89.412,42.701C89.752,42.361 89.944,41.901 89.944,41.421C89.944,40.94 89.752,40.48 89.412,40.14C89.071,39.801 88.609,39.61 88.127,39.61Z" fill="#130160"/>
<path d="M137.461,28.173C145.269,28.173 151.599,21.866 151.599,14.087C151.599,6.307 145.269,0 137.461,0C129.653,0 123.323,6.307 123.323,14.087C123.323,21.866 129.653,28.173 137.461,28.173Z" fill="#FCA34D"/>
<path d="M135.532,21.418C135.288,21.418 135.047,21.361 134.829,21.252C134.611,21.144 134.421,20.986 134.274,20.791L130.417,15.667C130.293,15.502 130.202,15.315 130.15,15.115C130.098,14.916 130.087,14.708 130.116,14.504C130.145,14.3 130.214,14.103 130.319,13.926C130.424,13.748 130.564,13.593 130.729,13.47C130.895,13.346 131.083,13.256 131.284,13.205C131.484,13.154 131.693,13.143 131.897,13.173C132.102,13.202 132.299,13.271 132.477,13.377C132.655,13.482 132.81,13.621 132.933,13.787L135.457,17.139L141.938,7.453C142.169,7.107 142.529,6.867 142.938,6.785C143.347,6.704 143.772,6.788 144.119,7.018C144.466,7.249 144.707,7.607 144.789,8.015C144.871,8.422 144.787,8.845 144.555,9.191L136.841,20.72C136.701,20.929 136.514,21.101 136.294,21.222C136.074,21.343 135.828,21.41 135.576,21.417C135.561,21.418 135.547,21.418 135.532,21.418Z" fill="#FFFFFF"/>
</svg>
