<svg width="278" height="234" viewBox="0 0 278 234" fill="none" xmlns="http://www.w3.org/2000/svg" xmlns:xlink="http://www.w3.org/1999/xlink">
<path d="M13.414,79.74L0.01,72.479C-0.171,64.71 1.622,57.016 5.235,50.066C8.325,63.556 24.589,69.974 32.093,81.753C34.405,85.444 35.822,89.588 36.242,93.878C36.662,98.167 36.072,102.493 34.517,106.534L35.399,116.993C28.471,114.998 22.075,111.581 16.653,106.979C11.23,102.377 6.909,96.7 3.987,90.337C2.385,86.752 1.259,82.987 0.635,79.132C6.884,79.771 13.414,79.74 13.414,79.74Z" fill="#F2F2F2"/>
<path d="M254.382,211.841L254.793,202.952C259.077,200.749 263.857,199.586 268.715,199.563C262.028,204.82 262.864,214.956 258.331,222.026C256.899,224.221 254.972,226.078 252.693,227.459C250.414,228.84 247.841,229.711 245.165,230.006L239.569,233.301C238.801,229.184 238.97,224.956 240.065,220.908C241.16,216.86 243.154,213.089 245.91,209.854C247.475,208.054 249.269,206.45 251.251,205.081C252.591,208.48 254.382,211.841 254.382,211.841Z" fill="#E6E6E6"/>
<path d="M239.964,228.727L234.897,228.726L232.486,209.93L239.965,209.931L239.964,228.727Z" fill="#FFB6B6"/>
<path d="M241.256,233.45L224.918,233.45L224.918,233.251C224.918,231.629 225.588,230.074 226.781,228.927C227.973,227.78 229.591,227.135 231.277,227.135L231.277,227.135L234.262,224.958L239.83,227.136L241.256,227.136L241.256,233.45Z" fill="#2F2E41"/>
<path d="M216.424,228.727L211.357,228.726L208.947,209.93L216.425,209.931L216.424,228.727Z" fill="#FFB6B6"/>
<path d="M217.716,233.45L201.378,233.45L201.378,233.251C201.379,231.629 202.049,230.074 203.241,228.927C204.434,227.78 206.051,227.135 207.737,227.135L207.738,227.135L210.722,224.958L216.29,227.136L217.716,227.136L217.716,233.45Z" fill="#2F2E41"/>
<path d="M214.231,125.967L247.188,126.759C253.447,130.029 253.542,137.105 251.491,145.508C251.491,145.508 252.184,150.502 250.799,151.833C249.414,153.165 248.722,153.165 249.414,155.496C250.107,157.826 246.449,161.633 246.893,162.06C247.337,162.487 248.376,164.818 248.376,164.818L244.914,183.795C244.914,183.795 242.491,216.755 241.798,217.421C241.106,218.087 240.414,217.421 241.106,219.086C241.798,220.75 242.491,220.085 241.798,220.75C241.185,221.386 240.607,222.053 240.068,222.748L231.698,222.748C231.698,222.748 231.067,219.419 231.067,219.086C231.067,218.753 230.375,216.755 230.375,216.422C230.375,216.089 230.987,215.501 230.987,215.501C231.198,214.824 231.341,214.129 231.413,213.426C231.413,212.76 233.49,187.124 233.49,187.124L229.336,153.831L219.297,186.458C219.297,186.458 219.297,215.091 218.605,215.756C217.913,216.422 217.913,216.089 218.259,217.421C218.605,218.753 219.99,218.42 218.951,219.419C217.913,220.418 217.566,218.753 217.913,220.418L218.259,222.082L207.874,222.225C207.874,222.225 206.489,219.419 207.181,218.42C207.874,217.421 207.832,217.694 206.987,216.059C206.143,214.425 205.797,214.092 206.143,213.759C206.489,213.426 206.489,211.655 206.489,211.655L208.22,179.8C208.22,179.8 208.566,146.174 208.566,145.175C208.592,144.661 208.494,144.148 208.278,143.677L208.278,142.321L209.605,137.517L214.231,125.967Z" fill="#69687F"/>
<path d="M234.029,60.058C239.684,60.058 244.268,55.649 244.268,50.21C244.268,44.771 239.684,40.362 234.029,40.362C228.373,40.362 223.789,44.771 223.789,50.21C223.789,55.649 228.373,60.058 234.029,60.058Z" fill="#FFB6B6"/>
<path d="M228.908,66.567C226.702,67.829 225.383,70.146 224.625,72.505C223.223,76.871 222.378,81.385 222.111,85.948L221.311,99.607L211.401,128.692C219.99,135.681 252.272,130.28 252.272,130.28C252.272,130.28 253.263,129.962 252.272,129.009C251.281,128.056 250.316,128.901 251.307,127.948C252.298,126.995 251.615,128.056 251.285,127.103C250.954,126.15 251.285,126.786 251.615,126.468C251.945,126.15 249.058,123.291 249.058,123.291L251.7,106.596L255.004,72.921C251.04,68.156 243.068,65.347 243.068,65.347L241.008,61.781L230.709,62.573L228.908,66.567Z" fill="#130160"/>
<path d="M227.504,44.43C227.9,44.433 228.295,44.483 228.678,44.578C229.435,44.753 230.203,44.877 230.977,44.949C233.347,45.164 235.575,46.136 237.303,47.711C239.032,49.286 240.162,51.372 240.513,53.637C241.108,53.138 242.462,52.22 243.572,53.073C243.588,53.087 243.598,53.094 243.637,53.076C244.374,52.74 245.683,48.601 245.722,44.957C245.743,43.022 245.427,40.552 243.8,39.77L243.714,39.729L243.692,39.64C243.583,39.204 242.369,38.462 240.259,37.884C236.424,36.833 230.708,34.787 227.489,37.798C227.245,38.814 226.453,40.986 225.652,41.233C224.766,41.505 224,41.741 223.88,42.786C223.779,44.275 223.786,45.768 223.901,47.255C224.202,46.345 224.792,45.549 225.587,44.978C226.153,44.611 226.822,44.42 227.504,44.43L227.504,44.43Z" fill="#2F2E41"/>
<path d="M208.445,98.847L225.171,88.544L216.747,77.773L208.428,87.615L182.507,89.143C181.826,88.495 180.963,88.052 180.023,87.867C179.084,87.683 178.109,87.765 177.218,88.104C176.326,88.443 175.557,89.025 175.003,89.777C174.449,90.529 174.135,91.421 174.098,92.342C174.062,93.263 174.305,94.175 174.798,94.966C175.291,95.756 176.013,96.392 176.875,96.795C177.737,97.198 178.702,97.351 179.653,97.236C180.604,97.12 181.5,96.741 182.231,96.145L208.445,98.847Z" fill="#FFB6B6"/>
<path d="M240.696,74.163C241.667,79.814 223.334,90.604 223.334,90.604C223.334,89.278 212.391,99.29 211.898,98.19C210.494,95.064 209.507,87.66 207.545,86.475C206.424,85.797 214.301,79.43 214.301,79.43C214.301,79.43 218.425,75.434 223.836,70.395C225.339,68.943 227.198,67.88 229.243,67.305C231.287,66.731 233.449,66.663 235.528,67.108C235.528,67.108 239.726,68.513 240.696,74.163Z" fill="#130160"/>
<path d="M275.173,101.551L264.109,85.685L253.091,94.014L263.498,101.805L265.636,126.696C264.977,127.365 264.534,128.204 264.362,129.111C264.19,130.018 264.296,130.954 264.668,131.804C265.039,132.654 265.66,133.382 266.454,133.898C267.247,134.415 268.181,134.698 269.139,134.714C270.098,134.729 271.04,134.476 271.852,133.986C272.663,133.495 273.309,132.788 273.709,131.95C274.11,131.112 274.249,130.181 274.109,129.269C273.969,128.357 273.555,127.504 272.92,126.814L275.173,101.551Z" fill="#FFB6B6"/>
<path d="M248.832,71.062C254.685,70.009 266.29,87.409 266.29,87.409C264.911,87.437 275.551,97.746 274.418,98.245C271.198,99.661 263.522,100.766 262.332,102.678C261.651,103.77 254.865,96.331 254.865,96.331C254.865,96.331 250.625,92.45 245.271,87.354C243.73,85.94 242.586,84.174 241.945,82.22C241.304,80.267 241.188,78.189 241.607,76.181C241.607,76.181 242.978,72.115 248.832,71.062Z" fill="#130160"/>
<path d="M278,233.528C278,233.59 277.987,233.652 277.963,233.709C277.938,233.766 277.902,233.818 277.857,233.862C277.811,233.906 277.757,233.941 277.697,233.964C277.638,233.988 277.574,234 277.51,234L162.041,234C161.911,234 161.786,233.95 161.694,233.862C161.602,233.773 161.55,233.653 161.55,233.528C161.55,233.403 161.602,233.283 161.694,233.195C161.786,233.107 161.911,233.057 162.041,233.057L277.51,233.057C277.574,233.057 277.638,233.069 277.697,233.092C277.757,233.116 277.811,233.151 277.857,233.195C277.902,233.238 277.938,233.29 277.963,233.348C277.987,233.405 278,233.466 278,233.528Z" fill="#130160"/>
<path d="M171.031,90.649L30.894,90.649C28.704,90.652 26.605,91.489 25.057,92.978C23.509,94.467 22.638,96.486 22.636,98.592L22.636,182.504C22.638,184.61 23.509,186.628 25.057,188.117C26.605,189.606 28.704,190.444 30.894,190.446L171.031,190.446C173.221,190.444 175.32,189.606 176.868,188.117C178.416,186.628 179.287,184.61 179.289,182.504L179.289,98.592C179.287,96.486 178.416,94.467 176.868,92.978C175.32,91.489 173.221,90.652 171.031,90.649Z" fill="#FCA34D"/>
<path d="M171.031,90.649L30.894,90.649C28.704,90.652 26.605,91.489 25.057,92.978C23.509,94.467 22.638,96.486 22.636,98.592L22.636,182.504C22.638,184.61 23.509,186.628 25.057,188.117C26.605,189.606 28.704,190.444 30.894,190.446L171.031,190.446C173.221,190.444 175.32,189.606 176.868,188.117C178.416,186.628 179.287,184.61 179.29,182.504L179.29,98.592C179.287,96.486 178.416,94.467 176.868,92.978C175.32,91.489 173.221,90.652 171.031,90.649ZM173.741,150.925C173.708,159.467 170.194,167.657 163.955,173.737C157.715,179.817 149.246,183.303 140.365,183.447C126.145,183.625 148.232,183.694 131.083,183.694C91.867,183.694 50.975,183.334 35.718,183.1C33.711,183.06 31.799,182.267 30.392,180.891C28.984,179.514 28.192,177.662 28.184,175.731L28.184,98.598C28.185,97.906 28.47,97.243 28.978,96.754C29.486,96.264 30.174,95.988 30.893,95.986L171.026,95.986C171.745,95.986 172.434,96.261 172.943,96.749C173.452,97.237 173.739,97.9 173.741,98.591L173.741,150.925Z" fill="#130160"/>
<path d="M153.781,42.33L47.011,42.33C46.066,42.331 45.145,42.613 44.373,43.137C43.601,43.66 43.016,44.4 42.697,45.256L26.207,89.75C25.961,90.414 25.884,91.125 25.983,91.824C26.082,92.522 26.354,93.188 26.777,93.764C27.199,94.341 27.758,94.811 28.409,95.136C29.059,95.462 29.781,95.632 30.514,95.633L173.71,95.877L173.717,95.877C174.475,95.877 175.221,95.696 175.888,95.351C176.555,95.005 177.123,94.506 177.54,93.897C177.957,93.289 178.211,92.59 178.278,91.864C178.345,91.138 178.224,90.408 177.926,89.738L177.676,89.841L177.926,89.738L157.99,44.999C157.637,44.207 157.051,43.531 156.302,43.057C155.554,42.582 154.677,42.329 153.781,42.33L153.781,42.33Z" fill="#130160"/>
<path d="M178.296,90.704C178.296,91.301 178.17,91.891 177.926,92.44L157.991,126.878C157.636,127.669 157.048,128.343 156.3,128.817C155.552,129.29 154.676,129.543 153.78,129.545L47.012,129.545C46.067,129.544 45.145,129.262 44.373,128.739C43.6,128.216 43.014,127.476 42.695,126.62L26.208,92.428C26.006,91.883 25.917,91.305 25.948,90.728C25.978,90.15 26.126,89.584 26.384,89.061C26.642,88.539 27.004,88.07 27.451,87.682C27.897,87.295 28.418,86.995 28.985,86.802C29.475,86.631 29.992,86.544 30.513,86.544L48.005,86.512L55.144,86.5L149.088,86.342L156.232,86.33L173.711,86.298L173.715,86.298C174.93,86.299 176.095,86.763 176.954,87.589C177.813,88.415 178.296,89.536 178.296,90.704L178.296,90.704Z" fill="#130160"/>
<path d="M41.399,153.593C43.517,153.593 72.591,155.302 72.591,157.338C72.591,159.374 43.517,160.967 41.399,160.967C40.383,160.967 39.408,160.579 38.689,159.887C37.97,159.196 37.566,158.258 37.566,157.28C37.566,156.302 37.97,155.364 38.689,154.673C39.408,153.981 40.383,153.593 41.399,153.593L41.399,153.593Z" fill="#130160"/>
<path d="M133.084,120.733L71.149,120.733C70.614,120.733 70.1,120.937 69.722,121.301C69.343,121.665 69.13,122.159 69.13,122.674C69.13,123.189 69.343,123.683 69.722,124.047C70.1,124.411 70.614,124.616 71.149,124.616L133.084,124.616C133.619,124.616 134.132,124.411 134.511,124.047C134.889,123.683 135.102,123.189 135.102,122.674C135.102,122.159 134.889,121.665 134.511,121.301C134.132,120.937 133.619,120.733 133.084,120.733L133.084,120.733Z" fill="#E4E4E4"/>
<path d="M101.488,151.784C101.142,151.784 100.8,151.719 100.48,151.592L43.71,128.737L43.71,57.197C43.711,56.564 43.971,55.958 44.432,55.51C44.893,55.063 45.518,54.812 46.17,54.811L155.078,54.811C155.73,54.812 156.355,55.063 156.816,55.51C157.277,55.958 157.536,56.564 157.537,57.197L157.537,128.787L157.43,128.831L102.527,151.581C102.198,151.715 101.845,151.784 101.488,151.784Z" fill="#FFFFFF"/>
<path d="M101.409,128.436C116.859,128.436 129.384,116.227 129.384,101.165C129.384,86.104 116.859,73.895 101.409,73.895C85.959,73.895 73.434,86.104 73.434,101.165C73.434,116.227 85.959,128.436 101.409,128.436Z" fill="#FCA34D"/>
<path d="M97.746,116.12C97.282,116.12 96.824,116.012 96.409,115.803C95.994,115.594 95.633,115.291 95.355,114.917L88.024,105.079C87.787,104.763 87.615,104.404 87.516,104.02C87.418,103.637 87.396,103.238 87.451,102.847C87.506,102.455 87.637,102.078 87.837,101.737C88.038,101.396 88.302,101.099 88.617,100.861C88.932,100.624 89.29,100.451 89.671,100.353C90.052,100.255 90.448,100.234 90.837,100.291C91.226,100.347 91.601,100.48 91.939,100.683C92.276,100.885 92.571,101.153 92.806,101.47L97.602,107.905L109.92,89.31C110.36,88.646 111.044,88.185 111.821,88.028C112.598,87.872 113.406,88.033 114.065,88.475C114.725,88.918 115.183,89.606 115.338,90.388C115.494,91.171 115.334,91.983 114.894,92.647L100.233,114.781C99.968,115.181 99.611,115.512 99.193,115.744C98.774,115.977 98.307,116.106 97.829,116.119C97.801,116.12 97.773,116.12 97.746,116.12Z" fill="#FFFFFF"/>
</svg>
