<svg width="8" height="16" viewBox="0 0 8 16" fill="none" xmlns="http://www.w3.org/2000/svg" xmlns:xlink="http://www.w3.org/1999/xlink">
<path d="M2,10L0.5,10L0.5,10.621L0.939,11.061L2,10ZM3.5,2C3.5,1.172 2.828,0.5 2,0.5C1.172,0.5 0.5,1.172 0.5,2L3.5,2ZM4.939,15.061C5.525,15.646 6.475,15.646 7.061,15.061C7.646,14.475 7.646,13.525 7.061,12.939L4.939,15.061ZM3.5,10L3.5,2L0.5,2L0.5,10L3.5,10ZM0.939,11.061L4.939,15.061L7.061,12.939L3.061,8.939L0.939,11.061Z" transform="rotate(0 4 8)" fill="#AAA6B9"/>
</svg>
