<svg width="12" height="10" viewBox="0 0 12 10" fill="none" xmlns="http://www.w3.org/2000/svg" xmlns:xlink="http://www.w3.org/1999/xlink">
<path d="M8.811,3.249C9.629,3.385 10.401,2.833 10.538,2.016C10.674,1.198 10.122,0.426 9.305,0.289L8.811,3.249ZM1.87,5.864C1.284,5.278 0.334,5.278 -0.251,5.864C-0.837,6.45 -0.837,7.399 -0.251,7.985L1.87,5.864ZM9.058,1.769C9.305,0.289 9.304,0.289 9.303,0.289C9.303,0.289 9.302,0.289 9.302,0.289C9.3,0.289 9.299,0.289 9.298,0.288C9.296,0.288 9.293,0.288 9.291,0.287C9.285,0.286 9.279,0.285 9.272,0.284C9.258,0.282 9.24,0.28 9.22,0.277C9.18,0.272 9.128,0.265 9.065,0.259C8.939,0.248 8.769,0.237 8.567,0.237C8.169,0.237 7.609,0.279 7.006,0.464C6.397,0.652 5.715,0.995 5.136,1.613C4.549,2.239 4.142,3.068 3.97,4.1L6.929,4.593C7.014,4.079 7.187,3.812 7.325,3.665C7.471,3.509 7.659,3.402 7.888,3.332C8.123,3.259 8.368,3.237 8.567,3.237C8.662,3.237 8.738,3.242 8.783,3.246C8.806,3.248 8.821,3.25 8.826,3.251C8.829,3.251 8.829,3.251 8.826,3.251C8.825,3.251 8.823,3.251 8.821,3.25C8.82,3.25 8.818,3.25 8.817,3.249C8.816,3.249 8.815,3.249 8.814,3.249C8.814,3.249 8.813,3.249 8.813,3.249C8.812,3.249 8.811,3.249 9.058,1.769ZM3.97,4.1C3.827,4.958 3.312,5.36 2.682,5.557C2.347,5.662 2.013,5.691 1.766,5.677C1.642,5.67 1.572,5.653 1.554,5.648C1.494,5.631 1.669,5.663 1.87,5.864L-0.251,7.985C0.078,8.315 0.479,8.46 0.717,8.529C0.997,8.61 1.298,8.655 1.593,8.672C2.183,8.706 2.88,8.638 3.577,8.421C5.008,7.973 6.556,6.829 6.929,4.593L3.97,4.1Z" transform="rotate(-60 4.934 4.458)" fill="#FF9228"/>
</svg>
