<svg width="10" height="8" viewBox="0 0 10 8" fill="none" xmlns="http://www.w3.org/2000/svg" xmlns:xlink="http://www.w3.org/1999/xlink">
<path d="M7.799,2.495C8.616,2.631 9.389,2.079 9.526,1.262C9.662,0.444 9.11,-0.328 8.293,-0.465L7.799,2.495ZM2.508,4.079C1.922,3.493 0.972,3.493 0.386,4.079C-0.2,4.664 -0.2,5.614 0.386,6.2L2.508,4.079ZM8.046,1.015C8.293,-0.465 8.292,-0.465 8.291,-0.465C8.291,-0.465 8.29,-0.465 8.29,-0.465C8.288,-0.465 8.287,-0.465 8.286,-0.466C8.284,-0.466 8.282,-0.466 8.279,-0.467C8.274,-0.468 8.268,-0.469 8.262,-0.469C8.249,-0.471 8.233,-0.474 8.215,-0.476C8.179,-0.481 8.134,-0.486 8.079,-0.491C7.971,-0.501 7.825,-0.511 7.653,-0.511C7.315,-0.511 6.835,-0.475 6.316,-0.316C5.791,-0.154 5.196,0.145 4.69,0.685C4.175,1.234 3.826,1.953 3.679,2.831L6.638,3.324C6.698,2.964 6.813,2.807 6.878,2.737C6.952,2.659 7.053,2.596 7.198,2.552C7.349,2.505 7.514,2.489 7.653,2.489C7.719,2.489 7.77,2.493 7.798,2.496C7.812,2.497 7.82,2.498 7.821,2.498C7.821,2.498 7.82,2.498 7.816,2.497C7.814,2.497 7.812,2.497 7.809,2.496C7.808,2.496 7.806,2.496 7.805,2.495C7.804,2.495 7.803,2.495 7.802,2.495C7.802,2.495 7.801,2.495 7.801,2.495C7.8,2.495 7.799,2.495 8.046,1.015ZM3.679,2.831C3.626,3.151 3.508,3.333 3.392,3.451C3.264,3.581 3.083,3.688 2.855,3.759C2.624,3.832 2.393,3.851 2.229,3.842C2.147,3.837 2.114,3.827 2.126,3.83C2.133,3.832 2.17,3.843 2.225,3.871C2.275,3.896 2.386,3.958 2.508,4.079L0.386,6.2C0.703,6.517 1.082,6.651 1.289,6.711C1.54,6.784 1.803,6.822 2.057,6.837C2.563,6.866 3.157,6.808 3.75,6.623C4.976,6.24 6.317,5.25 6.638,3.324L3.679,2.831Z" transform="rotate(-60 4.746 3.167)" fill="#FF9228"/>
</svg>
