<svg width="46" height="56" viewBox="0 0 46 56" fill="none" xmlns="http://www.w3.org/2000/svg" xmlns:xlink="http://www.w3.org/1999/xlink">
<path d="M22.699,0.496C23.381,0.496 24.036,0.699 24.518,1.06C25.001,1.421 25.272,1.91 25.272,2.42L25.272,47.796L41.461,35.687C41.944,35.326 42.599,35.123 43.282,35.123C43.966,35.123 44.621,35.326 45.104,35.687C45.587,36.049 45.859,36.539 45.859,37.05C45.859,37.56 45.587,38.05 45.104,38.412L24.521,53.802C24.282,53.982 23.998,54.124 23.685,54.221C23.372,54.318 23.037,54.368 22.699,54.368C22.36,54.368 22.025,54.318 21.713,54.221C21.4,54.124 21.116,53.982 20.877,53.802L0.294,38.412C-0.189,38.05 -0.461,37.56 -0.461,37.05C-0.461,36.539 -0.189,36.049 0.294,35.687C0.777,35.326 1.432,35.123 2.115,35.123C2.799,35.123 3.454,35.326 3.937,35.687L20.126,47.796L20.126,2.42C20.126,1.91 20.397,1.421 20.88,1.06C21.362,0.699 22.016,0.496 22.699,0.496L22.699,0.496Z" clip-rule="evenodd" fill-rule="evenodd" transform="rotate(-181.164 22.699 27.432)" fill="#FFFFFF"/>
</svg>
