<svg width="10" height="8" viewBox="0 0 10 8" fill="none" xmlns="http://www.w3.org/2000/svg" xmlns:xlink="http://www.w3.org/1999/xlink">
<path d="M7.8,2.095C8.617,2.231 9.39,1.679 9.526,0.862C9.662,0.045 9.11,-0.728 8.293,-0.864L7.8,2.095ZM2.508,3.679C1.922,3.094 0.973,3.094 0.387,3.679C-0.199,4.265 -0.199,5.215 0.387,5.801L2.508,3.679ZM8.046,0.616C8.293,-0.864 8.292,-0.864 8.292,-0.864C8.291,-0.864 8.291,-0.864 8.29,-0.865C8.289,-0.865 8.288,-0.865 8.287,-0.865C8.284,-0.865 8.282,-0.866 8.279,-0.866C8.274,-0.867 8.268,-0.868 8.262,-0.869C8.249,-0.871 8.234,-0.873 8.216,-0.875C8.18,-0.88 8.134,-0.886 8.08,-0.891C7.972,-0.901 7.826,-0.91 7.653,-0.91C7.315,-0.91 6.835,-0.875 6.316,-0.715C5.791,-0.553 5.197,-0.255 4.69,0.286C4.176,0.834 3.826,1.554 3.68,2.431L6.639,2.924C6.699,2.565 6.813,2.407 6.879,2.337C6.952,2.259 7.054,2.197 7.199,2.152C7.35,2.106 7.514,2.09 7.653,2.09C7.719,2.09 7.77,2.093 7.799,2.096C7.813,2.097 7.821,2.098 7.821,2.099C7.822,2.099 7.82,2.098 7.817,2.098C7.815,2.098 7.813,2.097 7.81,2.097C7.808,2.097 7.807,2.096 7.805,2.096C7.804,2.096 7.803,2.096 7.803,2.096C7.802,2.096 7.801,2.095 7.801,2.095C7.801,2.095 7.8,2.095 8.046,0.616ZM3.68,2.431C3.626,2.752 3.508,2.934 3.393,3.051C3.265,3.182 3.084,3.289 2.856,3.36C2.624,3.432 2.393,3.452 2.23,3.442C2.148,3.437 2.115,3.427 2.127,3.431C2.134,3.433 2.17,3.444 2.226,3.472C2.275,3.496 2.387,3.558 2.508,3.679L0.387,5.801C0.704,6.118 1.082,6.251 1.29,6.312C1.54,6.384 1.804,6.423 2.057,6.437C2.564,6.466 3.158,6.409 3.751,6.223C4.976,5.84 6.318,4.85 6.639,2.924L3.68,2.431Z" transform="rotate(-60 4.747 2.767)" fill="#FF9228"/>
</svg>
