<svg width="36" height="42" viewBox="0 0 36 42" fill="none" xmlns="http://www.w3.org/2000/svg" xmlns:xlink="http://www.w3.org/1999/xlink">
<path d="M35.244,32.731C34.622,34.157 33.852,35.517 32.948,36.79C31.74,38.485 30.749,39.656 29.988,40.308C28.808,41.373 27.539,41.921 26.183,41.952C25.211,41.952 24.037,41.68 22.67,41.128C21.298,40.578 20.039,40.308 18.885,40.308C17.677,40.308 16.382,40.578 14.994,41.128C13.609,41.68 12.489,41.97 11.632,41.996C10.334,42.052 9.037,41.49 7.743,40.308C6.918,39.601 5.886,38.386 4.646,36.666C3.32,34.834 2.229,32.702 1.374,30.278C0.459,27.655 0,25.118 0,22.661C0,19.848 0.618,17.419 1.858,15.386C2.795,13.79 4.135,12.457 5.748,11.517C7.34,10.58 9.156,10.075 11.011,10.054C12.046,10.054 13.402,10.368 15.082,10.987C16.762,11.606 17.841,11.919 18.311,11.919C18.667,11.919 19.861,11.55 21.894,10.819C23.813,10.141 25.432,9.86 26.759,9.97C30.357,10.255 33.058,11.648 34.855,14.158C31.639,16.074 30.049,18.754 30.081,22.195C30.108,24.875 31.099,27.105 33.043,28.875C33.902,29.683 34.904,30.329 36,30.782C35.762,31.46 35.51,32.108 35.244,32.731L35.244,32.731ZM26.997,0.842C26.997,2.941 26.215,4.903 24.66,6.718C22.78,8.874 20.509,10.123 18.046,9.926C18.014,9.662 17.998,9.397 17.999,9.131C17.999,7.113 18.889,4.956 20.48,3.191C21.271,2.298 22.279,1.553 23.5,0.961C24.719,0.378 25.87,0.055 26.954,0C26.984,0.283 26.997,0.563 26.997,0.842L26.997,0.842Z" fill="#000000"/>
</svg>
