<svg width="48" height="48" viewBox="0 0 48 48" fill="none" xmlns="http://www.w3.org/2000/svg" xmlns:xlink="http://www.w3.org/1999/xlink">
<path d="M41.5,21.333C41.5,20.505 40.828,19.833 40,19.833C39.172,19.833 38.5,20.505 38.5,21.333L41.5,21.333ZM26.778,9.5C27.606,9.5 28.278,8.828 28.278,8C28.278,7.172 27.606,6.5 26.778,6.5L26.778,9.5ZM32,40.5L14,40.5L14,43.5L32,43.5L32,40.5ZM7.5,34L7.5,16L4.5,16L4.5,34L7.5,34ZM38.5,21.333L38.5,34L41.5,34L41.5,21.333L38.5,21.333ZM14,9.5L26.778,9.5L26.778,6.5L14,6.5L14,9.5ZM14,40.5C10.41,40.5 7.5,37.59 7.5,34L4.5,34C4.5,39.247 8.753,43.5 14,43.5L14,40.5ZM32,43.5C37.247,43.5 41.5,39.247 41.5,34L38.5,34C38.5,37.59 35.59,40.5 32,40.5L32,43.5ZM7.5,16C7.5,12.41 10.41,9.5 14,9.5L14,6.5C8.753,6.5 4.5,10.753 4.5,16L7.5,16Z" fill="#FF9228"/>
<path d="M10.114,18.999C10.114,16.345 12.265,14.194 14.919,14.194L36.535,14.194C37.707,14.194 38.864,14.452 39.925,14.948L44.712,17.188C46.248,17.907 46.248,20.092 44.712,20.811L39.925,23.05C38.864,23.547 37.707,23.804 36.535,23.804L14.919,23.804C12.265,23.804 10.114,21.653 10.114,18.999L10.114,18.999Z" transform="rotate(270 29.348 18.999)" stroke="#FF9228" stroke-width="1.5" stroke-miterlimit="3.999327"/>
</svg>
